{
  "header": {
    "keySignatures": [
      {
        "key": "Eb",
        "scale": "major",
        "ticks": 0
      }
    ],
    "meta": [
      {
        "text": "By ReanimatoR^LasH",
        "ticks": 0,
        "type": "text"
      },
      {
        "text": "Copyright © 2005 by ReanimatoR^LasH",
        "ticks": 0,
        "type": "copyrightNotice"
      },
      {
        "text": "All Rights Reserved",
        "ticks": 0,
        "type": "copyrightNotice"
      },
      {
        "text": "Generated by NoteWorthy Composer",
        "ticks": 0,
        "type": "text"
      }
    ],
    "name": "",
    "ppq": 192,
    "tempos": [
      {
        "bpm": 148.000148000148,
        "ticks": 0
      },
      {
        "bpm": 147.0000955500621,
        "ticks": 6144
      },
      {
        "bpm": 96,
        "ticks": 9984
      },
      {
        "bpm": 130.00013000013,
        "ticks": 10752
      },
      {
        "bpm": 128,
        "ticks": 11520
      },
      {
        "bpm": 136.0001450668214,
        "ticks": 13248
      },
      {
        "bpm": 138.00019320027047,
        "ticks": 13632
      },
      {
        "bpm": 137.00006393336318,
        "ticks": 14592
      },
      {
        "bpm": 134.00005806669182,
        "ticks": 16128
      },
      {
        "bpm": 122.0000691333725,
        "ticks": 16896
      },
      {
        "bpm": 126.000126000126,
        "ticks": 17664
      },
      {
        "bpm": 128,
        "ticks": 18432
      },
      {
        "bpm": 130.00013000013,
        "ticks": 19200
      },
      {
        "bpm": 134.00005806669182,
        "ticks": 20736
      },
      {
        "bpm": 133.00024161710562,
        "ticks": 21504
      },
      {
        "bpm": 131.00007641671124,
        "ticks": 22272
      },
      {
        "bpm": 130.00013000013,
        "ticks": 23808
      },
      {
        "bpm": 120,
        "ticks": 26112
      },
      {
        "bpm": 135.000135000135,
        "ticks": 26880
      },
      {
        "bpm": 132.000132000132,
        "ticks": 27648
      },
      {
        "bpm": 130.00013000013,
        "ticks": 28416
      },
      {
        "bpm": 132.000132000132,
        "ticks": 29184
      },
      {
        "bpm": 135.000135000135,
        "ticks": 29952
      },
      {
        "bpm": 137.00006393336318,
        "ticks": 30720
      },
      {
        "bpm": 148.000148000148,
        "ticks": 32256
      },
      {
        "bpm": 140.00014000014,
        "ticks": 33024
      },
      {
        "bpm": 134.00005806669182,
        "ticks": 33408
      },
      {
        "bpm": 110.00011000011,
        "ticks": 34176
      }
    ],
    "timeSignatures": [
      {
        "ticks": 0,
        "timeSignature": [
          4,
          4
        ],
        "measures": 0
      }
    ]
  },
  "tracks": [
    {
      "channel": 0,
      "controlChanges": {
        "7": [
          {
            "number": 7,
            "ticks": 0,
            "time": 0,
            "value": 1
          }
        ],
        "10": [
          {
            "number": 10,
            "ticks": 0,
            "time": 0,
            "value": 0.5039370078740157
          }
        ]
      },
      "pitchBends": [],
      "instrument": {
        "family": "piano",
        "name": "acoustic grand piano",
        "number": 0
      },
      "name": "Staff-2",
      "notes": []
    },
    {
      "channel": 1,
      "controlChanges": {
        "64": [
          {
            "number": 64,
            "ticks": 5376,
            "time": 11.35134,
            "value": 1
          },
          {
            "number": 64,
            "ticks": 6144,
            "time": 12.97296,
            "value": 0
          },
          {
            "number": 64,
            "ticks": 11904,
            "time": 26.419872,
            "value": 1
          },
          {
            "number": 64,
            "ticks": 12288,
            "time": 27.357372,
            "value": 0
          },
          {
            "number": 64,
            "ticks": 13248,
            "time": 29.701122,
            "value": 1
          },
          {
            "number": 64,
            "ticks": 13536,
            "time": 30.362886000000003,
            "value": 0
          },
          {
            "number": 64,
            "ticks": 16896,
            "time": 38.052076,
            "value": 1
          },
          {
            "number": 64,
            "ticks": 17592,
            "time": 39.834861875,
            "value": 0
          },
          {
            "number": 64,
            "ticks": 17664,
            "time": 40.019288,
            "value": 1
          },
          {
            "number": 64,
            "ticks": 18240,
            "time": 41.447858000000004,
            "value": 0
          },
          {
            "number": 64,
            "ticks": 18240,
            "time": 41.447858000000004,
            "value": 1
          },
          {
            "number": 64,
            "ticks": 18432,
            "time": 41.924048000000006,
            "value": 0
          },
          {
            "number": 64,
            "ticks": 18816,
            "time": 42.861548000000006,
            "value": 1
          },
          {
            "number": 64,
            "ticks": 19200,
            "time": 43.799048000000006,
            "value": 0
          },
          {
            "number": 64,
            "ticks": 19200,
            "time": 43.799048000000006,
            "value": 1
          },
          {
            "number": 64,
            "ticks": 19776,
            "time": 45.183662000000005,
            "value": 0
          },
          {
            "number": 64,
            "ticks": 19776,
            "time": 45.183662000000005,
            "value": 1
          },
          {
            "number": 64,
            "ticks": 19968,
            "time": 45.6452,
            "value": 0
          },
          {
            "number": 64,
            "ticks": 20352,
            "time": 46.568276000000004,
            "value": 1
          },
          {
            "number": 64,
            "ticks": 20736,
            "time": 47.491352000000006,
            "value": 0
          }
        ]
      },
      "pitchBends": [],
      "instrument": {
        "family": "piano",
        "name": "bright acoustic piano",
        "number": 1
      },
      "name": "",
      "notes": [
        {
          "duration": 0.050675625,
          "durationTicks": 24,
          "midi": 67,
          "name": "G4",
          "ticks": 0,
          "time": 0,
          "velocity": 0.8503937007874016
        },
        {
          "duration": 0.405405,
          "durationTicks": 192,
          "midi": 79,
          "name": "G5",
          "ticks": 0,
          "time": 0,
          "velocity": 0.8503937007874016
        },
        {
          "duration": 0.050675625,
          "durationTicks": 24,
          "midi": 72,
          "name": "C5",
          "ticks": 24,
          "time": 0.050675625,
          "velocity": 0.8503937007874016
        },
        {
          "duration": 0.050675625,
          "durationTicks": 24,
          "midi": 75,
          "name": "D#5",
          "ticks": 48,
          "time": 0.10135125,
          "velocity": 0.8503937007874016
        },
        {
          "duration": 0.27027,
          "durationTicks": 128,
          "midi": 75,
          "name": "D#5",
          "ticks": 384,
          "time": 0.81081,
          "velocity": 0.8503937007874016
        },
        {
          "duration": 0.135135,
          "durationTicks": 64,
          "midi": 72,
          "name": "C5",
          "ticks": 512,
          "time": 1.08108,
          "velocity": 0.8503937007874016
        },
        {
          "duration": 0.135135,
          "durationTicks": 64,
          "midi": 67,
          "name": "G4",
          "ticks": 576,
          "time": 1.216215,
          "velocity": 0.8503937007874016
        },
        {
          "duration": 0.70945875,
          "durationTicks": 336,
          "midi": 66,
          "name": "F#4",
          "ticks": 768,
          "time": 1.62162,
          "velocity": 0.8503937007874016
        },
        {
          "duration": 0.050675625000000224,
          "durationTicks": 24,
          "midi": 65,
          "name": "F4",
          "ticks": 1536,
          "time": 3.24324,
          "velocity": 0.8503937007874016
        },
        {
          "duration": 0.405405,
          "durationTicks": 192,
          "midi": 77,
          "name": "F5",
          "ticks": 1536,
          "time": 3.24324,
          "velocity": 0.8503937007874016
        },
        {
          "duration": 0.05067562499999978,
          "durationTicks": 24,
          "midi": 71,
          "name": "B4",
          "ticks": 1560,
          "time": 3.2939156250000003,
          "velocity": 0.8503937007874016
        },
        {
          "duration": 0.05067562499999978,
          "durationTicks": 24,
          "midi": 74,
          "name": "D5",
          "ticks": 1584,
          "time": 3.34459125,
          "velocity": 0.8503937007874016
        },
        {
          "duration": 0.27027,
          "durationTicks": 128,
          "midi": 74,
          "name": "D5",
          "ticks": 1920,
          "time": 4.05405,
          "velocity": 0.8503937007874016
        },
        {
          "duration": 0.135135,
          "durationTicks": 64,
          "midi": 71,
          "name": "B4",
          "ticks": 2048,
          "time": 4.32432,
          "velocity": 0.8503937007874016
        },
        {
          "duration": 0.135135,
          "durationTicks": 64,
          "midi": 65,
          "name": "F4",
          "ticks": 2112,
          "time": 4.459455,
          "velocity": 0.8503937007874016
        },
        {
          "duration": 0.7094587499999996,
          "durationTicks": 336,
          "midi": 63,
          "name": "D#4",
          "ticks": 2304,
          "time": 4.86486,
          "velocity": 0.8503937007874016
        },
        {
          "duration": 0.13513499999999912,
          "durationTicks": 64,
          "midi": 65,
          "name": "F4",
          "ticks": 3200,
          "time": 6.756750000000001,
          "velocity": 0.8503937007874016
        },
        {
          "duration": 0.2702700000000009,
          "durationTicks": 128,
          "midi": 67,
          "name": "G4",
          "ticks": 3264,
          "time": 6.891885,
          "velocity": 0.8503937007874016
        },
        {
          "duration": 0.405405,
          "durationTicks": 192,
          "midi": 68,
          "name": "G#4",
          "ticks": 3392,
          "time": 7.162155000000001,
          "velocity": 0.8503937007874016
        },
        {
          "duration": 0.13513499999999912,
          "durationTicks": 64,
          "midi": 67,
          "name": "G4",
          "ticks": 3584,
          "time": 7.567560000000001,
          "velocity": 0.8503937007874016
        },
        {
          "duration": 0.405405,
          "durationTicks": 192,
          "midi": 65,
          "name": "F4",
          "ticks": 3648,
          "time": 7.702695,
          "velocity": 0.8503937007874016
        },
        {
          "duration": 0.27027,
          "durationTicks": 128,
          "midi": 67,
          "name": "G4",
          "ticks": 3840,
          "time": 8.1081,
          "velocity": 0.8503937007874016
        },
        {
          "duration": 0.135135,
          "durationTicks": 64,
          "midi": 72,
          "name": "C5",
          "ticks": 3968,
          "time": 8.37837,
          "velocity": 0.8503937007874016
        },
        {
          "duration": 0.2660470312500003,
          "durationTicks": 126,
          "midi": 72,
          "name": "C5",
          "ticks": 4160,
          "time": 8.783775,
          "velocity": 0.8503937007874016
        },
        {
          "duration": 0.27027,
          "durationTicks": 128,
          "midi": 72,
          "name": "C5",
          "ticks": 4800,
          "time": 10.135125,
          "velocity": 0.8503937007874016
        },
        {
          "duration": 0.27027,
          "durationTicks": 128,
          "midi": 71,
          "name": "B4",
          "ticks": 4992,
          "time": 10.54053,
          "velocity": 0.8503937007874016
        },
        {
          "duration": 0.135135,
          "durationTicks": 64,
          "midi": 72,
          "name": "C5",
          "ticks": 5120,
          "time": 10.8108,
          "velocity": 0.8503937007874016
        },
        {
          "duration": 0.27027,
          "durationTicks": 128,
          "midi": 74,
          "name": "D5",
          "ticks": 5184,
          "time": 10.945935,
          "velocity": 0.8503937007874016
        },
        {
          "duration": 0.7094587499999996,
          "durationTicks": 336,
          "midi": 79,
          "name": "G5",
          "ticks": 5376,
          "time": 11.35134,
          "velocity": 0.8503937007874016
        },
        {
          "duration": 0.8163260000000001,
          "durationTicks": 384,
          "midi": 72,
          "name": "C5",
          "ticks": 6144,
          "time": 12.97296,
          "velocity": 0.8503937007874016
        },
        {
          "duration": 0.05102037500000023,
          "durationTicks": 24,
          "midi": 72,
          "name": "C5",
          "ticks": 6528,
          "time": 13.789286,
          "velocity": 0.8503937007874016
        },
        {
          "duration": 0.05102037500000023,
          "durationTicks": 24,
          "midi": 70,
          "name": "A#4",
          "ticks": 6552,
          "time": 13.840306375,
          "velocity": 0.8503937007874016
        },
        {
          "duration": 0.05102037500000023,
          "durationTicks": 24,
          "midi": 68,
          "name": "G#4",
          "ticks": 6576,
          "time": 13.891326750000001,
          "velocity": 0.8503937007874016
        },
        {
          "duration": 0.6122444999999992,
          "durationTicks": 288,
          "midi": 67,
          "name": "G4",
          "ticks": 6600,
          "time": 13.942347125000001,
          "velocity": 0.8503937007874016
        },
        {
          "duration": 0.05102037500000023,
          "durationTicks": 24,
          "midi": 67,
          "name": "G4",
          "ticks": 6912,
          "time": 14.605612,
          "velocity": 0.8503937007874016
        },
        {
          "duration": 0.05102037500000023,
          "durationTicks": 24,
          "midi": 65,
          "name": "F4",
          "ticks": 6936,
          "time": 14.656632375000001,
          "velocity": 0.8503937007874016
        },
        {
          "duration": 0.05102037500000023,
          "durationTicks": 24,
          "midi": 63,
          "name": "D#4",
          "ticks": 6960,
          "time": 14.707652750000001,
          "velocity": 0.8503937007874016
        },
        {
          "duration": 0.05102037499999845,
          "durationTicks": 24,
          "midi": 62,
          "name": "D4",
          "ticks": 6984,
          "time": 14.758673125000001,
          "velocity": 0.8503937007874016
        },
        {
          "duration": 0.544217333333334,
          "durationTicks": 256,
          "midi": 60,
          "name": "C4",
          "ticks": 7008,
          "time": 14.8096935,
          "velocity": 0.8503937007874016
        },
        {
          "duration": 0.8163260000000001,
          "durationTicks": 384,
          "midi": 84,
          "name": "C6",
          "ticks": 8448,
          "time": 17.870916,
          "velocity": 0.8503937007874016
        },
        {
          "duration": 0.05102037500000023,
          "durationTicks": 24,
          "midi": 84,
          "name": "C6",
          "ticks": 8832,
          "time": 18.687242,
          "velocity": 0.8503937007874016
        },
        {
          "duration": 0.05102037500000023,
          "durationTicks": 24,
          "midi": 82,
          "name": "A#5",
          "ticks": 8856,
          "time": 18.738262375,
          "velocity": 0.8503937007874016
        },
        {
          "duration": 0.051020374999996676,
          "durationTicks": 24,
          "midi": 80,
          "name": "G#5",
          "ticks": 8880,
          "time": 18.78928275,
          "velocity": 0.8503937007874016
        },
        {
          "duration": 0.6122445000000027,
          "durationTicks": 288,
          "midi": 79,
          "name": "G5",
          "ticks": 8904,
          "time": 18.840303125,
          "velocity": 0.8503937007874016
        },
        {
          "duration": 0.05102037500000023,
          "durationTicks": 24,
          "midi": 79,
          "name": "G5",
          "ticks": 9216,
          "time": 19.503568,
          "velocity": 0.8503937007874016
        },
        {
          "duration": 0.05102037500000023,
          "durationTicks": 24,
          "midi": 77,
          "name": "F5",
          "ticks": 9240,
          "time": 19.554588375,
          "velocity": 0.8503937007874016
        },
        {
          "duration": 0.05102037500000023,
          "durationTicks": 24,
          "midi": 75,
          "name": "D#5",
          "ticks": 9264,
          "time": 19.605608750000002,
          "velocity": 0.8503937007874016
        },
        {
          "duration": 0.05102037500000023,
          "durationTicks": 24,
          "midi": 74,
          "name": "D5",
          "ticks": 9288,
          "time": 19.656629125000002,
          "velocity": 0.8503937007874016
        },
        {
          "duration": 0.5442173333333322,
          "durationTicks": 256,
          "midi": 72,
          "name": "C5",
          "ticks": 9312,
          "time": 19.707649500000002,
          "velocity": 0.8503937007874016
        },
        {
          "duration": 0.05859375,
          "durationTicks": 24,
          "midi": 78,
          "name": "F#5",
          "ticks": 11904,
          "time": 26.419872,
          "velocity": 0.8503937007874016
        },
        {
          "duration": 0.05859375,
          "durationTicks": 24,
          "midi": 81,
          "name": "A5",
          "ticks": 11928,
          "time": 26.47846575,
          "velocity": 0.8503937007874016
        },
        {
          "duration": 0.05859375,
          "durationTicks": 24,
          "midi": 84,
          "name": "C6",
          "ticks": 11952,
          "time": 26.5370595,
          "velocity": 0.8503937007874016
        },
        {
          "duration": 0.05859375,
          "durationTicks": 24,
          "midi": 86,
          "name": "D6",
          "ticks": 11976,
          "time": 26.59565325,
          "velocity": 0.8503937007874016
        },
        {
          "duration": 0.05859375,
          "durationTicks": 24,
          "midi": 86,
          "name": "D6",
          "ticks": 12096,
          "time": 26.888622,
          "velocity": 0.8503937007874016
        },
        {
          "duration": 0.05859375,
          "durationTicks": 24,
          "midi": 84,
          "name": "C6",
          "ticks": 12120,
          "time": 26.94721575,
          "velocity": 0.8503937007874016
        },
        {
          "duration": 0.05859375,
          "durationTicks": 24,
          "midi": 81,
          "name": "A5",
          "ticks": 12144,
          "time": 27.0058095,
          "velocity": 0.8503937007874016
        },
        {
          "duration": 0.0537109375,
          "durationTicks": 22,
          "midi": 78,
          "name": "F#5",
          "ticks": 12168,
          "time": 27.06440325,
          "velocity": 0.8503937007874016
        },
        {
          "duration": 0.05514700000000161,
          "durationTicks": 24,
          "midi": 84,
          "name": "C6",
          "ticks": 13248,
          "time": 29.701122,
          "velocity": 0.8503937007874016
        },
        {
          "duration": 0.05514699999999806,
          "durationTicks": 24,
          "midi": 86,
          "name": "D6",
          "ticks": 13272,
          "time": 29.756269000000003,
          "velocity": 0.8503937007874016
        },
        {
          "duration": 0.05514700000000161,
          "durationTicks": 24,
          "midi": 87,
          "name": "D#6",
          "ticks": 13296,
          "time": 29.811416,
          "velocity": 0.8503937007874016
        },
        {
          "duration": 0.05514699999999806,
          "durationTicks": 24,
          "midi": 91,
          "name": "G6",
          "ticks": 13320,
          "time": 29.866563000000003,
          "velocity": 0.8503937007874016
        },
        {
          "duration": 0.05514700000000161,
          "durationTicks": 24,
          "midi": 91,
          "name": "G6",
          "ticks": 13440,
          "time": 30.142298,
          "velocity": 0.8503937007874016
        },
        {
          "duration": 0.05514699999999806,
          "durationTicks": 24,
          "midi": 87,
          "name": "D#6",
          "ticks": 13464,
          "time": 30.197445000000002,
          "velocity": 0.8503937007874016
        },
        {
          "duration": 0.05514700000000161,
          "durationTicks": 24,
          "midi": 86,
          "name": "D6",
          "ticks": 13488,
          "time": 30.252592,
          "velocity": 0.8503937007874016
        },
        {
          "duration": 0.05514700000000161,
          "durationTicks": 24,
          "midi": 84,
          "name": "C6",
          "ticks": 13512,
          "time": 30.307739,
          "velocity": 0.8503937007874016
        },
        {
          "duration": 0.2898546666666668,
          "durationTicks": 128,
          "midi": 84,
          "name": "C6",
          "ticks": 13632,
          "time": 30.583474000000002,
          "velocity": 0.8503937007874016
        },
        {
          "duration": 0.14492733333333163,
          "durationTicks": 64,
          "midi": 84,
          "name": "C6",
          "ticks": 13760,
          "time": 30.87332866666667,
          "velocity": 0.8503937007874016
        },
        {
          "duration": 0.14492733333333163,
          "durationTicks": 64,
          "midi": 86,
          "name": "D6",
          "ticks": 13760,
          "time": 30.87332866666667,
          "velocity": 0.8503937007874016
        },
        {
          "duration": 0.2898546666666668,
          "durationTicks": 128,
          "midi": 80,
          "name": "G#5",
          "ticks": 13824,
          "time": 31.018256,
          "velocity": 0.8503937007874016
        },
        {
          "duration": 0.2898546666666668,
          "durationTicks": 128,
          "midi": 84,
          "name": "C6",
          "ticks": 13824,
          "time": 31.018256,
          "velocity": 0.8503937007874016
        },
        {
          "duration": 0.14492733333333518,
          "durationTicks": 64,
          "midi": 80,
          "name": "G#5",
          "ticks": 13952,
          "time": 31.308110666666668,
          "velocity": 0.8503937007874016
        },
        {
          "duration": 0.14492733333333518,
          "durationTicks": 64,
          "midi": 84,
          "name": "C6",
          "ticks": 13952,
          "time": 31.308110666666668,
          "velocity": 0.8503937007874016
        },
        {
          "duration": 0.14492733333333518,
          "durationTicks": 64,
          "midi": 86,
          "name": "D6",
          "ticks": 13952,
          "time": 31.308110666666668,
          "velocity": 0.8503937007874016
        },
        {
          "duration": 0.2898546666666668,
          "durationTicks": 128,
          "midi": 80,
          "name": "G#5",
          "ticks": 14016,
          "time": 31.453038000000003,
          "velocity": 0.8503937007874016
        },
        {
          "duration": 0.2898546666666668,
          "durationTicks": 128,
          "midi": 84,
          "name": "C6",
          "ticks": 14016,
          "time": 31.453038000000003,
          "velocity": 0.8503937007874016
        },
        {
          "duration": 0.2898546666666668,
          "durationTicks": 128,
          "midi": 87,
          "name": "D#6",
          "ticks": 14016,
          "time": 31.453038000000003,
          "velocity": 0.8503937007874016
        },
        {
          "duration": 0.14492733333333163,
          "durationTicks": 64,
          "midi": 80,
          "name": "G#5",
          "ticks": 14144,
          "time": 31.74289266666667,
          "velocity": 0.8503937007874016
        },
        {
          "duration": 0.14492733333333163,
          "durationTicks": 64,
          "midi": 84,
          "name": "C6",
          "ticks": 14144,
          "time": 31.74289266666667,
          "velocity": 0.8503937007874016
        },
        {
          "duration": 0.14492733333333163,
          "durationTicks": 64,
          "midi": 87,
          "name": "D#6",
          "ticks": 14144,
          "time": 31.74289266666667,
          "velocity": 0.8503937007874016
        },
        {
          "duration": 0.28985466666666326,
          "durationTicks": 128,
          "midi": 87,
          "name": "D#6",
          "ticks": 14400,
          "time": 32.322602,
          "velocity": 0.8503937007874016
        },
        {
          "duration": 0.14492733333333518,
          "durationTicks": 64,
          "midi": 86,
          "name": "D6",
          "ticks": 14528,
          "time": 32.61245666666667,
          "velocity": 0.8503937007874016
        },
        {
          "duration": 0.29197066666666416,
          "durationTicks": 128,
          "midi": 84,
          "name": "C6",
          "ticks": 14592,
          "time": 32.757384,
          "velocity": 0.8503937007874016
        },
        {
          "duration": 0.29197066666666416,
          "durationTicks": 128,
          "midi": 87,
          "name": "D#6",
          "ticks": 14592,
          "time": 32.757384,
          "velocity": 0.8503937007874016
        },
        {
          "duration": 0.14598533333333563,
          "durationTicks": 64,
          "midi": 84,
          "name": "C6",
          "ticks": 14720,
          "time": 33.049354666666666,
          "velocity": 0.8503937007874016
        },
        {
          "duration": 0.14598533333333563,
          "durationTicks": 64,
          "midi": 87,
          "name": "D#6",
          "ticks": 14720,
          "time": 33.049354666666666,
          "velocity": 0.8503937007874016
        },
        {
          "duration": 0.14598533333333563,
          "durationTicks": 64,
          "midi": 89,
          "name": "F6",
          "ticks": 14720,
          "time": 33.049354666666666,
          "velocity": 0.8503937007874016
        },
        {
          "duration": 0.29197066666666416,
          "durationTicks": 128,
          "midi": 84,
          "name": "C6",
          "ticks": 14784,
          "time": 33.19534,
          "velocity": 0.8503937007874016
        },
        {
          "duration": 0.29197066666666416,
          "durationTicks": 128,
          "midi": 87,
          "name": "D#6",
          "ticks": 14784,
          "time": 33.19534,
          "velocity": 0.8503937007874016
        },
        {
          "duration": 0.29197066666666416,
          "durationTicks": 128,
          "midi": 91,
          "name": "G6",
          "ticks": 14784,
          "time": 33.19534,
          "velocity": 0.8503937007874016
        },
        {
          "duration": 0.14598533333333563,
          "durationTicks": 64,
          "midi": 84,
          "name": "C6",
          "ticks": 14912,
          "time": 33.487310666666666,
          "velocity": 0.8503937007874016
        },
        {
          "duration": 0.14598533333333563,
          "durationTicks": 64,
          "midi": 87,
          "name": "D#6",
          "ticks": 14912,
          "time": 33.487310666666666,
          "velocity": 0.8503937007874016
        },
        {
          "duration": 0.14598533333333563,
          "durationTicks": 64,
          "midi": 91,
          "name": "G6",
          "ticks": 14912,
          "time": 33.487310666666666,
          "velocity": 0.8503937007874016
        },
        {
          "duration": 0.29197066666666416,
          "durationTicks": 128,
          "midi": 84,
          "name": "C6",
          "ticks": 15168,
          "time": 34.071252,
          "velocity": 0.8503937007874016
        },
        {
          "duration": 0.14598533333333563,
          "durationTicks": 64,
          "midi": 86,
          "name": "D6",
          "ticks": 15296,
          "time": 34.363222666666665,
          "velocity": 0.8503937007874016
        },
        {
          "duration": 0.4379560000000069,
          "durationTicks": 192,
          "midi": 78,
          "name": "F#5",
          "ticks": 15488,
          "time": 34.801178666666665,
          "velocity": 0.8503937007874016
        },
        {
          "duration": 0.4379560000000069,
          "durationTicks": 192,
          "midi": 80,
          "name": "G#5",
          "ticks": 15488,
          "time": 34.801178666666665,
          "velocity": 0.8503937007874016
        },
        {
          "duration": 0.4379560000000069,
          "durationTicks": 192,
          "midi": 84,
          "name": "C6",
          "ticks": 15488,
          "time": 34.801178666666665,
          "velocity": 0.8503937007874016
        },
        {
          "duration": 0.4379560000000069,
          "durationTicks": 192,
          "midi": 87,
          "name": "D#6",
          "ticks": 15488,
          "time": 34.801178666666665,
          "velocity": 0.8503937007874016
        },
        {
          "duration": 0.4379559999999998,
          "durationTicks": 192,
          "midi": 81,
          "name": "A5",
          "ticks": 15744,
          "time": 35.38512,
          "velocity": 0.8503937007874016
        },
        {
          "duration": 0.4379559999999998,
          "durationTicks": 192,
          "midi": 84,
          "name": "C6",
          "ticks": 15744,
          "time": 35.38512,
          "velocity": 0.8503937007874016
        },
        {
          "duration": 0.4379559999999998,
          "durationTicks": 192,
          "midi": 86,
          "name": "D6",
          "ticks": 15744,
          "time": 35.38512,
          "velocity": 0.8503937007874016
        },
        {
          "duration": 0.4379559999999998,
          "durationTicks": 192,
          "midi": 90,
          "name": "F#6",
          "ticks": 15744,
          "time": 35.38512,
          "velocity": 0.8503937007874016
        },
        {
          "duration": 1.3432829999999996,
          "durationTicks": 576,
          "midi": 79,
          "name": "G5",
          "ticks": 16128,
          "time": 36.261032,
          "velocity": 0.8503937007874016
        },
        {
          "duration": 1.3432829999999996,
          "durationTicks": 576,
          "midi": 83,
          "name": "B5",
          "ticks": 16128,
          "time": 36.261032,
          "velocity": 0.8503937007874016
        },
        {
          "duration": 1.3432829999999996,
          "durationTicks": 576,
          "midi": 86,
          "name": "D6",
          "ticks": 16128,
          "time": 36.261032,
          "velocity": 0.8503937007874016
        },
        {
          "duration": 1.3432829999999996,
          "durationTicks": 576,
          "midi": 91,
          "name": "G6",
          "ticks": 16128,
          "time": 36.261032,
          "velocity": 0.8503937007874016
        },
        {
          "duration": 0.061475375000000554,
          "durationTicks": 24,
          "midi": 89,
          "name": "F6",
          "ticks": 16896,
          "time": 38.052076,
          "velocity": 0.8503937007874016
        },
        {
          "duration": 0.061475375000000554,
          "durationTicks": 24,
          "midi": 87,
          "name": "D#6",
          "ticks": 16920,
          "time": 38.113551375,
          "velocity": 0.8503937007874016
        },
        {
          "duration": 0.061475375000000554,
          "durationTicks": 24,
          "midi": 86,
          "name": "D6",
          "ticks": 16944,
          "time": 38.17502675,
          "velocity": 0.8503937007874016
        },
        {
          "duration": 0.061475375000000554,
          "durationTicks": 24,
          "midi": 84,
          "name": "C6",
          "ticks": 16968,
          "time": 38.236502125,
          "velocity": 0.8503937007874016
        },
        {
          "duration": 0.061475375000000554,
          "durationTicks": 24,
          "midi": 82,
          "name": "A#5",
          "ticks": 16992,
          "time": 38.2979775,
          "velocity": 0.8503937007874016
        },
        {
          "duration": 0.061475375000000554,
          "durationTicks": 24,
          "midi": 80,
          "name": "G#5",
          "ticks": 17016,
          "time": 38.359452875,
          "velocity": 0.8503937007874016
        },
        {
          "duration": 0.06147537499999345,
          "durationTicks": 24,
          "midi": 79,
          "name": "G5",
          "ticks": 17040,
          "time": 38.42092825,
          "velocity": 0.8503937007874016
        },
        {
          "duration": 0.061475375000000554,
          "durationTicks": 24,
          "midi": 77,
          "name": "F5",
          "ticks": 17064,
          "time": 38.482403624999996,
          "velocity": 0.8503937007874016
        },
        {
          "duration": 0.061475375000000554,
          "durationTicks": 24,
          "midi": 75,
          "name": "D#5",
          "ticks": 17088,
          "time": 38.543879,
          "velocity": 0.8503937007874016
        },
        {
          "duration": 0.061475375000000554,
          "durationTicks": 24,
          "midi": 74,
          "name": "D5",
          "ticks": 17112,
          "time": 38.605354375,
          "velocity": 0.8503937007874016
        },
        {
          "duration": 0.061475375000000554,
          "durationTicks": 24,
          "midi": 72,
          "name": "C5",
          "ticks": 17136,
          "time": 38.66682975,
          "velocity": 0.8503937007874016
        },
        {
          "duration": 0.061475375000000554,
          "durationTicks": 24,
          "midi": 70,
          "name": "A#4",
          "ticks": 17160,
          "time": 38.728305125,
          "velocity": 0.8503937007874016
        },
        {
          "duration": 0.061475375000000554,
          "durationTicks": 24,
          "midi": 68,
          "name": "G#4",
          "ticks": 17184,
          "time": 38.7897805,
          "velocity": 0.8503937007874016
        },
        {
          "duration": 0.061475375000000554,
          "durationTicks": 24,
          "midi": 67,
          "name": "G4",
          "ticks": 17208,
          "time": 38.851255875,
          "velocity": 0.8503937007874016
        },
        {
          "duration": 0.061475375000000554,
          "durationTicks": 24,
          "midi": 65,
          "name": "F4",
          "ticks": 17232,
          "time": 38.91273125,
          "velocity": 0.8503937007874016
        },
        {
          "duration": 0.061475375000000554,
          "durationTicks": 24,
          "midi": 63,
          "name": "D#4",
          "ticks": 17256,
          "time": 38.974206625,
          "velocity": 0.8503937007874016
        },
        {
          "duration": 0.061475375000000554,
          "durationTicks": 24,
          "midi": 62,
          "name": "D4",
          "ticks": 17280,
          "time": 39.035682,
          "velocity": 0.8503937007874016
        },
        {
          "duration": 0.061475375000000554,
          "durationTicks": 24,
          "midi": 60,
          "name": "C4",
          "ticks": 17304,
          "time": 39.097157375,
          "velocity": 0.8503937007874016
        },
        {
          "duration": 0.06147537499999345,
          "durationTicks": 24,
          "midi": 58,
          "name": "A#3",
          "ticks": 17328,
          "time": 39.15863275,
          "velocity": 0.8503937007874016
        },
        {
          "duration": 0.061475375000000554,
          "durationTicks": 24,
          "midi": 56,
          "name": "G#3",
          "ticks": 17352,
          "time": 39.220108124999996,
          "velocity": 0.8503937007874016
        },
        {
          "duration": 0.061475375000000554,
          "durationTicks": 24,
          "midi": 55,
          "name": "G3",
          "ticks": 17376,
          "time": 39.281583499999996,
          "velocity": 0.8503937007874016
        },
        {
          "duration": 0.061475375000000554,
          "durationTicks": 24,
          "midi": 53,
          "name": "F3",
          "ticks": 17400,
          "time": 39.343058875,
          "velocity": 0.8503937007874016
        },
        {
          "duration": 0.061475375000000554,
          "durationTicks": 24,
          "midi": 51,
          "name": "D#3",
          "ticks": 17424,
          "time": 39.40453425,
          "velocity": 0.8503937007874016
        },
        {
          "duration": 0.061475375000000554,
          "durationTicks": 24,
          "midi": 50,
          "name": "D3",
          "ticks": 17448,
          "time": 39.466009625,
          "velocity": 0.8503937007874016
        },
        {
          "duration": 0.061475375000000554,
          "durationTicks": 24,
          "midi": 48,
          "name": "C3",
          "ticks": 17472,
          "time": 39.527485,
          "velocity": 0.8503937007874016
        },
        {
          "duration": 0.061475375000000554,
          "durationTicks": 24,
          "midi": 46,
          "name": "A#2",
          "ticks": 17496,
          "time": 39.588960375,
          "velocity": 0.8503937007874016
        },
        {
          "duration": 0.061475375000000554,
          "durationTicks": 24,
          "midi": 44,
          "name": "G#2",
          "ticks": 17520,
          "time": 39.65043575,
          "velocity": 0.8503937007874016
        },
        {
          "duration": 0.061475375000000554,
          "durationTicks": 24,
          "midi": 43,
          "name": "G2",
          "ticks": 17544,
          "time": 39.711911125,
          "velocity": 0.8503937007874016
        },
        {
          "duration": 0.061475375000000554,
          "durationTicks": 24,
          "midi": 41,
          "name": "F2",
          "ticks": 17568,
          "time": 39.7733865,
          "velocity": 0.8503937007874016
        },
        {
          "duration": 0.05952374999999677,
          "durationTicks": 24,
          "midi": 75,
          "name": "D#5",
          "ticks": 17856,
          "time": 40.495478000000006,
          "velocity": 0.8503937007874016
        },
        {
          "duration": 0.05952375000000387,
          "durationTicks": 24,
          "midi": 79,
          "name": "G5",
          "ticks": 17880,
          "time": 40.55500175,
          "velocity": 0.8503937007874016
        },
        {
          "duration": 0.05952374999999677,
          "durationTicks": 24,
          "midi": 82,
          "name": "A#5",
          "ticks": 17904,
          "time": 40.614525500000006,
          "velocity": 0.8503937007874016
        },
        {
          "duration": 0.05456343750000059,
          "durationTicks": 22,
          "midi": 87,
          "name": "D#6",
          "ticks": 17928,
          "time": 40.67404925,
          "velocity": 0.8503937007874016
        },
        {
          "duration": 0.05952374999999677,
          "durationTicks": 24,
          "midi": 75,
          "name": "D#5",
          "ticks": 18240,
          "time": 41.447858000000004,
          "velocity": 0.8503937007874016
        },
        {
          "duration": 0.05952375000000387,
          "durationTicks": 24,
          "midi": 79,
          "name": "G5",
          "ticks": 18264,
          "time": 41.50738175,
          "velocity": 0.8503937007874016
        },
        {
          "duration": 0.05952374999999677,
          "durationTicks": 24,
          "midi": 82,
          "name": "A#5",
          "ticks": 18288,
          "time": 41.566905500000004,
          "velocity": 0.8503937007874016
        },
        {
          "duration": 0.05456343750000059,
          "durationTicks": 22,
          "midi": 87,
          "name": "D#6",
          "ticks": 18312,
          "time": 41.62642925,
          "velocity": 0.8503937007874016
        },
        {
          "duration": 0.15625,
          "durationTicks": 64,
          "midi": 77,
          "name": "F5",
          "ticks": 18880,
          "time": 43.017798000000006,
          "velocity": 0.8503937007874016
        },
        {
          "duration": 0.15625,
          "durationTicks": 64,
          "midi": 82,
          "name": "A#5",
          "ticks": 18944,
          "time": 43.174048000000006,
          "velocity": 0.8503937007874016
        },
        {
          "duration": 0.15625,
          "durationTicks": 64,
          "midi": 86,
          "name": "D6",
          "ticks": 19008,
          "time": 43.330298000000006,
          "velocity": 0.8503937007874016
        },
        {
          "duration": 0.15625,
          "durationTicks": 64,
          "midi": 82,
          "name": "A#5",
          "ticks": 19072,
          "time": 43.486548000000006,
          "velocity": 0.8503937007874016
        },
        {
          "duration": 0.1513671875,
          "durationTicks": 62,
          "midi": 77,
          "name": "F5",
          "ticks": 19136,
          "time": 43.642798000000006,
          "velocity": 0.8503937007874016
        },
        {
          "duration": 0.05769225000000233,
          "durationTicks": 24,
          "midi": 84,
          "name": "C6",
          "ticks": 19392,
          "time": 44.260586,
          "velocity": 0.8503937007874016
        },
        {
          "duration": 0.05769225000000233,
          "durationTicks": 24,
          "midi": 82,
          "name": "A#5",
          "ticks": 19416,
          "time": 44.318278250000006,
          "velocity": 0.8503937007874016
        },
        {
          "duration": 0.057692249999995227,
          "durationTicks": 24,
          "midi": 80,
          "name": "G#5",
          "ticks": 19440,
          "time": 44.37597050000001,
          "velocity": 0.8503937007874016
        },
        {
          "duration": 0.052884562500004506,
          "durationTicks": 22,
          "midi": 79,
          "name": "G5",
          "ticks": 19464,
          "time": 44.43366275,
          "velocity": 0.8503937007874016
        },
        {
          "duration": 0.05769225000000233,
          "durationTicks": 24,
          "midi": 84,
          "name": "C6",
          "ticks": 19776,
          "time": 45.183662000000005,
          "velocity": 0.8503937007874016
        },
        {
          "duration": 0.057692249999995227,
          "durationTicks": 24,
          "midi": 82,
          "name": "A#5",
          "ticks": 19800,
          "time": 45.24135425000001,
          "velocity": 0.8503937007874016
        },
        {
          "duration": 0.05769225000000233,
          "durationTicks": 24,
          "midi": 80,
          "name": "G#5",
          "ticks": 19824,
          "time": 45.2990465,
          "velocity": 0.8503937007874016
        },
        {
          "duration": 0.0528845624999974,
          "durationTicks": 22,
          "midi": 79,
          "name": "G5",
          "ticks": 19848,
          "time": 45.356738750000005,
          "velocity": 0.8503937007874016
        },
        {
          "duration": 0.15384600000000148,
          "durationTicks": 64,
          "midi": 79,
          "name": "G5",
          "ticks": 20416,
          "time": 46.722122000000006,
          "velocity": 0.8503937007874016
        },
        {
          "duration": 0.15384600000000148,
          "durationTicks": 64,
          "midi": 83,
          "name": "B5",
          "ticks": 20480,
          "time": 46.87596800000001,
          "velocity": 0.8503937007874016
        },
        {
          "duration": 0.15384599999999438,
          "durationTicks": 64,
          "midi": 86,
          "name": "D6",
          "ticks": 20544,
          "time": 47.02981400000001,
          "velocity": 0.8503937007874016
        },
        {
          "duration": 0.15384600000000148,
          "durationTicks": 64,
          "midi": 83,
          "name": "B5",
          "ticks": 20608,
          "time": 47.18366,
          "velocity": 0.8503937007874016
        },
        {
          "duration": 0.14903831250000366,
          "durationTicks": 62,
          "midi": 86,
          "name": "D6",
          "ticks": 20672,
          "time": 47.337506000000005,
          "velocity": 0.8503937007874016
        },
        {
          "duration": 0.4430968229166652,
          "durationTicks": 190,
          "midi": 75,
          "name": "D#5",
          "ticks": 20928,
          "time": 47.939113000000006,
          "velocity": 0.8503937007874016
        },
        {
          "duration": 0.4430968229166652,
          "durationTicks": 190,
          "midi": 80,
          "name": "G#5",
          "ticks": 20928,
          "time": 47.939113000000006,
          "velocity": 0.8503937007874016
        },
        {
          "duration": 0.4430968229166652,
          "durationTicks": 190,
          "midi": 84,
          "name": "C6",
          "ticks": 20928,
          "time": 47.939113000000006,
          "velocity": 0.8503937007874016
        },
        {
          "duration": 0.4430968229166652,
          "durationTicks": 190,
          "midi": 87,
          "name": "D#6",
          "ticks": 20928,
          "time": 47.939113000000006,
          "velocity": 0.8503937007874016
        },
        {
          "duration": 0.4430968229166652,
          "durationTicks": 190,
          "midi": 77,
          "name": "F5",
          "ticks": 21312,
          "time": 48.834635000000006,
          "velocity": 0.8503937007874016
        },
        {
          "duration": 0.4430968229166652,
          "durationTicks": 190,
          "midi": 82,
          "name": "A#5",
          "ticks": 21312,
          "time": 48.834635000000006,
          "velocity": 0.8503937007874016
        },
        {
          "duration": 0.4430968229166652,
          "durationTicks": 190,
          "midi": 86,
          "name": "D6",
          "ticks": 21312,
          "time": 48.834635000000006,
          "velocity": 0.8503937007874016
        },
        {
          "duration": 0.4430968229166652,
          "durationTicks": 190,
          "midi": 89,
          "name": "F6",
          "ticks": 21312,
          "time": 48.834635000000006,
          "velocity": 0.8503937007874016
        },
        {
          "duration": 0.9022539999999992,
          "durationTicks": 384,
          "midi": 79,
          "name": "G5",
          "ticks": 21504,
          "time": 49.282396000000006,
          "velocity": 0.8503937007874016
        },
        {
          "duration": 0.9022539999999992,
          "durationTicks": 384,
          "midi": 82,
          "name": "A#5",
          "ticks": 21504,
          "time": 49.282396000000006,
          "velocity": 0.8503937007874016
        },
        {
          "duration": 0.9022539999999992,
          "durationTicks": 384,
          "midi": 87,
          "name": "D#6",
          "ticks": 21504,
          "time": 49.282396000000006,
          "velocity": 0.8503937007874016
        },
        {
          "duration": 0.9022539999999992,
          "durationTicks": 384,
          "midi": 91,
          "name": "G6",
          "ticks": 21504,
          "time": 49.282396000000006,
          "velocity": 0.8503937007874016
        },
        {
          "duration": 0.9022539999999992,
          "durationTicks": 384,
          "midi": 77,
          "name": "F5",
          "ticks": 21888,
          "time": 50.184650000000005,
          "velocity": 0.8503937007874016
        },
        {
          "duration": 0.9022539999999992,
          "durationTicks": 384,
          "midi": 82,
          "name": "A#5",
          "ticks": 21888,
          "time": 50.184650000000005,
          "velocity": 0.8503937007874016
        },
        {
          "duration": 0.9022539999999992,
          "durationTicks": 384,
          "midi": 86,
          "name": "D6",
          "ticks": 21888,
          "time": 50.184650000000005,
          "velocity": 0.8503937007874016
        },
        {
          "duration": 0.9022539999999992,
          "durationTicks": 384,
          "midi": 89,
          "name": "F6",
          "ticks": 21888,
          "time": 50.184650000000005,
          "velocity": 0.8503937007874016
        },
        {
          "duration": 0.9160299999999992,
          "durationTicks": 384,
          "midi": 79,
          "name": "G5",
          "ticks": 22272,
          "time": 51.086904000000004,
          "velocity": 0.8503937007874016
        },
        {
          "duration": 0.9160299999999992,
          "durationTicks": 384,
          "midi": 84,
          "name": "C6",
          "ticks": 22272,
          "time": 51.086904000000004,
          "velocity": 0.8503937007874016
        },
        {
          "duration": 0.9160299999999992,
          "durationTicks": 384,
          "midi": 87,
          "name": "D#6",
          "ticks": 22272,
          "time": 51.086904000000004,
          "velocity": 0.8503937007874016
        },
        {
          "duration": 0.9160299999999992,
          "durationTicks": 384,
          "midi": 91,
          "name": "G6",
          "ticks": 22272,
          "time": 51.086904000000004,
          "velocity": 0.8503937007874016
        },
        {
          "duration": 0.3053433333333331,
          "durationTicks": 128,
          "midi": 87,
          "name": "D#6",
          "ticks": 22656,
          "time": 52.002934,
          "velocity": 0.8503937007874016
        },
        {
          "duration": 0.3053433333333331,
          "durationTicks": 128,
          "midi": 91,
          "name": "G6",
          "ticks": 22656,
          "time": 52.002934,
          "velocity": 0.8503937007874016
        },
        {
          "duration": 0.1526716666666701,
          "durationTicks": 64,
          "midi": 84,
          "name": "C6",
          "ticks": 22784,
          "time": 52.308277333333336,
          "velocity": 0.8503937007874016
        },
        {
          "duration": 0.3053433333333331,
          "durationTicks": 128,
          "midi": 87,
          "name": "D#6",
          "ticks": 22848,
          "time": 52.46094900000001,
          "velocity": 0.8503937007874016
        },
        {
          "duration": 0.3053433333333331,
          "durationTicks": 128,
          "midi": 91,
          "name": "G6",
          "ticks": 22848,
          "time": 52.46094900000001,
          "velocity": 0.8503937007874016
        },
        {
          "duration": 0.152671666666663,
          "durationTicks": 64,
          "midi": 84,
          "name": "C6",
          "ticks": 22976,
          "time": 52.76629233333334,
          "velocity": 0.8503937007874016
        },
        {
          "duration": 0.3053433333333331,
          "durationTicks": 128,
          "midi": 79,
          "name": "G5",
          "ticks": 23040,
          "time": 52.918964,
          "velocity": 0.8503937007874016
        },
        {
          "duration": 0.3053433333333331,
          "durationTicks": 128,
          "midi": 86,
          "name": "D6",
          "ticks": 23040,
          "time": 52.918964,
          "velocity": 0.8503937007874016
        },
        {
          "duration": 0.3053433333333331,
          "durationTicks": 128,
          "midi": 91,
          "name": "G6",
          "ticks": 23040,
          "time": 52.918964,
          "velocity": 0.8503937007874016
        },
        {
          "duration": 0.1526716666666701,
          "durationTicks": 64,
          "midi": 79,
          "name": "G5",
          "ticks": 23168,
          "time": 53.224307333333336,
          "velocity": 0.8503937007874016
        },
        {
          "duration": 0.1526716666666701,
          "durationTicks": 64,
          "midi": 86,
          "name": "D6",
          "ticks": 23168,
          "time": 53.224307333333336,
          "velocity": 0.8503937007874016
        },
        {
          "duration": 0.45801500000000317,
          "durationTicks": 192,
          "midi": 91,
          "name": "G6",
          "ticks": 23168,
          "time": 53.224307333333336,
          "velocity": 0.8503937007874016
        },
        {
          "duration": 0.3053433333333331,
          "durationTicks": 128,
          "midi": 79,
          "name": "G5",
          "ticks": 23232,
          "time": 53.376979000000006,
          "velocity": 0.8503937007874016
        },
        {
          "duration": 0.3053433333333331,
          "durationTicks": 128,
          "midi": 86,
          "name": "D6",
          "ticks": 23232,
          "time": 53.376979000000006,
          "velocity": 0.8503937007874016
        },
        {
          "duration": 0.152671666666663,
          "durationTicks": 64,
          "midi": 79,
          "name": "G5",
          "ticks": 23360,
          "time": 53.68232233333334,
          "velocity": 0.8503937007874016
        },
        {
          "duration": 0.152671666666663,
          "durationTicks": 64,
          "midi": 86,
          "name": "D6",
          "ticks": 23360,
          "time": 53.68232233333334,
          "velocity": 0.8503937007874016
        },
        {
          "duration": 0.152671666666663,
          "durationTicks": 64,
          "midi": 91,
          "name": "G6",
          "ticks": 23360,
          "time": 53.68232233333334,
          "velocity": 0.8503937007874016
        },
        {
          "duration": 0.3053433333333331,
          "durationTicks": 128,
          "midi": 79,
          "name": "G5",
          "ticks": 23424,
          "time": 53.834994,
          "velocity": 0.8503937007874016
        },
        {
          "duration": 0.3053433333333331,
          "durationTicks": 128,
          "midi": 86,
          "name": "D6",
          "ticks": 23424,
          "time": 53.834994,
          "velocity": 0.8503937007874016
        },
        {
          "duration": 0.3053433333333331,
          "durationTicks": 128,
          "midi": 91,
          "name": "G6",
          "ticks": 23424,
          "time": 53.834994,
          "velocity": 0.8503937007874016
        },
        {
          "duration": 0.1526716666666701,
          "durationTicks": 64,
          "midi": 79,
          "name": "G5",
          "ticks": 23552,
          "time": 54.140337333333335,
          "velocity": 0.8503937007874016
        },
        {
          "duration": 0.1526716666666701,
          "durationTicks": 64,
          "midi": 86,
          "name": "D6",
          "ticks": 23552,
          "time": 54.140337333333335,
          "velocity": 0.8503937007874016
        },
        {
          "duration": 0.45801500000000317,
          "durationTicks": 192,
          "midi": 91,
          "name": "G6",
          "ticks": 23552,
          "time": 54.140337333333335,
          "velocity": 0.8503937007874016
        },
        {
          "duration": 0.3053433333333331,
          "durationTicks": 128,
          "midi": 79,
          "name": "G5",
          "ticks": 23616,
          "time": 54.293009000000005,
          "velocity": 0.8503937007874016
        },
        {
          "duration": 0.3053433333333331,
          "durationTicks": 128,
          "midi": 86,
          "name": "D6",
          "ticks": 23616,
          "time": 54.293009000000005,
          "velocity": 0.8503937007874016
        },
        {
          "duration": 0.152671666666663,
          "durationTicks": 64,
          "midi": 79,
          "name": "G5",
          "ticks": 23744,
          "time": 54.59835233333334,
          "velocity": 0.8503937007874016
        },
        {
          "duration": 0.152671666666663,
          "durationTicks": 64,
          "midi": 86,
          "name": "D6",
          "ticks": 23744,
          "time": 54.59835233333334,
          "velocity": 0.8503937007874016
        },
        {
          "duration": 0.152671666666663,
          "durationTicks": 64,
          "midi": 91,
          "name": "G6",
          "ticks": 23744,
          "time": 54.59835233333334,
          "velocity": 0.8503937007874016
        },
        {
          "duration": 0.30769200000000296,
          "durationTicks": 128,
          "midi": 84,
          "name": "C6",
          "ticks": 23808,
          "time": 54.751024,
          "velocity": 0.8503937007874016
        },
        {
          "duration": 0.15384599999999438,
          "durationTicks": 64,
          "midi": 79,
          "name": "G5",
          "ticks": 23936,
          "time": 55.058716000000004,
          "velocity": 0.8503937007874016
        },
        {
          "duration": 0.15384599999999438,
          "durationTicks": 64,
          "midi": 84,
          "name": "C6",
          "ticks": 23936,
          "time": 55.058716000000004,
          "velocity": 0.8503937007874016
        },
        {
          "duration": 0.15384599999999438,
          "durationTicks": 64,
          "midi": 91,
          "name": "G6",
          "ticks": 23936,
          "time": 55.058716000000004,
          "velocity": 0.8503937007874016
        },
        {
          "duration": 0.30769200000000296,
          "durationTicks": 128,
          "midi": 79,
          "name": "G5",
          "ticks": 24000,
          "time": 55.212562,
          "velocity": 0.8503937007874016
        },
        {
          "duration": 0.30769200000000296,
          "durationTicks": 128,
          "midi": 84,
          "name": "C6",
          "ticks": 24000,
          "time": 55.212562,
          "velocity": 0.8503937007874016
        },
        {
          "duration": 0.30769200000000296,
          "durationTicks": 128,
          "midi": 91,
          "name": "G6",
          "ticks": 24000,
          "time": 55.212562,
          "velocity": 0.8503937007874016
        },
        {
          "duration": 0.15384600000000148,
          "durationTicks": 64,
          "midi": 79,
          "name": "G5",
          "ticks": 24128,
          "time": 55.520254,
          "velocity": 0.8503937007874016
        },
        {
          "duration": 0.15384600000000148,
          "durationTicks": 64,
          "midi": 84,
          "name": "C6",
          "ticks": 24128,
          "time": 55.520254,
          "velocity": 0.8503937007874016
        },
        {
          "duration": 0.15384600000000148,
          "durationTicks": 64,
          "midi": 91,
          "name": "G6",
          "ticks": 24128,
          "time": 55.520254,
          "velocity": 0.8503937007874016
        },
        {
          "duration": 0.30769199999999586,
          "durationTicks": 128,
          "midi": 87,
          "name": "D#6",
          "ticks": 24192,
          "time": 55.6741,
          "velocity": 0.8503937007874016
        },
        {
          "duration": 0.15384600000000148,
          "durationTicks": 64,
          "midi": 79,
          "name": "G5",
          "ticks": 24320,
          "time": 55.981792,
          "velocity": 0.8503937007874016
        },
        {
          "duration": 0.15384600000000148,
          "durationTicks": 64,
          "midi": 84,
          "name": "C6",
          "ticks": 24320,
          "time": 55.981792,
          "velocity": 0.8503937007874016
        },
        {
          "duration": 0.15384600000000148,
          "durationTicks": 64,
          "midi": 91,
          "name": "G6",
          "ticks": 24320,
          "time": 55.981792,
          "velocity": 0.8503937007874016
        },
        {
          "duration": 0.30769200000000296,
          "durationTicks": 128,
          "midi": 79,
          "name": "G5",
          "ticks": 24384,
          "time": 56.135638,
          "velocity": 0.8503937007874016
        },
        {
          "duration": 0.30769200000000296,
          "durationTicks": 128,
          "midi": 84,
          "name": "C6",
          "ticks": 24384,
          "time": 56.135638,
          "velocity": 0.8503937007874016
        },
        {
          "duration": 0.30769200000000296,
          "durationTicks": 128,
          "midi": 91,
          "name": "G6",
          "ticks": 24384,
          "time": 56.135638,
          "velocity": 0.8503937007874016
        },
        {
          "duration": 0.15384599999999438,
          "durationTicks": 64,
          "midi": 79,
          "name": "G5",
          "ticks": 24512,
          "time": 56.44333,
          "velocity": 0.8503937007874016
        },
        {
          "duration": 0.15384599999999438,
          "durationTicks": 64,
          "midi": 84,
          "name": "C6",
          "ticks": 24512,
          "time": 56.44333,
          "velocity": 0.8503937007874016
        },
        {
          "duration": 0.15384599999999438,
          "durationTicks": 64,
          "midi": 91,
          "name": "G6",
          "ticks": 24512,
          "time": 56.44333,
          "velocity": 0.8503937007874016
        },
        {
          "duration": 0.30769200000000296,
          "durationTicks": 128,
          "midi": 79,
          "name": "G5",
          "ticks": 24576,
          "time": 56.597176,
          "velocity": 0.8503937007874016
        },
        {
          "duration": 0.15384600000000148,
          "durationTicks": 64,
          "midi": 79,
          "name": "G5",
          "ticks": 24704,
          "time": 56.904868,
          "velocity": 0.8503937007874016
        },
        {
          "duration": 0.15384600000000148,
          "durationTicks": 64,
          "midi": 84,
          "name": "C6",
          "ticks": 24704,
          "time": 56.904868,
          "velocity": 0.8503937007874016
        },
        {
          "duration": 0.15384600000000148,
          "durationTicks": 64,
          "midi": 91,
          "name": "G6",
          "ticks": 24704,
          "time": 56.904868,
          "velocity": 0.8503937007874016
        },
        {
          "duration": 0.30769199999999586,
          "durationTicks": 128,
          "midi": 79,
          "name": "G5",
          "ticks": 24768,
          "time": 57.058714,
          "velocity": 0.8503937007874016
        },
        {
          "duration": 0.30769199999999586,
          "durationTicks": 128,
          "midi": 84,
          "name": "C6",
          "ticks": 24768,
          "time": 57.058714,
          "velocity": 0.8503937007874016
        },
        {
          "duration": 0.30769199999999586,
          "durationTicks": 128,
          "midi": 91,
          "name": "G6",
          "ticks": 24768,
          "time": 57.058714,
          "velocity": 0.8503937007874016
        },
        {
          "duration": 0.15384600000000148,
          "durationTicks": 64,
          "midi": 79,
          "name": "G5",
          "ticks": 24896,
          "time": 57.366406,
          "velocity": 0.8503937007874016
        },
        {
          "duration": 0.15384600000000148,
          "durationTicks": 64,
          "midi": 84,
          "name": "C6",
          "ticks": 24896,
          "time": 57.366406,
          "velocity": 0.8503937007874016
        },
        {
          "duration": 0.15384600000000148,
          "durationTicks": 64,
          "midi": 91,
          "name": "G6",
          "ticks": 24896,
          "time": 57.366406,
          "velocity": 0.8503937007874016
        },
        {
          "duration": 0.30769200000000296,
          "durationTicks": 128,
          "midi": 87,
          "name": "D#6",
          "ticks": 24960,
          "time": 57.520252,
          "velocity": 0.8503937007874016
        },
        {
          "duration": 0.15384600000000148,
          "durationTicks": 64,
          "midi": 79,
          "name": "G5",
          "ticks": 25088,
          "time": 57.827944,
          "velocity": 0.8503937007874016
        },
        {
          "duration": 0.15384600000000148,
          "durationTicks": 64,
          "midi": 84,
          "name": "C6",
          "ticks": 25088,
          "time": 57.827944,
          "velocity": 0.8503937007874016
        },
        {
          "duration": 0.15384600000000148,
          "durationTicks": 64,
          "midi": 91,
          "name": "G6",
          "ticks": 25088,
          "time": 57.827944,
          "velocity": 0.8503937007874016
        },
        {
          "duration": 0.30769199999999586,
          "durationTicks": 128,
          "midi": 79,
          "name": "G5",
          "ticks": 25152,
          "time": 57.981790000000004,
          "velocity": 0.8503937007874016
        },
        {
          "duration": 0.30769199999999586,
          "durationTicks": 128,
          "midi": 84,
          "name": "C6",
          "ticks": 25152,
          "time": 57.981790000000004,
          "velocity": 0.8503937007874016
        },
        {
          "duration": 0.30769199999999586,
          "durationTicks": 128,
          "midi": 91,
          "name": "G6",
          "ticks": 25152,
          "time": 57.981790000000004,
          "velocity": 0.8503937007874016
        },
        {
          "duration": 0.15384600000000148,
          "durationTicks": 64,
          "midi": 79,
          "name": "G5",
          "ticks": 25280,
          "time": 58.289482,
          "velocity": 0.8503937007874016
        },
        {
          "duration": 0.15384600000000148,
          "durationTicks": 64,
          "midi": 84,
          "name": "C6",
          "ticks": 25280,
          "time": 58.289482,
          "velocity": 0.8503937007874016
        },
        {
          "duration": 0.15384600000000148,
          "durationTicks": 64,
          "midi": 91,
          "name": "G6",
          "ticks": 25280,
          "time": 58.289482,
          "velocity": 0.8503937007874016
        },
        {
          "duration": 1.730767499999999,
          "durationTicks": 720,
          "midi": 79,
          "name": "G5",
          "ticks": 25344,
          "time": 58.443328,
          "velocity": 0.8503937007874016
        },
        {
          "duration": 1.730767499999999,
          "durationTicks": 720,
          "midi": 84,
          "name": "C6",
          "ticks": 25344,
          "time": 58.443328,
          "velocity": 0.8503937007874016
        },
        {
          "duration": 1.730767499999999,
          "durationTicks": 720,
          "midi": 87,
          "name": "D#6",
          "ticks": 25344,
          "time": 58.443328,
          "velocity": 0.8503937007874016
        },
        {
          "duration": 0.2962959999999981,
          "durationTicks": 128,
          "midi": 79,
          "name": "G5",
          "ticks": 26880,
          "time": 62.28948,
          "velocity": 0.8503937007874016
        },
        {
          "duration": 0.2962959999999981,
          "durationTicks": 128,
          "midi": 84,
          "name": "C6",
          "ticks": 26880,
          "time": 62.28948,
          "velocity": 0.8503937007874016
        },
        {
          "duration": 0.14814799999999906,
          "durationTicks": 64,
          "midi": 79,
          "name": "G5",
          "ticks": 27008,
          "time": 62.585775999999996,
          "velocity": 0.8503937007874016
        },
        {
          "duration": 0.14814799999999906,
          "durationTicks": 64,
          "midi": 84,
          "name": "C6",
          "ticks": 27008,
          "time": 62.585775999999996,
          "velocity": 0.8503937007874016
        },
        {
          "duration": 0.14814799999999906,
          "durationTicks": 64,
          "midi": 91,
          "name": "G6",
          "ticks": 27008,
          "time": 62.585775999999996,
          "velocity": 0.8503937007874016
        },
        {
          "duration": 0.14814800000000616,
          "durationTicks": 64,
          "midi": 86,
          "name": "D6",
          "ticks": 27072,
          "time": 62.733923999999995,
          "velocity": 0.8503937007874016
        },
        {
          "duration": 0.14814800000000616,
          "durationTicks": 64,
          "midi": 89,
          "name": "F6",
          "ticks": 27072,
          "time": 62.733923999999995,
          "velocity": 0.8503937007874016
        },
        {
          "duration": 0.14814799999999906,
          "durationTicks": 64,
          "midi": 87,
          "name": "D#6",
          "ticks": 27136,
          "time": 62.882072,
          "velocity": 0.8503937007874016
        },
        {
          "duration": 0.14814799999999906,
          "durationTicks": 64,
          "midi": 84,
          "name": "C6",
          "ticks": 27200,
          "time": 63.03022,
          "velocity": 0.8503937007874016
        },
        {
          "duration": 0.2962959999999981,
          "durationTicks": 128,
          "midi": 87,
          "name": "D#6",
          "ticks": 27264,
          "time": 63.178368,
          "velocity": 0.8503937007874016
        },
        {
          "duration": 0.2962959999999981,
          "durationTicks": 128,
          "midi": 91,
          "name": "G6",
          "ticks": 27264,
          "time": 63.178368,
          "velocity": 0.8503937007874016
        },
        {
          "duration": 0.14814799999999906,
          "durationTicks": 64,
          "midi": 84,
          "name": "C6",
          "ticks": 27392,
          "time": 63.474664,
          "velocity": 0.8503937007874016
        },
        {
          "duration": 0.2962959999999981,
          "durationTicks": 128,
          "midi": 87,
          "name": "D#6",
          "ticks": 27456,
          "time": 63.622811999999996,
          "velocity": 0.8503937007874016
        },
        {
          "duration": 0.2962959999999981,
          "durationTicks": 128,
          "midi": 91,
          "name": "G6",
          "ticks": 27456,
          "time": 63.622811999999996,
          "velocity": 0.8503937007874016
        },
        {
          "duration": 0.14814800000000616,
          "durationTicks": 64,
          "midi": 84,
          "name": "C6",
          "ticks": 27584,
          "time": 63.919107999999994,
          "velocity": 0.8503937007874016
        },
        {
          "duration": 0.3030300000000068,
          "durationTicks": 128,
          "midi": 78,
          "name": "F#5",
          "ticks": 27648,
          "time": 64.067256,
          "velocity": 0.8503937007874016
        },
        {
          "duration": 0.3030300000000068,
          "durationTicks": 128,
          "midi": 81,
          "name": "A5",
          "ticks": 27648,
          "time": 64.067256,
          "velocity": 0.8503937007874016
        },
        {
          "duration": 0.15151499999998919,
          "durationTicks": 64,
          "midi": 86,
          "name": "D6",
          "ticks": 27776,
          "time": 64.37028600000001,
          "velocity": 0.8503937007874016
        },
        {
          "duration": 0.1515150000000034,
          "durationTicks": 64,
          "midi": 81,
          "name": "A5",
          "ticks": 27840,
          "time": 64.521801,
          "velocity": 0.8503937007874016
        },
        {
          "duration": 0.1515150000000034,
          "durationTicks": 64,
          "midi": 84,
          "name": "C6",
          "ticks": 27904,
          "time": 64.673316,
          "velocity": 0.8503937007874016
        },
        {
          "duration": 0.1515150000000034,
          "durationTicks": 64,
          "midi": 86,
          "name": "D6",
          "ticks": 27968,
          "time": 64.824831,
          "velocity": 0.8503937007874016
        },
        {
          "duration": 0.3030299999999926,
          "durationTicks": 128,
          "midi": 78,
          "name": "F#5",
          "ticks": 28032,
          "time": 64.976346,
          "velocity": 0.8503937007874016
        },
        {
          "duration": 0.3030299999999926,
          "durationTicks": 128,
          "midi": 81,
          "name": "A5",
          "ticks": 28032,
          "time": 64.976346,
          "velocity": 0.8503937007874016
        },
        {
          "duration": 0.3030299999999926,
          "durationTicks": 128,
          "midi": 86,
          "name": "D6",
          "ticks": 28032,
          "time": 64.976346,
          "velocity": 0.8503937007874016
        },
        {
          "duration": 0.1515150000000034,
          "durationTicks": 64,
          "midi": 78,
          "name": "F#5",
          "ticks": 28160,
          "time": 65.279376,
          "velocity": 0.8503937007874016
        },
        {
          "duration": 0.1515150000000034,
          "durationTicks": 64,
          "midi": 81,
          "name": "A5",
          "ticks": 28160,
          "time": 65.279376,
          "velocity": 0.8503937007874016
        },
        {
          "duration": 0.1515150000000034,
          "durationTicks": 64,
          "midi": 86,
          "name": "D6",
          "ticks": 28160,
          "time": 65.279376,
          "velocity": 0.8503937007874016
        },
        {
          "duration": 0.3030299999999926,
          "durationTicks": 128,
          "midi": 78,
          "name": "F#5",
          "ticks": 28224,
          "time": 65.430891,
          "velocity": 0.8503937007874016
        },
        {
          "duration": 0.3030299999999926,
          "durationTicks": 128,
          "midi": 81,
          "name": "A5",
          "ticks": 28224,
          "time": 65.430891,
          "velocity": 0.8503937007874016
        },
        {
          "duration": 0.3030299999999926,
          "durationTicks": 128,
          "midi": 86,
          "name": "D6",
          "ticks": 28224,
          "time": 65.430891,
          "velocity": 0.8503937007874016
        },
        {
          "duration": 0.1515150000000034,
          "durationTicks": 64,
          "midi": 78,
          "name": "F#5",
          "ticks": 28352,
          "time": 65.733921,
          "velocity": 0.8503937007874016
        },
        {
          "duration": 0.1515150000000034,
          "durationTicks": 64,
          "midi": 81,
          "name": "A5",
          "ticks": 28352,
          "time": 65.733921,
          "velocity": 0.8503937007874016
        },
        {
          "duration": 0.1515150000000034,
          "durationTicks": 64,
          "midi": 86,
          "name": "D6",
          "ticks": 28352,
          "time": 65.733921,
          "velocity": 0.8503937007874016
        },
        {
          "duration": 0.30769200000000296,
          "durationTicks": 128,
          "midi": 77,
          "name": "F5",
          "ticks": 28416,
          "time": 65.885436,
          "velocity": 0.8503937007874016
        },
        {
          "duration": 0.30769200000000296,
          "durationTicks": 128,
          "midi": 79,
          "name": "G5",
          "ticks": 28416,
          "time": 65.885436,
          "velocity": 0.8503937007874016
        },
        {
          "duration": 0.15384600000000148,
          "durationTicks": 64,
          "midi": 79,
          "name": "G5",
          "ticks": 28544,
          "time": 66.193128,
          "velocity": 0.8503937007874016
        },
        {
          "duration": 0.30769199999998875,
          "durationTicks": 128,
          "midi": 83,
          "name": "B5",
          "ticks": 28608,
          "time": 66.346974,
          "velocity": 0.8503937007874016
        },
        {
          "duration": 0.15384600000000148,
          "durationTicks": 64,
          "midi": 83,
          "name": "B5",
          "ticks": 28736,
          "time": 66.65466599999999,
          "velocity": 0.8503937007874016
        },
        {
          "duration": 0.15384600000000148,
          "durationTicks": 64,
          "midi": 84,
          "name": "C6",
          "ticks": 28736,
          "time": 66.65466599999999,
          "velocity": 0.8503937007874016
        },
        {
          "duration": 0.30769200000000296,
          "durationTicks": 128,
          "midi": 79,
          "name": "G5",
          "ticks": 28800,
          "time": 66.808512,
          "velocity": 0.8503937007874016
        },
        {
          "duration": 0.30769200000000296,
          "durationTicks": 128,
          "midi": 83,
          "name": "B5",
          "ticks": 28800,
          "time": 66.808512,
          "velocity": 0.8503937007874016
        },
        {
          "duration": 0.30769200000000296,
          "durationTicks": 128,
          "midi": 86,
          "name": "D6",
          "ticks": 28800,
          "time": 66.808512,
          "velocity": 0.8503937007874016
        },
        {
          "duration": 0.30769200000000296,
          "durationTicks": 128,
          "midi": 89,
          "name": "F6",
          "ticks": 28800,
          "time": 66.808512,
          "velocity": 0.8503937007874016
        },
        {
          "duration": 0.15384600000000148,
          "durationTicks": 64,
          "midi": 79,
          "name": "G5",
          "ticks": 28928,
          "time": 67.116204,
          "velocity": 0.8503937007874016
        },
        {
          "duration": 0.15384600000000148,
          "durationTicks": 64,
          "midi": 83,
          "name": "B5",
          "ticks": 28928,
          "time": 67.116204,
          "velocity": 0.8503937007874016
        },
        {
          "duration": 0.15384600000000148,
          "durationTicks": 64,
          "midi": 86,
          "name": "D6",
          "ticks": 28928,
          "time": 67.116204,
          "velocity": 0.8503937007874016
        },
        {
          "duration": 0.15384600000000148,
          "durationTicks": 64,
          "midi": 89,
          "name": "F6",
          "ticks": 28928,
          "time": 67.116204,
          "velocity": 0.8503937007874016
        },
        {
          "duration": 0.30769200000000296,
          "durationTicks": 128,
          "midi": 79,
          "name": "G5",
          "ticks": 28992,
          "time": 67.27005,
          "velocity": 0.8503937007874016
        },
        {
          "duration": 0.30769200000000296,
          "durationTicks": 128,
          "midi": 83,
          "name": "B5",
          "ticks": 28992,
          "time": 67.27005,
          "velocity": 0.8503937007874016
        },
        {
          "duration": 0.30769200000000296,
          "durationTicks": 128,
          "midi": 86,
          "name": "D6",
          "ticks": 28992,
          "time": 67.27005,
          "velocity": 0.8503937007874016
        },
        {
          "duration": 0.30769200000000296,
          "durationTicks": 128,
          "midi": 89,
          "name": "F6",
          "ticks": 28992,
          "time": 67.27005,
          "velocity": 0.8503937007874016
        },
        {
          "duration": 0.15384600000000148,
          "durationTicks": 64,
          "midi": 79,
          "name": "G5",
          "ticks": 29120,
          "time": 67.577742,
          "velocity": 0.8503937007874016
        },
        {
          "duration": 0.15384600000000148,
          "durationTicks": 64,
          "midi": 83,
          "name": "B5",
          "ticks": 29120,
          "time": 67.577742,
          "velocity": 0.8503937007874016
        },
        {
          "duration": 0.15384600000000148,
          "durationTicks": 64,
          "midi": 86,
          "name": "D6",
          "ticks": 29120,
          "time": 67.577742,
          "velocity": 0.8503937007874016
        },
        {
          "duration": 0.15384600000000148,
          "durationTicks": 64,
          "midi": 89,
          "name": "F6",
          "ticks": 29120,
          "time": 67.577742,
          "velocity": 0.8503937007874016
        },
        {
          "duration": 0.3030300000000068,
          "durationTicks": 128,
          "midi": 79,
          "name": "G5",
          "ticks": 29184,
          "time": 67.731588,
          "velocity": 0.8503937007874016
        },
        {
          "duration": 0.3030300000000068,
          "durationTicks": 128,
          "midi": 84,
          "name": "C6",
          "ticks": 29184,
          "time": 67.731588,
          "velocity": 0.8503937007874016
        },
        {
          "duration": 0.15151499999998919,
          "durationTicks": 64,
          "midi": 79,
          "name": "G5",
          "ticks": 29312,
          "time": 68.03461800000001,
          "velocity": 0.8503937007874016
        },
        {
          "duration": 0.15151499999998919,
          "durationTicks": 64,
          "midi": 84,
          "name": "C6",
          "ticks": 29312,
          "time": 68.03461800000001,
          "velocity": 0.8503937007874016
        },
        {
          "duration": 0.15151499999998919,
          "durationTicks": 64,
          "midi": 91,
          "name": "G6",
          "ticks": 29312,
          "time": 68.03461800000001,
          "velocity": 0.8503937007874016
        },
        {
          "duration": 0.1515150000000034,
          "durationTicks": 64,
          "midi": 86,
          "name": "D6",
          "ticks": 29376,
          "time": 68.186133,
          "velocity": 0.8503937007874016
        },
        {
          "duration": 0.1515150000000034,
          "durationTicks": 64,
          "midi": 89,
          "name": "F6",
          "ticks": 29376,
          "time": 68.186133,
          "velocity": 0.8503937007874016
        },
        {
          "duration": 0.1515150000000034,
          "durationTicks": 64,
          "midi": 87,
          "name": "D#6",
          "ticks": 29440,
          "time": 68.337648,
          "velocity": 0.8503937007874016
        },
        {
          "duration": 0.1515150000000034,
          "durationTicks": 64,
          "midi": 84,
          "name": "C6",
          "ticks": 29504,
          "time": 68.489163,
          "velocity": 0.8503937007874016
        },
        {
          "duration": 0.3030299999999926,
          "durationTicks": 128,
          "midi": 87,
          "name": "D#6",
          "ticks": 29568,
          "time": 68.64067800000001,
          "velocity": 0.8503937007874016
        },
        {
          "duration": 0.3030299999999926,
          "durationTicks": 128,
          "midi": 91,
          "name": "G6",
          "ticks": 29568,
          "time": 68.64067800000001,
          "velocity": 0.8503937007874016
        },
        {
          "duration": 0.1515150000000034,
          "durationTicks": 64,
          "midi": 84,
          "name": "C6",
          "ticks": 29696,
          "time": 68.943708,
          "velocity": 0.8503937007874016
        },
        {
          "duration": 0.3030299999999926,
          "durationTicks": 128,
          "midi": 87,
          "name": "D#6",
          "ticks": 29760,
          "time": 69.095223,
          "velocity": 0.8503937007874016
        },
        {
          "duration": 0.3030299999999926,
          "durationTicks": 128,
          "midi": 91,
          "name": "G6",
          "ticks": 29760,
          "time": 69.095223,
          "velocity": 0.8503937007874016
        },
        {
          "duration": 0.1515150000000034,
          "durationTicks": 64,
          "midi": 84,
          "name": "C6",
          "ticks": 29888,
          "time": 69.398253,
          "velocity": 0.8503937007874016
        },
        {
          "duration": 0.2962959999999981,
          "durationTicks": 128,
          "midi": 80,
          "name": "G#5",
          "ticks": 29952,
          "time": 69.549768,
          "velocity": 0.8503937007874016
        },
        {
          "duration": 0.2962959999999981,
          "durationTicks": 128,
          "midi": 84,
          "name": "C6",
          "ticks": 29952,
          "time": 69.549768,
          "velocity": 0.8503937007874016
        },
        {
          "duration": 0.14814800000000616,
          "durationTicks": 64,
          "midi": 80,
          "name": "G#5",
          "ticks": 30080,
          "time": 69.846064,
          "velocity": 0.8503937007874016
        },
        {
          "duration": 0.14814800000000616,
          "durationTicks": 64,
          "midi": 84,
          "name": "C6",
          "ticks": 30080,
          "time": 69.846064,
          "velocity": 0.8503937007874016
        },
        {
          "duration": 0.14814800000000616,
          "durationTicks": 64,
          "midi": 86,
          "name": "D6",
          "ticks": 30080,
          "time": 69.846064,
          "velocity": 0.8503937007874016
        },
        {
          "duration": 0.2962959999999981,
          "durationTicks": 128,
          "midi": 80,
          "name": "G#5",
          "ticks": 30144,
          "time": 69.994212,
          "velocity": 0.8503937007874016
        },
        {
          "duration": 0.2962959999999981,
          "durationTicks": 128,
          "midi": 84,
          "name": "C6",
          "ticks": 30144,
          "time": 69.994212,
          "velocity": 0.8503937007874016
        },
        {
          "duration": 0.2962959999999981,
          "durationTicks": 128,
          "midi": 87,
          "name": "D#6",
          "ticks": 30144,
          "time": 69.994212,
          "velocity": 0.8503937007874016
        },
        {
          "duration": 0.14814799999999195,
          "durationTicks": 64,
          "midi": 80,
          "name": "G#5",
          "ticks": 30272,
          "time": 70.290508,
          "velocity": 0.8503937007874016
        },
        {
          "duration": 0.14814799999999195,
          "durationTicks": 64,
          "midi": 84,
          "name": "C6",
          "ticks": 30272,
          "time": 70.290508,
          "velocity": 0.8503937007874016
        },
        {
          "duration": 0.14814799999999195,
          "durationTicks": 64,
          "midi": 87,
          "name": "D#6",
          "ticks": 30272,
          "time": 70.290508,
          "velocity": 0.8503937007874016
        },
        {
          "duration": 0.2962959999999981,
          "durationTicks": 128,
          "midi": 80,
          "name": "G#5",
          "ticks": 30528,
          "time": 70.8831,
          "velocity": 0.8503937007874016
        },
        {
          "duration": 0.2962959999999981,
          "durationTicks": 128,
          "midi": 84,
          "name": "C6",
          "ticks": 30528,
          "time": 70.8831,
          "velocity": 0.8503937007874016
        },
        {
          "duration": 0.2962959999999981,
          "durationTicks": 128,
          "midi": 87,
          "name": "D#6",
          "ticks": 30528,
          "time": 70.8831,
          "velocity": 0.8503937007874016
        },
        {
          "duration": 0.14814800000000616,
          "durationTicks": 64,
          "midi": 80,
          "name": "G#5",
          "ticks": 30656,
          "time": 71.179396,
          "velocity": 0.8503937007874016
        },
        {
          "duration": 0.14814800000000616,
          "durationTicks": 64,
          "midi": 84,
          "name": "C6",
          "ticks": 30656,
          "time": 71.179396,
          "velocity": 0.8503937007874016
        },
        {
          "duration": 0.14814800000000616,
          "durationTicks": 64,
          "midi": 86,
          "name": "D6",
          "ticks": 30656,
          "time": 71.179396,
          "velocity": 0.8503937007874016
        },
        {
          "duration": 0.29197066666667126,
          "durationTicks": 128,
          "midi": 84,
          "name": "C6",
          "ticks": 30720,
          "time": 71.327544,
          "velocity": 0.8503937007874016
        },
        {
          "duration": 0.29197066666667126,
          "durationTicks": 128,
          "midi": 87,
          "name": "D#6",
          "ticks": 30720,
          "time": 71.327544,
          "velocity": 0.8503937007874016
        },
        {
          "duration": 0.14598533333332853,
          "durationTicks": 64,
          "midi": 84,
          "name": "C6",
          "ticks": 30848,
          "time": 71.61951466666667,
          "velocity": 0.8503937007874016
        },
        {
          "duration": 0.14598533333332853,
          "durationTicks": 64,
          "midi": 87,
          "name": "D#6",
          "ticks": 30848,
          "time": 71.61951466666667,
          "velocity": 0.8503937007874016
        },
        {
          "duration": 0.14598533333332853,
          "durationTicks": 64,
          "midi": 89,
          "name": "F6",
          "ticks": 30848,
          "time": 71.61951466666667,
          "velocity": 0.8503937007874016
        },
        {
          "duration": 0.29197066666667126,
          "durationTicks": 128,
          "midi": 84,
          "name": "C6",
          "ticks": 30912,
          "time": 71.7655,
          "velocity": 0.8503937007874016
        },
        {
          "duration": 0.29197066666667126,
          "durationTicks": 128,
          "midi": 87,
          "name": "D#6",
          "ticks": 30912,
          "time": 71.7655,
          "velocity": 0.8503937007874016
        },
        {
          "duration": 0.29197066666667126,
          "durationTicks": 128,
          "midi": 91,
          "name": "G6",
          "ticks": 30912,
          "time": 71.7655,
          "velocity": 0.8503937007874016
        },
        {
          "duration": 0.3649633333333355,
          "durationTicks": 160,
          "midi": 84,
          "name": "C6",
          "ticks": 31040,
          "time": 72.05747066666667,
          "velocity": 0.8503937007874016
        },
        {
          "duration": 0.3649633333333355,
          "durationTicks": 160,
          "midi": 87,
          "name": "D#6",
          "ticks": 31040,
          "time": 72.05747066666667,
          "velocity": 0.8503937007874016
        },
        {
          "duration": 0.3649633333333355,
          "durationTicks": 160,
          "midi": 91,
          "name": "G6",
          "ticks": 31040,
          "time": 72.05747066666667,
          "velocity": 0.8503937007874016
        },
        {
          "duration": 0.29197066666667126,
          "durationTicks": 128,
          "midi": 84,
          "name": "C6",
          "ticks": 31296,
          "time": 72.641412,
          "velocity": 0.8503937007874016
        },
        {
          "duration": 0.29197066666667126,
          "durationTicks": 128,
          "midi": 87,
          "name": "D#6",
          "ticks": 31296,
          "time": 72.641412,
          "velocity": 0.8503937007874016
        },
        {
          "duration": 0.14598533333332853,
          "durationTicks": 64,
          "midi": 84,
          "name": "C6",
          "ticks": 31424,
          "time": 72.93338266666667,
          "velocity": 0.8503937007874016
        },
        {
          "duration": 0.14598533333332853,
          "durationTicks": 64,
          "midi": 87,
          "name": "D#6",
          "ticks": 31424,
          "time": 72.93338266666667,
          "velocity": 0.8503937007874016
        },
        {
          "duration": 0.14598533333332853,
          "durationTicks": 64,
          "midi": 89,
          "name": "F6",
          "ticks": 31424,
          "time": 72.93338266666667,
          "velocity": 0.8503937007874016
        },
        {
          "duration": 0.29197066666667126,
          "durationTicks": 128,
          "midi": 84,
          "name": "C6",
          "ticks": 31488,
          "time": 73.079368,
          "velocity": 0.8503937007874016
        },
        {
          "duration": 0.29197066666667126,
          "durationTicks": 128,
          "midi": 89,
          "name": "F6",
          "ticks": 31488,
          "time": 73.079368,
          "velocity": 0.8503937007874016
        },
        {
          "duration": 0.29197066666667126,
          "durationTicks": 128,
          "midi": 92,
          "name": "G#6",
          "ticks": 31488,
          "time": 73.079368,
          "velocity": 0.8503937007874016
        },
        {
          "duration": 0.14598533333332853,
          "durationTicks": 64,
          "midi": 80,
          "name": "G#5",
          "ticks": 31616,
          "time": 73.37133866666667,
          "velocity": 0.8503937007874016
        },
        {
          "duration": 0.14598533333332853,
          "durationTicks": 64,
          "midi": 84,
          "name": "C6",
          "ticks": 31616,
          "time": 73.37133866666667,
          "velocity": 0.8503937007874016
        },
        {
          "duration": 0.14598533333332853,
          "durationTicks": 64,
          "midi": 89,
          "name": "F6",
          "ticks": 31616,
          "time": 73.37133866666667,
          "velocity": 0.8503937007874016
        },
        {
          "duration": 0.14598533333332853,
          "durationTicks": 64,
          "midi": 84,
          "name": "C6",
          "ticks": 31680,
          "time": 73.517324,
          "velocity": 0.8503937007874016
        },
        {
          "duration": 0.14598533333332853,
          "durationTicks": 64,
          "midi": 89,
          "name": "F6",
          "ticks": 31680,
          "time": 73.517324,
          "velocity": 0.8503937007874016
        },
        {
          "duration": 0.14598533333334274,
          "durationTicks": 64,
          "midi": 84,
          "name": "C6",
          "ticks": 31744,
          "time": 73.66330933333333,
          "velocity": 0.8503937007874016
        },
        {
          "duration": 0.14598533333334274,
          "durationTicks": 64,
          "midi": 89,
          "name": "F6",
          "ticks": 31744,
          "time": 73.66330933333333,
          "velocity": 0.8503937007874016
        },
        {
          "duration": 0.14598533333334274,
          "durationTicks": 64,
          "midi": 91,
          "name": "G6",
          "ticks": 31744,
          "time": 73.66330933333333,
          "velocity": 0.8503937007874016
        },
        {
          "duration": 0.4379559999999998,
          "durationTicks": 192,
          "midi": 83,
          "name": "B5",
          "ticks": 31808,
          "time": 73.80929466666667,
          "velocity": 0.8503937007874016
        },
        {
          "duration": 0.4379559999999998,
          "durationTicks": 192,
          "midi": 86,
          "name": "D6",
          "ticks": 31808,
          "time": 73.80929466666667,
          "velocity": 0.8503937007874016
        },
        {
          "duration": 0.4379559999999998,
          "durationTicks": 192,
          "midi": 89,
          "name": "F6",
          "ticks": 31808,
          "time": 73.80929466666667,
          "velocity": 0.8503937007874016
        },
        {
          "duration": 0.4379559999999998,
          "durationTicks": 192,
          "midi": 95,
          "name": "B6",
          "ticks": 31808,
          "time": 73.80929466666667,
          "velocity": 0.8503937007874016
        },
        {
          "duration": 0.14598533333332853,
          "durationTicks": 64,
          "midi": 86,
          "name": "D6",
          "ticks": 32000,
          "time": 74.24725066666667,
          "velocity": 0.8503937007874016
        },
        {
          "duration": 0.14598533333332853,
          "durationTicks": 64,
          "midi": 89,
          "name": "F6",
          "ticks": 32000,
          "time": 74.24725066666667,
          "velocity": 0.8503937007874016
        },
        {
          "duration": 0.14598533333332853,
          "durationTicks": 64,
          "midi": 92,
          "name": "G#6",
          "ticks": 32000,
          "time": 74.24725066666667,
          "velocity": 0.8503937007874016
        },
        {
          "duration": 0.14598533333332853,
          "durationTicks": 64,
          "midi": 83,
          "name": "B5",
          "ticks": 32064,
          "time": 74.393236,
          "velocity": 0.8503937007874016
        },
        {
          "duration": 0.14598533333332853,
          "durationTicks": 64,
          "midi": 86,
          "name": "D6",
          "ticks": 32064,
          "time": 74.393236,
          "velocity": 0.8503937007874016
        },
        {
          "duration": 0.14598533333332853,
          "durationTicks": 64,
          "midi": 89,
          "name": "F6",
          "ticks": 32064,
          "time": 74.393236,
          "velocity": 0.8503937007874016
        },
        {
          "duration": 0.14598533333332853,
          "durationTicks": 64,
          "midi": 95,
          "name": "B6",
          "ticks": 32064,
          "time": 74.393236,
          "velocity": 0.8503937007874016
        },
        {
          "duration": 0.14598533333334274,
          "durationTicks": 64,
          "midi": 86,
          "name": "D6",
          "ticks": 32128,
          "time": 74.53922133333333,
          "velocity": 0.8503937007874016
        },
        {
          "duration": 0.14598533333334274,
          "durationTicks": 64,
          "midi": 89,
          "name": "F6",
          "ticks": 32128,
          "time": 74.53922133333333,
          "velocity": 0.8503937007874016
        },
        {
          "duration": 0.14598533333334274,
          "durationTicks": 64,
          "midi": 91,
          "name": "G6",
          "ticks": 32128,
          "time": 74.53922133333333,
          "velocity": 0.8503937007874016
        },
        {
          "duration": 0.14598533333334274,
          "durationTicks": 64,
          "midi": 98,
          "name": "D7",
          "ticks": 32128,
          "time": 74.53922133333333,
          "velocity": 0.8503937007874016
        },
        {
          "duration": 0.14598533333332853,
          "durationTicks": 64,
          "midi": 79,
          "name": "G5",
          "ticks": 32192,
          "time": 74.68520666666667,
          "velocity": 0.8503937007874016
        },
        {
          "duration": 0.14598533333332853,
          "durationTicks": 64,
          "midi": 83,
          "name": "B5",
          "ticks": 32192,
          "time": 74.68520666666667,
          "velocity": 0.8503937007874016
        },
        {
          "duration": 0.14598533333332853,
          "durationTicks": 64,
          "midi": 86,
          "name": "D6",
          "ticks": 32192,
          "time": 74.68520666666667,
          "velocity": 0.8503937007874016
        },
        {
          "duration": 0.14598533333332853,
          "durationTicks": 64,
          "midi": 91,
          "name": "G6",
          "ticks": 32192,
          "time": 74.68520666666667,
          "velocity": 0.8503937007874016
        },
        {
          "duration": 0.8108100000000036,
          "durationTicks": 384,
          "midi": 84,
          "name": "C6",
          "ticks": 32256,
          "time": 74.831192,
          "velocity": 0.8503937007874016
        },
        {
          "duration": 0.8108100000000036,
          "durationTicks": 384,
          "midi": 87,
          "name": "D#6",
          "ticks": 32256,
          "time": 74.831192,
          "velocity": 0.8503937007874016
        },
        {
          "duration": 0.8108100000000036,
          "durationTicks": 384,
          "midi": 91,
          "name": "G6",
          "ticks": 32256,
          "time": 74.831192,
          "velocity": 0.8503937007874016
        },
        {
          "duration": 0.8108100000000036,
          "durationTicks": 384,
          "midi": 96,
          "name": "C7",
          "ticks": 32256,
          "time": 74.831192,
          "velocity": 0.8503937007874016
        },
        {
          "duration": 0.05067562499999667,
          "durationTicks": 24,
          "midi": 96,
          "name": "C7",
          "ticks": 32640,
          "time": 75.642002,
          "velocity": 0.8503937007874016
        },
        {
          "duration": 0.05067562499999667,
          "durationTicks": 24,
          "midi": 94,
          "name": "A#6",
          "ticks": 32664,
          "time": 75.692677625,
          "velocity": 0.8503937007874016
        },
        {
          "duration": 0.05067562499999667,
          "durationTicks": 24,
          "midi": 92,
          "name": "G#6",
          "ticks": 32688,
          "time": 75.74335325,
          "velocity": 0.8503937007874016
        },
        {
          "duration": 0.6587831249999994,
          "durationTicks": 312,
          "midi": 91,
          "name": "G6",
          "ticks": 32712,
          "time": 75.794028875,
          "velocity": 0.8503937007874016
        },
        {
          "duration": 0.053571375000004195,
          "durationTicks": 24,
          "midi": 91,
          "name": "G6",
          "ticks": 33024,
          "time": 76.452812,
          "velocity": 0.8503937007874016
        },
        {
          "duration": 0.053571374999989985,
          "durationTicks": 24,
          "midi": 89,
          "name": "F6",
          "ticks": 33048,
          "time": 76.506383375,
          "velocity": 0.8503937007874016
        },
        {
          "duration": 0.053571375000004195,
          "durationTicks": 24,
          "midi": 87,
          "name": "D#6",
          "ticks": 33072,
          "time": 76.55995474999999,
          "velocity": 0.8503937007874016
        },
        {
          "duration": 0.053571375000004195,
          "durationTicks": 24,
          "midi": 86,
          "name": "D6",
          "ticks": 33096,
          "time": 76.61352612499999,
          "velocity": 0.8503937007874016
        },
        {
          "duration": 0.5714279999999974,
          "durationTicks": 256,
          "midi": 84,
          "name": "C6",
          "ticks": 33120,
          "time": 76.6670975,
          "velocity": 0.8503937007874016
        },
        {
          "duration": 0.03409087500000396,
          "durationTicks": 12,
          "midi": 79,
          "name": "G5",
          "ticks": 34176,
          "time": 79.10099799999999,
          "velocity": 0.8503937007874016
        },
        {
          "duration": 0.03409087499998975,
          "durationTicks": 12,
          "midi": 80,
          "name": "G#5",
          "ticks": 34188,
          "time": 79.135088875,
          "velocity": 0.8503937007874016
        },
        {
          "duration": 0.03409087500000396,
          "durationTicks": 12,
          "midi": 82,
          "name": "A#5",
          "ticks": 34200,
          "time": 79.16917974999998,
          "velocity": 0.8503937007874016
        },
        {
          "duration": 0.03409087500000396,
          "durationTicks": 12,
          "midi": 84,
          "name": "C6",
          "ticks": 34212,
          "time": 79.20327062499999,
          "velocity": 0.8503937007874016
        },
        {
          "duration": 0.03409087500000396,
          "durationTicks": 12,
          "midi": 86,
          "name": "D6",
          "ticks": 34224,
          "time": 79.23736149999999,
          "velocity": 0.8503937007874016
        },
        {
          "duration": 0.03409087499998975,
          "durationTicks": 12,
          "midi": 87,
          "name": "D#6",
          "ticks": 34236,
          "time": 79.271452375,
          "velocity": 0.8503937007874016
        },
        {
          "duration": 0.03409087500000396,
          "durationTicks": 12,
          "midi": 89,
          "name": "F6",
          "ticks": 34248,
          "time": 79.30554324999999,
          "velocity": 0.8503937007874016
        },
        {
          "duration": 0.3011360625000066,
          "durationTicks": 106,
          "midi": 91,
          "name": "G6",
          "ticks": 34260,
          "time": 79.33963412499999,
          "velocity": 0.8503937007874016
        },
        {
          "duration": 0.03409087500000396,
          "durationTicks": 12,
          "midi": 91,
          "name": "G6",
          "ticks": 34560,
          "time": 80.19190599999999,
          "velocity": 0.8503937007874016
        },
        {
          "duration": 0.03409087500000396,
          "durationTicks": 12,
          "midi": 92,
          "name": "G#6",
          "ticks": 34572,
          "time": 80.22599687499999,
          "velocity": 0.8503937007874016
        },
        {
          "duration": 0.03409087499998975,
          "durationTicks": 12,
          "midi": 94,
          "name": "A#6",
          "ticks": 34584,
          "time": 80.26008775,
          "velocity": 0.8503937007874016
        },
        {
          "duration": 0.48863587499999994,
          "durationTicks": 172,
          "midi": 96,
          "name": "C7",
          "ticks": 34596,
          "time": 80.29417862499999,
          "velocity": 0.8503937007874016
        }
      ]
    },
    {
      "channel": 0,
      "controlChanges": {
        "7": [
          {
            "number": 7,
            "ticks": 0,
            "time": 0,
            "value": 1
          }
        ],
        "10": [
          {
            "number": 10,
            "ticks": 0,
            "time": 0,
            "value": 0.5039370078740157
          }
        ]
      },
      "pitchBends": [],
      "instrument": {
        "family": "piano",
        "name": "acoustic grand piano",
        "number": 0
      },
      "name": "Staff-1",
      "notes": []
    },
    {
      "channel": 0,
      "controlChanges": {
        "64": [
          {
            "number": 64,
            "ticks": 16896,
            "time": 38.052076,
            "value": 1
          },
          {
            "number": 64,
            "ticks": 17664,
            "time": 40.019288,
            "value": 0
          }
        ]
      },
      "pitchBends": [],
      "instrument": {
        "family": "piano",
        "name": "bright acoustic piano",
        "number": 1
      },
      "name": "",
      "notes": [
        {
          "duration": 0.8163260000000001,
          "durationTicks": 384,
          "midi": 60,
          "name": "C4",
          "ticks": 6144,
          "time": 12.97296,
          "velocity": 0.8503937007874016
        },
        {
          "duration": 0.05102037500000023,
          "durationTicks": 24,
          "midi": 60,
          "name": "C4",
          "ticks": 6528,
          "time": 13.789286,
          "velocity": 0.8503937007874016
        },
        {
          "duration": 0.05102037500000023,
          "durationTicks": 24,
          "midi": 58,
          "name": "A#3",
          "ticks": 6552,
          "time": 13.840306375,
          "velocity": 0.8503937007874016
        },
        {
          "duration": 0.05102037500000023,
          "durationTicks": 24,
          "midi": 56,
          "name": "G#3",
          "ticks": 6576,
          "time": 13.891326750000001,
          "velocity": 0.8503937007874016
        },
        {
          "duration": 0.6122444999999992,
          "durationTicks": 288,
          "midi": 55,
          "name": "G3",
          "ticks": 6600,
          "time": 13.942347125000001,
          "velocity": 0.8503937007874016
        },
        {
          "duration": 0.05102037500000023,
          "durationTicks": 24,
          "midi": 55,
          "name": "G3",
          "ticks": 6912,
          "time": 14.605612,
          "velocity": 0.8503937007874016
        },
        {
          "duration": 0.05102037500000023,
          "durationTicks": 24,
          "midi": 53,
          "name": "F3",
          "ticks": 6936,
          "time": 14.656632375000001,
          "velocity": 0.8503937007874016
        },
        {
          "duration": 0.05102037500000023,
          "durationTicks": 24,
          "midi": 51,
          "name": "D#3",
          "ticks": 6960,
          "time": 14.707652750000001,
          "velocity": 0.8503937007874016
        },
        {
          "duration": 0.05102037499999845,
          "durationTicks": 24,
          "midi": 50,
          "name": "D3",
          "ticks": 6984,
          "time": 14.758673125000001,
          "velocity": 0.8503937007874016
        },
        {
          "duration": 0.544217333333334,
          "durationTicks": 256,
          "midi": 48,
          "name": "C3",
          "ticks": 7008,
          "time": 14.8096935,
          "velocity": 0.8503937007874016
        },
        {
          "duration": 0.8163260000000001,
          "durationTicks": 384,
          "midi": 72,
          "name": "C5",
          "ticks": 8448,
          "time": 17.870916,
          "velocity": 0.8503937007874016
        },
        {
          "duration": 0.05102037500000023,
          "durationTicks": 24,
          "midi": 72,
          "name": "C5",
          "ticks": 8832,
          "time": 18.687242,
          "velocity": 0.8503937007874016
        },
        {
          "duration": 0.05102037500000023,
          "durationTicks": 24,
          "midi": 70,
          "name": "A#4",
          "ticks": 8856,
          "time": 18.738262375,
          "velocity": 0.8503937007874016
        },
        {
          "duration": 0.051020374999996676,
          "durationTicks": 24,
          "midi": 68,
          "name": "G#4",
          "ticks": 8880,
          "time": 18.78928275,
          "velocity": 0.8503937007874016
        },
        {
          "duration": 0.6122445000000027,
          "durationTicks": 288,
          "midi": 67,
          "name": "G4",
          "ticks": 8904,
          "time": 18.840303125,
          "velocity": 0.8503937007874016
        },
        {
          "duration": 0.05102037500000023,
          "durationTicks": 24,
          "midi": 67,
          "name": "G4",
          "ticks": 9216,
          "time": 19.503568,
          "velocity": 0.8503937007874016
        },
        {
          "duration": 0.05102037500000023,
          "durationTicks": 24,
          "midi": 65,
          "name": "F4",
          "ticks": 9240,
          "time": 19.554588375,
          "velocity": 0.8503937007874016
        },
        {
          "duration": 0.05102037500000023,
          "durationTicks": 24,
          "midi": 63,
          "name": "D#4",
          "ticks": 9264,
          "time": 19.605608750000002,
          "velocity": 0.8503937007874016
        },
        {
          "duration": 0.05102037500000023,
          "durationTicks": 24,
          "midi": 62,
          "name": "D4",
          "ticks": 9288,
          "time": 19.656629125000002,
          "velocity": 0.8503937007874016
        },
        {
          "duration": 0.5442173333333322,
          "durationTicks": 256,
          "midi": 60,
          "name": "C4",
          "ticks": 9312,
          "time": 19.707649500000002,
          "velocity": 0.8503937007874016
        },
        {
          "duration": 0.3076919999999994,
          "durationTicks": 128,
          "midi": 67,
          "name": "G4",
          "ticks": 10752,
          "time": 23.63622,
          "velocity": 0.8503937007874016
        },
        {
          "duration": 0.15384600000000148,
          "durationTicks": 64,
          "midi": 68,
          "name": "G#4",
          "ticks": 10880,
          "time": 23.943912,
          "velocity": 0.8503937007874016
        },
        {
          "duration": 0.3076919999999994,
          "durationTicks": 128,
          "midi": 67,
          "name": "G4",
          "ticks": 10944,
          "time": 24.097758000000002,
          "velocity": 0.8503937007874016
        },
        {
          "duration": 0.15384599999999793,
          "durationTicks": 64,
          "midi": 72,
          "name": "C5",
          "ticks": 11072,
          "time": 24.405450000000002,
          "velocity": 0.8503937007874016
        },
        {
          "duration": 0.15384599999999793,
          "durationTicks": 64,
          "midi": 75,
          "name": "D#5",
          "ticks": 11072,
          "time": 24.405450000000002,
          "velocity": 0.8503937007874016
        },
        {
          "duration": 0.15384600000000148,
          "durationTicks": 64,
          "midi": 67,
          "name": "G4",
          "ticks": 11456,
          "time": 25.328526,
          "velocity": 0.8503937007874016
        },
        {
          "duration": 0.3125,
          "durationTicks": 128,
          "midi": 66,
          "name": "F#4",
          "ticks": 11520,
          "time": 25.482372,
          "velocity": 0.8503937007874016
        },
        {
          "duration": 0.15625,
          "durationTicks": 64,
          "midi": 69,
          "name": "A4",
          "ticks": 11648,
          "time": 25.794872,
          "velocity": 0.8503937007874016
        },
        {
          "duration": 0.15625,
          "durationTicks": 64,
          "midi": 74,
          "name": "D5",
          "ticks": 11648,
          "time": 25.794872,
          "velocity": 0.8503937007874016
        },
        {
          "duration": 0.1513671875,
          "durationTicks": 62,
          "midi": 69,
          "name": "A4",
          "ticks": 11712,
          "time": 25.951122,
          "velocity": 0.8503937007874016
        },
        {
          "duration": 0.1513671875,
          "durationTicks": 62,
          "midi": 72,
          "name": "C5",
          "ticks": 11712,
          "time": 25.951122,
          "velocity": 0.8503937007874016
        },
        {
          "duration": 0.3125,
          "durationTicks": 128,
          "midi": 65,
          "name": "F4",
          "ticks": 12288,
          "time": 27.357372,
          "velocity": 0.8503937007874016
        },
        {
          "duration": 0.15625,
          "durationTicks": 64,
          "midi": 67,
          "name": "G4",
          "ticks": 12416,
          "time": 27.669872,
          "velocity": 0.8503937007874016
        },
        {
          "duration": 0.3125,
          "durationTicks": 128,
          "midi": 65,
          "name": "F4",
          "ticks": 12480,
          "time": 27.826122,
          "velocity": 0.8503937007874016
        },
        {
          "duration": 0.15625,
          "durationTicks": 64,
          "midi": 67,
          "name": "G4",
          "ticks": 12608,
          "time": 28.138622,
          "velocity": 0.8503937007874016
        },
        {
          "duration": 0.15625,
          "durationTicks": 64,
          "midi": 71,
          "name": "B4",
          "ticks": 12608,
          "time": 28.138622,
          "velocity": 0.8503937007874016
        },
        {
          "duration": 0.15625,
          "durationTicks": 64,
          "midi": 74,
          "name": "D5",
          "ticks": 12608,
          "time": 28.138622,
          "velocity": 0.8503937007874016
        },
        {
          "duration": 0.15625,
          "durationTicks": 64,
          "midi": 65,
          "name": "F4",
          "ticks": 12992,
          "time": 29.076122,
          "velocity": 0.8503937007874016
        },
        {
          "duration": 0.3125,
          "durationTicks": 128,
          "midi": 63,
          "name": "D#4",
          "ticks": 13056,
          "time": 29.232372,
          "velocity": 0.8503937007874016
        },
        {
          "duration": 0.1513671875,
          "durationTicks": 62,
          "midi": 72,
          "name": "C5",
          "ticks": 13184,
          "time": 29.544872,
          "velocity": 0.8503937007874016
        },
        {
          "duration": 0.2898546666666668,
          "durationTicks": 128,
          "midi": 72,
          "name": "C5",
          "ticks": 13632,
          "time": 30.583474000000002,
          "velocity": 0.8503937007874016
        },
        {
          "duration": 0.14492733333333163,
          "durationTicks": 64,
          "midi": 72,
          "name": "C5",
          "ticks": 13760,
          "time": 30.87332866666667,
          "velocity": 0.8503937007874016
        },
        {
          "duration": 0.14492733333333163,
          "durationTicks": 64,
          "midi": 74,
          "name": "D5",
          "ticks": 13760,
          "time": 30.87332866666667,
          "velocity": 0.8503937007874016
        },
        {
          "duration": 0.2898546666666668,
          "durationTicks": 128,
          "midi": 68,
          "name": "G#4",
          "ticks": 13824,
          "time": 31.018256,
          "velocity": 0.8503937007874016
        },
        {
          "duration": 0.2898546666666668,
          "durationTicks": 128,
          "midi": 72,
          "name": "C5",
          "ticks": 13824,
          "time": 31.018256,
          "velocity": 0.8503937007874016
        },
        {
          "duration": 0.2898546666666668,
          "durationTicks": 128,
          "midi": 75,
          "name": "D#5",
          "ticks": 13824,
          "time": 31.018256,
          "velocity": 0.8503937007874016
        },
        {
          "duration": 0.14492733333333518,
          "durationTicks": 64,
          "midi": 68,
          "name": "G#4",
          "ticks": 13952,
          "time": 31.308110666666668,
          "velocity": 0.8503937007874016
        },
        {
          "duration": 0.14492733333333518,
          "durationTicks": 64,
          "midi": 72,
          "name": "C5",
          "ticks": 13952,
          "time": 31.308110666666668,
          "velocity": 0.8503937007874016
        },
        {
          "duration": 0.14492733333333518,
          "durationTicks": 64,
          "midi": 74,
          "name": "D5",
          "ticks": 13952,
          "time": 31.308110666666668,
          "velocity": 0.8503937007874016
        },
        {
          "duration": 0.14492733333333518,
          "durationTicks": 64,
          "midi": 75,
          "name": "D#5",
          "ticks": 13952,
          "time": 31.308110666666668,
          "velocity": 0.8503937007874016
        },
        {
          "duration": 0.2898546666666668,
          "durationTicks": 128,
          "midi": 68,
          "name": "G#4",
          "ticks": 14016,
          "time": 31.453038000000003,
          "velocity": 0.8503937007874016
        },
        {
          "duration": 0.2898546666666668,
          "durationTicks": 128,
          "midi": 72,
          "name": "C5",
          "ticks": 14016,
          "time": 31.453038000000003,
          "velocity": 0.8503937007874016
        },
        {
          "duration": 0.2898546666666668,
          "durationTicks": 128,
          "midi": 75,
          "name": "D#5",
          "ticks": 14016,
          "time": 31.453038000000003,
          "velocity": 0.8503937007874016
        },
        {
          "duration": 0.14492733333333163,
          "durationTicks": 64,
          "midi": 68,
          "name": "G#4",
          "ticks": 14144,
          "time": 31.74289266666667,
          "velocity": 0.8503937007874016
        },
        {
          "duration": 0.14492733333333163,
          "durationTicks": 64,
          "midi": 72,
          "name": "C5",
          "ticks": 14144,
          "time": 31.74289266666667,
          "velocity": 0.8503937007874016
        },
        {
          "duration": 0.14492733333333163,
          "durationTicks": 64,
          "midi": 75,
          "name": "D#5",
          "ticks": 14144,
          "time": 31.74289266666667,
          "velocity": 0.8503937007874016
        },
        {
          "duration": 0.28985466666666326,
          "durationTicks": 128,
          "midi": 68,
          "name": "G#4",
          "ticks": 14400,
          "time": 32.322602,
          "velocity": 0.8503937007874016
        },
        {
          "duration": 0.28985466666666326,
          "durationTicks": 128,
          "midi": 72,
          "name": "C5",
          "ticks": 14400,
          "time": 32.322602,
          "velocity": 0.8503937007874016
        },
        {
          "duration": 0.14492733333333518,
          "durationTicks": 64,
          "midi": 68,
          "name": "G#4",
          "ticks": 14528,
          "time": 32.61245666666667,
          "velocity": 0.8503937007874016
        },
        {
          "duration": 0.14492733333333518,
          "durationTicks": 64,
          "midi": 72,
          "name": "C5",
          "ticks": 14528,
          "time": 32.61245666666667,
          "velocity": 0.8503937007874016
        },
        {
          "duration": 0.14492733333333518,
          "durationTicks": 64,
          "midi": 74,
          "name": "D5",
          "ticks": 14528,
          "time": 32.61245666666667,
          "velocity": 0.8503937007874016
        },
        {
          "duration": 0.29197066666666416,
          "durationTicks": 128,
          "midi": 67,
          "name": "G4",
          "ticks": 14592,
          "time": 32.757384,
          "velocity": 0.8503937007874016
        },
        {
          "duration": 0.29197066666666416,
          "durationTicks": 128,
          "midi": 72,
          "name": "C5",
          "ticks": 14592,
          "time": 32.757384,
          "velocity": 0.8503937007874016
        },
        {
          "duration": 0.29197066666666416,
          "durationTicks": 128,
          "midi": 75,
          "name": "D#5",
          "ticks": 14592,
          "time": 32.757384,
          "velocity": 0.8503937007874016
        },
        {
          "duration": 0.29197066666666416,
          "durationTicks": 128,
          "midi": 79,
          "name": "G5",
          "ticks": 14592,
          "time": 32.757384,
          "velocity": 0.8503937007874016
        },
        {
          "duration": 0.14598533333333563,
          "durationTicks": 64,
          "midi": 67,
          "name": "G4",
          "ticks": 14720,
          "time": 33.049354666666666,
          "velocity": 0.8503937007874016
        },
        {
          "duration": 0.14598533333333563,
          "durationTicks": 64,
          "midi": 72,
          "name": "C5",
          "ticks": 14720,
          "time": 33.049354666666666,
          "velocity": 0.8503937007874016
        },
        {
          "duration": 0.14598533333333563,
          "durationTicks": 64,
          "midi": 74,
          "name": "D5",
          "ticks": 14720,
          "time": 33.049354666666666,
          "velocity": 0.8503937007874016
        },
        {
          "duration": 0.14598533333333563,
          "durationTicks": 64,
          "midi": 79,
          "name": "G5",
          "ticks": 14720,
          "time": 33.049354666666666,
          "velocity": 0.8503937007874016
        },
        {
          "duration": 0.29197066666666416,
          "durationTicks": 128,
          "midi": 67,
          "name": "G4",
          "ticks": 14784,
          "time": 33.19534,
          "velocity": 0.8503937007874016
        },
        {
          "duration": 0.29197066666666416,
          "durationTicks": 128,
          "midi": 72,
          "name": "C5",
          "ticks": 14784,
          "time": 33.19534,
          "velocity": 0.8503937007874016
        },
        {
          "duration": 0.29197066666666416,
          "durationTicks": 128,
          "midi": 79,
          "name": "G5",
          "ticks": 14784,
          "time": 33.19534,
          "velocity": 0.8503937007874016
        },
        {
          "duration": 0.14598533333333563,
          "durationTicks": 64,
          "midi": 67,
          "name": "G4",
          "ticks": 14912,
          "time": 33.487310666666666,
          "velocity": 0.8503937007874016
        },
        {
          "duration": 0.14598533333333563,
          "durationTicks": 64,
          "midi": 72,
          "name": "C5",
          "ticks": 14912,
          "time": 33.487310666666666,
          "velocity": 0.8503937007874016
        },
        {
          "duration": 0.14598533333333563,
          "durationTicks": 64,
          "midi": 79,
          "name": "G5",
          "ticks": 14912,
          "time": 33.487310666666666,
          "velocity": 0.8503937007874016
        },
        {
          "duration": 0.29197066666666416,
          "durationTicks": 128,
          "midi": 67,
          "name": "G4",
          "ticks": 15168,
          "time": 34.071252,
          "velocity": 0.8503937007874016
        },
        {
          "duration": 0.29197066666666416,
          "durationTicks": 128,
          "midi": 72,
          "name": "C5",
          "ticks": 15168,
          "time": 34.071252,
          "velocity": 0.8503937007874016
        },
        {
          "duration": 0.14598533333333563,
          "durationTicks": 64,
          "midi": 67,
          "name": "G4",
          "ticks": 15296,
          "time": 34.363222666666665,
          "velocity": 0.8503937007874016
        },
        {
          "duration": 0.14598533333333563,
          "durationTicks": 64,
          "midi": 72,
          "name": "C5",
          "ticks": 15296,
          "time": 34.363222666666665,
          "velocity": 0.8503937007874016
        },
        {
          "duration": 0.14598533333333563,
          "durationTicks": 64,
          "midi": 74,
          "name": "D5",
          "ticks": 15296,
          "time": 34.363222666666665,
          "velocity": 0.8503937007874016
        },
        {
          "duration": 0.29197066666666416,
          "durationTicks": 128,
          "midi": 68,
          "name": "G#4",
          "ticks": 15360,
          "time": 34.509208,
          "velocity": 0.8503937007874016
        },
        {
          "duration": 0.29197066666666416,
          "durationTicks": 128,
          "midi": 72,
          "name": "C5",
          "ticks": 15360,
          "time": 34.509208,
          "velocity": 0.8503937007874016
        },
        {
          "duration": 0.29197066666666416,
          "durationTicks": 128,
          "midi": 75,
          "name": "D#5",
          "ticks": 15360,
          "time": 34.509208,
          "velocity": 0.8503937007874016
        },
        {
          "duration": 0.14598533333333563,
          "durationTicks": 64,
          "midi": 68,
          "name": "G#4",
          "ticks": 15488,
          "time": 34.801178666666665,
          "velocity": 0.8503937007874016
        },
        {
          "duration": 0.14598533333333563,
          "durationTicks": 64,
          "midi": 72,
          "name": "C5",
          "ticks": 15488,
          "time": 34.801178666666665,
          "velocity": 0.8503937007874016
        },
        {
          "duration": 0.14598533333333563,
          "durationTicks": 64,
          "midi": 74,
          "name": "D5",
          "ticks": 15488,
          "time": 34.801178666666665,
          "velocity": 0.8503937007874016
        },
        {
          "duration": 0.29197066666667126,
          "durationTicks": 128,
          "midi": 68,
          "name": "G#4",
          "ticks": 15552,
          "time": 34.947164,
          "velocity": 0.8503937007874016
        },
        {
          "duration": 0.29197066666667126,
          "durationTicks": 128,
          "midi": 72,
          "name": "C5",
          "ticks": 15552,
          "time": 34.947164,
          "velocity": 0.8503937007874016
        },
        {
          "duration": 0.4379559999999998,
          "durationTicks": 192,
          "midi": 69,
          "name": "A4",
          "ticks": 15680,
          "time": 35.23913466666667,
          "velocity": 0.8503937007874016
        },
        {
          "duration": 0.4379559999999998,
          "durationTicks": 192,
          "midi": 72,
          "name": "C5",
          "ticks": 15680,
          "time": 35.23913466666667,
          "velocity": 0.8503937007874016
        },
        {
          "duration": 0.4379559999999998,
          "durationTicks": 192,
          "midi": 74,
          "name": "D5",
          "ticks": 15680,
          "time": 35.23913466666667,
          "velocity": 0.8503937007874016
        },
        {
          "duration": 0.4379559999999998,
          "durationTicks": 192,
          "midi": 78,
          "name": "F#5",
          "ticks": 15680,
          "time": 35.23913466666667,
          "velocity": 0.8503937007874016
        },
        {
          "duration": 0.14598533333332853,
          "durationTicks": 64,
          "midi": 69,
          "name": "A4",
          "ticks": 15872,
          "time": 35.67709066666667,
          "velocity": 0.8503937007874016
        },
        {
          "duration": 0.14598533333332853,
          "durationTicks": 64,
          "midi": 72,
          "name": "C5",
          "ticks": 15872,
          "time": 35.67709066666667,
          "velocity": 0.8503937007874016
        },
        {
          "duration": 0.14598533333332853,
          "durationTicks": 64,
          "midi": 75,
          "name": "D#5",
          "ticks": 15872,
          "time": 35.67709066666667,
          "velocity": 0.8503937007874016
        },
        {
          "duration": 0.4379559999999998,
          "durationTicks": 192,
          "midi": 69,
          "name": "A4",
          "ticks": 15936,
          "time": 35.823076,
          "velocity": 0.8503937007874016
        },
        {
          "duration": 0.4379559999999998,
          "durationTicks": 192,
          "midi": 72,
          "name": "C5",
          "ticks": 15936,
          "time": 35.823076,
          "velocity": 0.8503937007874016
        },
        {
          "duration": 0.4379559999999998,
          "durationTicks": 192,
          "midi": 74,
          "name": "D5",
          "ticks": 15936,
          "time": 35.823076,
          "velocity": 0.8503937007874016
        },
        {
          "duration": 1.679103750000003,
          "durationTicks": 720,
          "midi": 67,
          "name": "G4",
          "ticks": 16128,
          "time": 36.261032,
          "velocity": 0.8503937007874016
        },
        {
          "duration": 1.679103750000003,
          "durationTicks": 720,
          "midi": 71,
          "name": "B4",
          "ticks": 16128,
          "time": 36.261032,
          "velocity": 0.8503937007874016
        },
        {
          "duration": 1.679103750000003,
          "durationTicks": 720,
          "midi": 74,
          "name": "D5",
          "ticks": 16128,
          "time": 36.261032,
          "velocity": 0.8503937007874016
        },
        {
          "duration": 1.679103750000003,
          "durationTicks": 720,
          "midi": 77,
          "name": "F5",
          "ticks": 16128,
          "time": 36.261032,
          "velocity": 0.8503937007874016
        },
        {
          "duration": 0.4098358333333323,
          "durationTicks": 160,
          "midi": 70,
          "name": "A#4",
          "ticks": 16896,
          "time": 38.052076,
          "velocity": 0.8503937007874016
        },
        {
          "duration": 0.4098358333333323,
          "durationTicks": 160,
          "midi": 74,
          "name": "D5",
          "ticks": 16896,
          "time": 38.052076,
          "velocity": 0.8503937007874016
        },
        {
          "duration": 0.4098358333333323,
          "durationTicks": 160,
          "midi": 77,
          "name": "F5",
          "ticks": 16896,
          "time": 38.052076,
          "velocity": 0.8503937007874016
        },
        {
          "duration": 0.1537696875000023,
          "durationTicks": 62,
          "midi": 67,
          "name": "G4",
          "ticks": 17664,
          "time": 40.019288,
          "velocity": 0.8503937007874016
        },
        {
          "duration": 0.1537696875000023,
          "durationTicks": 62,
          "midi": 70,
          "name": "A#4",
          "ticks": 18048,
          "time": 40.971668,
          "velocity": 0.8503937007874016
        },
        {
          "duration": 0.3125,
          "durationTicks": 128,
          "midi": 70,
          "name": "A#4",
          "ticks": 18432,
          "time": 41.924048000000006,
          "velocity": 0.8503937007874016
        },
        {
          "duration": 0.15625,
          "durationTicks": 64,
          "midi": 69,
          "name": "A4",
          "ticks": 18560,
          "time": 42.236548000000006,
          "velocity": 0.8503937007874016
        },
        {
          "duration": 0.3125,
          "durationTicks": 128,
          "midi": 68,
          "name": "G#4",
          "ticks": 18624,
          "time": 42.392798000000006,
          "velocity": 0.8503937007874016
        },
        {
          "duration": 0.1513671875,
          "durationTicks": 62,
          "midi": 68,
          "name": "G#4",
          "ticks": 18752,
          "time": 42.705298000000006,
          "velocity": 0.8503937007874016
        },
        {
          "duration": 0.15384599999999438,
          "durationTicks": 64,
          "midi": 67,
          "name": "G4",
          "ticks": 19328,
          "time": 44.10674000000001,
          "velocity": 0.8503937007874016
        },
        {
          "duration": 0.30769200000000296,
          "durationTicks": 128,
          "midi": 67,
          "name": "G4",
          "ticks": 19392,
          "time": 44.260586,
          "velocity": 0.8503937007874016
        },
        {
          "duration": 0.15384600000000148,
          "durationTicks": 64,
          "midi": 67,
          "name": "G4",
          "ticks": 19520,
          "time": 44.56827800000001,
          "velocity": 0.8503937007874016
        },
        {
          "duration": 0.15384600000000148,
          "durationTicks": 64,
          "midi": 67,
          "name": "G4",
          "ticks": 19712,
          "time": 45.029816000000004,
          "velocity": 0.8503937007874016
        },
        {
          "duration": 0.30769200000000296,
          "durationTicks": 128,
          "midi": 67,
          "name": "G4",
          "ticks": 19776,
          "time": 45.183662000000005,
          "velocity": 0.8503937007874016
        },
        {
          "duration": 0.15384599999999438,
          "durationTicks": 64,
          "midi": 67,
          "name": "G4",
          "ticks": 19904,
          "time": 45.49135400000001,
          "velocity": 0.8503937007874016
        },
        {
          "duration": 0.30769200000000296,
          "durationTicks": 128,
          "midi": 67,
          "name": "G4",
          "ticks": 19968,
          "time": 45.6452,
          "velocity": 0.8503937007874016
        },
        {
          "duration": 0.15384600000000148,
          "durationTicks": 64,
          "midi": 66,
          "name": "F#4",
          "ticks": 20096,
          "time": 45.952892000000006,
          "velocity": 0.8503937007874016
        },
        {
          "duration": 0.30769199999999586,
          "durationTicks": 128,
          "midi": 65,
          "name": "F4",
          "ticks": 20160,
          "time": 46.10673800000001,
          "velocity": 0.8503937007874016
        },
        {
          "duration": 0.14903831250000366,
          "durationTicks": 62,
          "midi": 65,
          "name": "F4",
          "ticks": 20288,
          "time": 46.41443,
          "velocity": 0.8503937007874016
        },
        {
          "duration": 0.14925366666666662,
          "durationTicks": 64,
          "midi": 63,
          "name": "D#4",
          "ticks": 20736,
          "time": 47.491352000000006,
          "velocity": 0.8503937007874016
        },
        {
          "duration": 0.14925366666666662,
          "durationTicks": 64,
          "midi": 65,
          "name": "F4",
          "ticks": 20800,
          "time": 47.64060566666667,
          "velocity": 0.8503937007874016
        },
        {
          "duration": 0.14925366666666662,
          "durationTicks": 64,
          "midi": 67,
          "name": "G4",
          "ticks": 20864,
          "time": 47.78985933333334,
          "velocity": 0.8503937007874016
        },
        {
          "duration": 0.14925366666666662,
          "durationTicks": 64,
          "midi": 68,
          "name": "G#4",
          "ticks": 20928,
          "time": 47.939113000000006,
          "velocity": 0.8503937007874016
        },
        {
          "duration": 0.14925366666666662,
          "durationTicks": 64,
          "midi": 67,
          "name": "G4",
          "ticks": 20992,
          "time": 48.08836666666667,
          "velocity": 0.8503937007874016
        },
        {
          "duration": 0.14925366666666662,
          "durationTicks": 64,
          "midi": 63,
          "name": "D#4",
          "ticks": 21056,
          "time": 48.23762033333334,
          "velocity": 0.8503937007874016
        },
        {
          "duration": 0.14925366666666662,
          "durationTicks": 64,
          "midi": 65,
          "name": "F4",
          "ticks": 21120,
          "time": 48.386874000000006,
          "velocity": 0.8503937007874016
        },
        {
          "duration": 0.14925366666666662,
          "durationTicks": 64,
          "midi": 67,
          "name": "G4",
          "ticks": 21184,
          "time": 48.53612766666667,
          "velocity": 0.8503937007874016
        },
        {
          "duration": 0.14925366666666662,
          "durationTicks": 64,
          "midi": 68,
          "name": "G#4",
          "ticks": 21248,
          "time": 48.68538133333334,
          "velocity": 0.8503937007874016
        },
        {
          "duration": 0.14925366666666662,
          "durationTicks": 64,
          "midi": 68,
          "name": "G#4",
          "ticks": 21312,
          "time": 48.834635000000006,
          "velocity": 0.8503937007874016
        },
        {
          "duration": 0.14925366666666662,
          "durationTicks": 64,
          "midi": 67,
          "name": "G4",
          "ticks": 21376,
          "time": 48.98388866666667,
          "velocity": 0.8503937007874016
        },
        {
          "duration": 0.14925366666666662,
          "durationTicks": 64,
          "midi": 65,
          "name": "F4",
          "ticks": 21440,
          "time": 49.13314233333334,
          "velocity": 0.8503937007874016
        },
        {
          "duration": 0.1503756666666689,
          "durationTicks": 64,
          "midi": 67,
          "name": "G4",
          "ticks": 21504,
          "time": 49.282396000000006,
          "velocity": 0.8503937007874016
        },
        {
          "duration": 0.1503756666666618,
          "durationTicks": 64,
          "midi": 68,
          "name": "G#4",
          "ticks": 21568,
          "time": 49.432771666666675,
          "velocity": 0.8503937007874016
        },
        {
          "duration": 0.1503756666666689,
          "durationTicks": 64,
          "midi": 70,
          "name": "A#4",
          "ticks": 21632,
          "time": 49.583147333333336,
          "velocity": 0.8503937007874016
        },
        {
          "duration": 0.1503756666666689,
          "durationTicks": 64,
          "midi": 72,
          "name": "C5",
          "ticks": 21696,
          "time": 49.733523000000005,
          "velocity": 0.8503937007874016
        },
        {
          "duration": 0.1503756666666618,
          "durationTicks": 64,
          "midi": 70,
          "name": "A#4",
          "ticks": 21760,
          "time": 49.883898666666674,
          "velocity": 0.8503937007874016
        },
        {
          "duration": 0.1503756666666689,
          "durationTicks": 64,
          "midi": 68,
          "name": "G#4",
          "ticks": 21824,
          "time": 50.034274333333336,
          "velocity": 0.8503937007874016
        },
        {
          "duration": 0.1503756666666689,
          "durationTicks": 64,
          "midi": 65,
          "name": "F4",
          "ticks": 21888,
          "time": 50.184650000000005,
          "velocity": 0.8503937007874016
        },
        {
          "duration": 0.1503756666666618,
          "durationTicks": 64,
          "midi": 67,
          "name": "G4",
          "ticks": 21952,
          "time": 50.335025666666674,
          "velocity": 0.8503937007874016
        },
        {
          "duration": 0.1503756666666689,
          "durationTicks": 64,
          "midi": 68,
          "name": "G#4",
          "ticks": 22016,
          "time": 50.485401333333336,
          "velocity": 0.8503937007874016
        },
        {
          "duration": 0.1503756666666689,
          "durationTicks": 64,
          "midi": 68,
          "name": "G#4",
          "ticks": 22080,
          "time": 50.635777000000004,
          "velocity": 0.8503937007874016
        },
        {
          "duration": 0.1503756666666689,
          "durationTicks": 64,
          "midi": 67,
          "name": "G4",
          "ticks": 22144,
          "time": 50.78615266666667,
          "velocity": 0.8503937007874016
        },
        {
          "duration": 0.1503756666666618,
          "durationTicks": 64,
          "midi": 65,
          "name": "F4",
          "ticks": 22208,
          "time": 50.93652833333334,
          "velocity": 0.8503937007874016
        },
        {
          "duration": 0.3053433333333331,
          "durationTicks": 128,
          "midi": 72,
          "name": "C5",
          "ticks": 22272,
          "time": 51.086904000000004,
          "velocity": 0.8503937007874016
        },
        {
          "duration": 0.1526716666666701,
          "durationTicks": 64,
          "midi": 67,
          "name": "G4",
          "ticks": 22400,
          "time": 51.39224733333334,
          "velocity": 0.8503937007874016
        },
        {
          "duration": 0.3053433333333331,
          "durationTicks": 128,
          "midi": 72,
          "name": "C5",
          "ticks": 22464,
          "time": 51.54491900000001,
          "velocity": 0.8503937007874016
        },
        {
          "duration": 0.152671666666663,
          "durationTicks": 64,
          "midi": 67,
          "name": "G4",
          "ticks": 22592,
          "time": 51.85026233333334,
          "velocity": 0.8503937007874016
        },
        {
          "duration": 0.3053433333333331,
          "durationTicks": 128,
          "midi": 75,
          "name": "D#5",
          "ticks": 22656,
          "time": 52.002934,
          "velocity": 0.8503937007874016
        },
        {
          "duration": 0.3053433333333331,
          "durationTicks": 128,
          "midi": 79,
          "name": "G5",
          "ticks": 22656,
          "time": 52.002934,
          "velocity": 0.8503937007874016
        },
        {
          "duration": 0.1526716666666701,
          "durationTicks": 64,
          "midi": 67,
          "name": "G4",
          "ticks": 22784,
          "time": 52.308277333333336,
          "velocity": 0.8503937007874016
        },
        {
          "duration": 0.1526716666666701,
          "durationTicks": 64,
          "midi": 72,
          "name": "C5",
          "ticks": 22784,
          "time": 52.308277333333336,
          "velocity": 0.8503937007874016
        },
        {
          "duration": 0.3053433333333331,
          "durationTicks": 128,
          "midi": 67,
          "name": "G4",
          "ticks": 22848,
          "time": 52.46094900000001,
          "velocity": 0.8503937007874016
        },
        {
          "duration": 0.3053433333333331,
          "durationTicks": 128,
          "midi": 75,
          "name": "D#5",
          "ticks": 22848,
          "time": 52.46094900000001,
          "velocity": 0.8503937007874016
        },
        {
          "duration": 0.3053433333333331,
          "durationTicks": 128,
          "midi": 79,
          "name": "G5",
          "ticks": 22848,
          "time": 52.46094900000001,
          "velocity": 0.8503937007874016
        },
        {
          "duration": 0.152671666666663,
          "durationTicks": 64,
          "midi": 67,
          "name": "G4",
          "ticks": 22976,
          "time": 52.76629233333334,
          "velocity": 0.8503937007874016
        },
        {
          "duration": 0.152671666666663,
          "durationTicks": 64,
          "midi": 72,
          "name": "C5",
          "ticks": 22976,
          "time": 52.76629233333334,
          "velocity": 0.8503937007874016
        },
        {
          "duration": 0.3053433333333331,
          "durationTicks": 128,
          "midi": 67,
          "name": "G4",
          "ticks": 23040,
          "time": 52.918964,
          "velocity": 0.8503937007874016
        },
        {
          "duration": 0.1526716666666701,
          "durationTicks": 64,
          "midi": 67,
          "name": "G4",
          "ticks": 23168,
          "time": 53.224307333333336,
          "velocity": 0.8503937007874016
        },
        {
          "duration": 0.3053433333333331,
          "durationTicks": 128,
          "midi": 67,
          "name": "G4",
          "ticks": 23232,
          "time": 53.376979000000006,
          "velocity": 0.8503937007874016
        },
        {
          "duration": 0.152671666666663,
          "durationTicks": 64,
          "midi": 67,
          "name": "G4",
          "ticks": 23360,
          "time": 53.68232233333334,
          "velocity": 0.8503937007874016
        },
        {
          "duration": 0.1526716666666701,
          "durationTicks": 64,
          "midi": 65,
          "name": "F4",
          "ticks": 23552,
          "time": 54.140337333333335,
          "velocity": 0.8503937007874016
        },
        {
          "duration": 0.3053433333333331,
          "durationTicks": 128,
          "midi": 63,
          "name": "D#4",
          "ticks": 23616,
          "time": 54.293009000000005,
          "velocity": 0.8503937007874016
        },
        {
          "duration": 0.152671666666663,
          "durationTicks": 64,
          "midi": 62,
          "name": "D4",
          "ticks": 23744,
          "time": 54.59835233333334,
          "velocity": 0.8503937007874016
        },
        {
          "duration": 0.30769200000000296,
          "durationTicks": 128,
          "midi": 72,
          "name": "C5",
          "ticks": 23808,
          "time": 54.751024,
          "velocity": 0.8503937007874016
        },
        {
          "duration": 0.15384599999999438,
          "durationTicks": 64,
          "midi": 63,
          "name": "D#4",
          "ticks": 23936,
          "time": 55.058716000000004,
          "velocity": 0.8503937007874016
        },
        {
          "duration": 0.15384599999999438,
          "durationTicks": 64,
          "midi": 67,
          "name": "G4",
          "ticks": 23936,
          "time": 55.058716000000004,
          "velocity": 0.8503937007874016
        },
        {
          "duration": 0.15384599999999438,
          "durationTicks": 64,
          "midi": 72,
          "name": "C5",
          "ticks": 23936,
          "time": 55.058716000000004,
          "velocity": 0.8503937007874016
        },
        {
          "duration": 0.15384599999999438,
          "durationTicks": 64,
          "midi": 75,
          "name": "D#5",
          "ticks": 23936,
          "time": 55.058716000000004,
          "velocity": 0.8503937007874016
        },
        {
          "duration": 0.30769200000000296,
          "durationTicks": 128,
          "midi": 63,
          "name": "D#4",
          "ticks": 24000,
          "time": 55.212562,
          "velocity": 0.8503937007874016
        },
        {
          "duration": 0.30769200000000296,
          "durationTicks": 128,
          "midi": 67,
          "name": "G4",
          "ticks": 24000,
          "time": 55.212562,
          "velocity": 0.8503937007874016
        },
        {
          "duration": 0.30769200000000296,
          "durationTicks": 128,
          "midi": 72,
          "name": "C5",
          "ticks": 24000,
          "time": 55.212562,
          "velocity": 0.8503937007874016
        },
        {
          "duration": 0.30769200000000296,
          "durationTicks": 128,
          "midi": 75,
          "name": "D#5",
          "ticks": 24000,
          "time": 55.212562,
          "velocity": 0.8503937007874016
        },
        {
          "duration": 0.15384600000000148,
          "durationTicks": 64,
          "midi": 63,
          "name": "D#4",
          "ticks": 24128,
          "time": 55.520254,
          "velocity": 0.8503937007874016
        },
        {
          "duration": 0.15384600000000148,
          "durationTicks": 64,
          "midi": 67,
          "name": "G4",
          "ticks": 24128,
          "time": 55.520254,
          "velocity": 0.8503937007874016
        },
        {
          "duration": 0.15384600000000148,
          "durationTicks": 64,
          "midi": 72,
          "name": "C5",
          "ticks": 24128,
          "time": 55.520254,
          "velocity": 0.8503937007874016
        },
        {
          "duration": 0.15384600000000148,
          "durationTicks": 64,
          "midi": 75,
          "name": "D#5",
          "ticks": 24128,
          "time": 55.520254,
          "velocity": 0.8503937007874016
        },
        {
          "duration": 0.30769199999999586,
          "durationTicks": 128,
          "midi": 75,
          "name": "D#5",
          "ticks": 24192,
          "time": 55.6741,
          "velocity": 0.8503937007874016
        },
        {
          "duration": 0.15384600000000148,
          "durationTicks": 64,
          "midi": 63,
          "name": "D#4",
          "ticks": 24320,
          "time": 55.981792,
          "velocity": 0.8503937007874016
        },
        {
          "duration": 0.15384600000000148,
          "durationTicks": 64,
          "midi": 67,
          "name": "G4",
          "ticks": 24320,
          "time": 55.981792,
          "velocity": 0.8503937007874016
        },
        {
          "duration": 0.15384600000000148,
          "durationTicks": 64,
          "midi": 72,
          "name": "C5",
          "ticks": 24320,
          "time": 55.981792,
          "velocity": 0.8503937007874016
        },
        {
          "duration": 0.15384600000000148,
          "durationTicks": 64,
          "midi": 75,
          "name": "D#5",
          "ticks": 24320,
          "time": 55.981792,
          "velocity": 0.8503937007874016
        },
        {
          "duration": 0.30769200000000296,
          "durationTicks": 128,
          "midi": 63,
          "name": "D#4",
          "ticks": 24384,
          "time": 56.135638,
          "velocity": 0.8503937007874016
        },
        {
          "duration": 0.30769200000000296,
          "durationTicks": 128,
          "midi": 67,
          "name": "G4",
          "ticks": 24384,
          "time": 56.135638,
          "velocity": 0.8503937007874016
        },
        {
          "duration": 0.30769200000000296,
          "durationTicks": 128,
          "midi": 72,
          "name": "C5",
          "ticks": 24384,
          "time": 56.135638,
          "velocity": 0.8503937007874016
        },
        {
          "duration": 0.30769200000000296,
          "durationTicks": 128,
          "midi": 75,
          "name": "D#5",
          "ticks": 24384,
          "time": 56.135638,
          "velocity": 0.8503937007874016
        },
        {
          "duration": 0.15384599999999438,
          "durationTicks": 64,
          "midi": 63,
          "name": "D#4",
          "ticks": 24512,
          "time": 56.44333,
          "velocity": 0.8503937007874016
        },
        {
          "duration": 0.15384599999999438,
          "durationTicks": 64,
          "midi": 67,
          "name": "G4",
          "ticks": 24512,
          "time": 56.44333,
          "velocity": 0.8503937007874016
        },
        {
          "duration": 0.15384599999999438,
          "durationTicks": 64,
          "midi": 72,
          "name": "C5",
          "ticks": 24512,
          "time": 56.44333,
          "velocity": 0.8503937007874016
        },
        {
          "duration": 0.15384599999999438,
          "durationTicks": 64,
          "midi": 75,
          "name": "D#5",
          "ticks": 24512,
          "time": 56.44333,
          "velocity": 0.8503937007874016
        },
        {
          "duration": 0.30769200000000296,
          "durationTicks": 128,
          "midi": 67,
          "name": "G4",
          "ticks": 24576,
          "time": 56.597176,
          "velocity": 0.8503937007874016
        },
        {
          "duration": 0.15384600000000148,
          "durationTicks": 64,
          "midi": 63,
          "name": "D#4",
          "ticks": 24704,
          "time": 56.904868,
          "velocity": 0.8503937007874016
        },
        {
          "duration": 0.15384600000000148,
          "durationTicks": 64,
          "midi": 67,
          "name": "G4",
          "ticks": 24704,
          "time": 56.904868,
          "velocity": 0.8503937007874016
        },
        {
          "duration": 0.15384600000000148,
          "durationTicks": 64,
          "midi": 72,
          "name": "C5",
          "ticks": 24704,
          "time": 56.904868,
          "velocity": 0.8503937007874016
        },
        {
          "duration": 0.15384600000000148,
          "durationTicks": 64,
          "midi": 75,
          "name": "D#5",
          "ticks": 24704,
          "time": 56.904868,
          "velocity": 0.8503937007874016
        },
        {
          "duration": 0.30769199999999586,
          "durationTicks": 128,
          "midi": 63,
          "name": "D#4",
          "ticks": 24768,
          "time": 57.058714,
          "velocity": 0.8503937007874016
        },
        {
          "duration": 0.30769199999999586,
          "durationTicks": 128,
          "midi": 67,
          "name": "G4",
          "ticks": 24768,
          "time": 57.058714,
          "velocity": 0.8503937007874016
        },
        {
          "duration": 0.30769199999999586,
          "durationTicks": 128,
          "midi": 72,
          "name": "C5",
          "ticks": 24768,
          "time": 57.058714,
          "velocity": 0.8503937007874016
        },
        {
          "duration": 0.30769199999999586,
          "durationTicks": 128,
          "midi": 75,
          "name": "D#5",
          "ticks": 24768,
          "time": 57.058714,
          "velocity": 0.8503937007874016
        },
        {
          "duration": 0.15384600000000148,
          "durationTicks": 64,
          "midi": 63,
          "name": "D#4",
          "ticks": 24896,
          "time": 57.366406,
          "velocity": 0.8503937007874016
        },
        {
          "duration": 0.15384600000000148,
          "durationTicks": 64,
          "midi": 67,
          "name": "G4",
          "ticks": 24896,
          "time": 57.366406,
          "velocity": 0.8503937007874016
        },
        {
          "duration": 0.15384600000000148,
          "durationTicks": 64,
          "midi": 72,
          "name": "C5",
          "ticks": 24896,
          "time": 57.366406,
          "velocity": 0.8503937007874016
        },
        {
          "duration": 0.15384600000000148,
          "durationTicks": 64,
          "midi": 75,
          "name": "D#5",
          "ticks": 24896,
          "time": 57.366406,
          "velocity": 0.8503937007874016
        },
        {
          "duration": 0.30769200000000296,
          "durationTicks": 128,
          "midi": 75,
          "name": "D#5",
          "ticks": 24960,
          "time": 57.520252,
          "velocity": 0.8503937007874016
        },
        {
          "duration": 0.15384600000000148,
          "durationTicks": 64,
          "midi": 63,
          "name": "D#4",
          "ticks": 25088,
          "time": 57.827944,
          "velocity": 0.8503937007874016
        },
        {
          "duration": 0.15384600000000148,
          "durationTicks": 64,
          "midi": 67,
          "name": "G4",
          "ticks": 25088,
          "time": 57.827944,
          "velocity": 0.8503937007874016
        },
        {
          "duration": 0.15384600000000148,
          "durationTicks": 64,
          "midi": 72,
          "name": "C5",
          "ticks": 25088,
          "time": 57.827944,
          "velocity": 0.8503937007874016
        },
        {
          "duration": 0.15384600000000148,
          "durationTicks": 64,
          "midi": 75,
          "name": "D#5",
          "ticks": 25088,
          "time": 57.827944,
          "velocity": 0.8503937007874016
        },
        {
          "duration": 0.30769199999999586,
          "durationTicks": 128,
          "midi": 63,
          "name": "D#4",
          "ticks": 25152,
          "time": 57.981790000000004,
          "velocity": 0.8503937007874016
        },
        {
          "duration": 0.30769199999999586,
          "durationTicks": 128,
          "midi": 67,
          "name": "G4",
          "ticks": 25152,
          "time": 57.981790000000004,
          "velocity": 0.8503937007874016
        },
        {
          "duration": 0.30769199999999586,
          "durationTicks": 128,
          "midi": 72,
          "name": "C5",
          "ticks": 25152,
          "time": 57.981790000000004,
          "velocity": 0.8503937007874016
        },
        {
          "duration": 0.30769199999999586,
          "durationTicks": 128,
          "midi": 75,
          "name": "D#5",
          "ticks": 25152,
          "time": 57.981790000000004,
          "velocity": 0.8503937007874016
        },
        {
          "duration": 0.15384600000000148,
          "durationTicks": 64,
          "midi": 63,
          "name": "D#4",
          "ticks": 25280,
          "time": 58.289482,
          "velocity": 0.8503937007874016
        },
        {
          "duration": 0.15384600000000148,
          "durationTicks": 64,
          "midi": 67,
          "name": "G4",
          "ticks": 25280,
          "time": 58.289482,
          "velocity": 0.8503937007874016
        },
        {
          "duration": 0.15384600000000148,
          "durationTicks": 64,
          "midi": 72,
          "name": "C5",
          "ticks": 25280,
          "time": 58.289482,
          "velocity": 0.8503937007874016
        },
        {
          "duration": 0.15384600000000148,
          "durationTicks": 64,
          "midi": 75,
          "name": "D#5",
          "ticks": 25280,
          "time": 58.289482,
          "velocity": 0.8503937007874016
        },
        {
          "duration": 1.730767499999999,
          "durationTicks": 720,
          "midi": 63,
          "name": "D#4",
          "ticks": 25344,
          "time": 58.443328,
          "velocity": 0.8503937007874016
        },
        {
          "duration": 1.730767499999999,
          "durationTicks": 720,
          "midi": 67,
          "name": "G4",
          "ticks": 25344,
          "time": 58.443328,
          "velocity": 0.8503937007874016
        },
        {
          "duration": 1.730767499999999,
          "durationTicks": 720,
          "midi": 72,
          "name": "C5",
          "ticks": 25344,
          "time": 58.443328,
          "velocity": 0.8503937007874016
        },
        {
          "duration": 1.730767499999999,
          "durationTicks": 720,
          "midi": 75,
          "name": "D#5",
          "ticks": 25344,
          "time": 58.443328,
          "velocity": 0.8503937007874016
        },
        {
          "duration": 0.2962959999999981,
          "durationTicks": 128,
          "midi": 67,
          "name": "G4",
          "ticks": 26880,
          "time": 62.28948,
          "velocity": 0.8503937007874016
        },
        {
          "duration": 0.14814799999999906,
          "durationTicks": 64,
          "midi": 68,
          "name": "G#4",
          "ticks": 27008,
          "time": 62.585775999999996,
          "velocity": 0.8503937007874016
        },
        {
          "duration": 0.14814799999999906,
          "durationTicks": 64,
          "midi": 72,
          "name": "C5",
          "ticks": 27008,
          "time": 62.585775999999996,
          "velocity": 0.8503937007874016
        },
        {
          "duration": 0.3703700000000012,
          "durationTicks": 160,
          "midi": 67,
          "name": "G4",
          "ticks": 27072,
          "time": 62.733923999999995,
          "velocity": 0.8503937007874016
        },
        {
          "duration": 0.14814800000000616,
          "durationTicks": 64,
          "midi": 74,
          "name": "D5",
          "ticks": 27072,
          "time": 62.733923999999995,
          "velocity": 0.8503937007874016
        },
        {
          "duration": 0.14814800000000616,
          "durationTicks": 64,
          "midi": 77,
          "name": "F5",
          "ticks": 27072,
          "time": 62.733923999999995,
          "velocity": 0.8503937007874016
        },
        {
          "duration": 0.14814799999999906,
          "durationTicks": 64,
          "midi": 72,
          "name": "C5",
          "ticks": 27136,
          "time": 62.882072,
          "velocity": 0.8503937007874016
        },
        {
          "duration": 0.14814799999999906,
          "durationTicks": 64,
          "midi": 75,
          "name": "D#5",
          "ticks": 27136,
          "time": 62.882072,
          "velocity": 0.8503937007874016
        },
        {
          "duration": 0.14814799999999906,
          "durationTicks": 64,
          "midi": 72,
          "name": "C5",
          "ticks": 27200,
          "time": 63.03022,
          "velocity": 0.8503937007874016
        },
        {
          "duration": 0.14814799999999906,
          "durationTicks": 64,
          "midi": 75,
          "name": "D#5",
          "ticks": 27200,
          "time": 63.03022,
          "velocity": 0.8503937007874016
        },
        {
          "duration": 0.2962959999999981,
          "durationTicks": 128,
          "midi": 72,
          "name": "C5",
          "ticks": 27264,
          "time": 63.178368,
          "velocity": 0.8503937007874016
        },
        {
          "duration": 0.2962959999999981,
          "durationTicks": 128,
          "midi": 75,
          "name": "D#5",
          "ticks": 27264,
          "time": 63.178368,
          "velocity": 0.8503937007874016
        },
        {
          "duration": 0.14814799999999906,
          "durationTicks": 64,
          "midi": 67,
          "name": "G4",
          "ticks": 27392,
          "time": 63.474664,
          "velocity": 0.8503937007874016
        },
        {
          "duration": 0.14814799999999906,
          "durationTicks": 64,
          "midi": 72,
          "name": "C5",
          "ticks": 27392,
          "time": 63.474664,
          "velocity": 0.8503937007874016
        },
        {
          "duration": 0.2962959999999981,
          "durationTicks": 128,
          "midi": 72,
          "name": "C5",
          "ticks": 27456,
          "time": 63.622811999999996,
          "velocity": 0.8503937007874016
        },
        {
          "duration": 0.2962959999999981,
          "durationTicks": 128,
          "midi": 75,
          "name": "D#5",
          "ticks": 27456,
          "time": 63.622811999999996,
          "velocity": 0.8503937007874016
        },
        {
          "duration": 0.14814800000000616,
          "durationTicks": 64,
          "midi": 67,
          "name": "G4",
          "ticks": 27584,
          "time": 63.919107999999994,
          "velocity": 0.8503937007874016
        },
        {
          "duration": 0.14814800000000616,
          "durationTicks": 64,
          "midi": 72,
          "name": "C5",
          "ticks": 27584,
          "time": 63.919107999999994,
          "velocity": 0.8503937007874016
        },
        {
          "duration": 0.1515150000000034,
          "durationTicks": 64,
          "midi": 66,
          "name": "F#4",
          "ticks": 27648,
          "time": 64.067256,
          "velocity": 0.8503937007874016
        },
        {
          "duration": 0.1515150000000034,
          "durationTicks": 64,
          "midi": 69,
          "name": "A4",
          "ticks": 27712,
          "time": 64.218771,
          "velocity": 0.8503937007874016
        },
        {
          "duration": 0.1515150000000034,
          "durationTicks": 64,
          "midi": 74,
          "name": "D5",
          "ticks": 27712,
          "time": 64.218771,
          "velocity": 0.8503937007874016
        },
        {
          "duration": 0.15151499999998919,
          "durationTicks": 64,
          "midi": 69,
          "name": "A4",
          "ticks": 27776,
          "time": 64.37028600000001,
          "velocity": 0.8503937007874016
        },
        {
          "duration": 0.15151499999998919,
          "durationTicks": 64,
          "midi": 72,
          "name": "C5",
          "ticks": 27776,
          "time": 64.37028600000001,
          "velocity": 0.8503937007874016
        },
        {
          "duration": 0.3030300000000068,
          "durationTicks": 128,
          "midi": 69,
          "name": "A4",
          "ticks": 27840,
          "time": 64.521801,
          "velocity": 0.8503937007874016
        },
        {
          "duration": 0.3030300000000068,
          "durationTicks": 128,
          "midi": 74,
          "name": "D5",
          "ticks": 27840,
          "time": 64.521801,
          "velocity": 0.8503937007874016
        },
        {
          "duration": 0.1515150000000034,
          "durationTicks": 64,
          "midi": 69,
          "name": "A4",
          "ticks": 27968,
          "time": 64.824831,
          "velocity": 0.8503937007874016
        },
        {
          "duration": 0.1515150000000034,
          "durationTicks": 64,
          "midi": 74,
          "name": "D5",
          "ticks": 27968,
          "time": 64.824831,
          "velocity": 0.8503937007874016
        },
        {
          "duration": 0.3030299999999926,
          "durationTicks": 128,
          "midi": 69,
          "name": "A4",
          "ticks": 28032,
          "time": 64.976346,
          "velocity": 0.8503937007874016
        },
        {
          "duration": 0.1515150000000034,
          "durationTicks": 64,
          "midi": 66,
          "name": "F#4",
          "ticks": 28160,
          "time": 65.279376,
          "velocity": 0.8503937007874016
        },
        {
          "duration": 0.1515150000000034,
          "durationTicks": 64,
          "midi": 66,
          "name": "F#4",
          "ticks": 28352,
          "time": 65.733921,
          "velocity": 0.8503937007874016
        },
        {
          "duration": 0.15384600000000148,
          "durationTicks": 64,
          "midi": 65,
          "name": "F4",
          "ticks": 28416,
          "time": 65.885436,
          "velocity": 0.8503937007874016
        },
        {
          "duration": 0.15384600000000148,
          "durationTicks": 64,
          "midi": 67,
          "name": "G4",
          "ticks": 28480,
          "time": 66.039282,
          "velocity": 0.8503937007874016
        },
        {
          "duration": 0.15384600000000148,
          "durationTicks": 64,
          "midi": 65,
          "name": "F4",
          "ticks": 28544,
          "time": 66.193128,
          "velocity": 0.8503937007874016
        },
        {
          "duration": 0.30769199999998875,
          "durationTicks": 128,
          "midi": 67,
          "name": "G4",
          "ticks": 28608,
          "time": 66.346974,
          "velocity": 0.8503937007874016
        },
        {
          "duration": 0.30769199999998875,
          "durationTicks": 128,
          "midi": 71,
          "name": "B4",
          "ticks": 28608,
          "time": 66.346974,
          "velocity": 0.8503937007874016
        },
        {
          "duration": 0.30769199999998875,
          "durationTicks": 128,
          "midi": 74,
          "name": "D5",
          "ticks": 28608,
          "time": 66.346974,
          "velocity": 0.8503937007874016
        },
        {
          "duration": 0.30769199999998875,
          "durationTicks": 128,
          "midi": 77,
          "name": "F5",
          "ticks": 28608,
          "time": 66.346974,
          "velocity": 0.8503937007874016
        },
        {
          "duration": 0.15384600000000148,
          "durationTicks": 64,
          "midi": 67,
          "name": "G4",
          "ticks": 28736,
          "time": 66.65466599999999,
          "velocity": 0.8503937007874016
        },
        {
          "duration": 0.15384600000000148,
          "durationTicks": 64,
          "midi": 71,
          "name": "B4",
          "ticks": 28736,
          "time": 66.65466599999999,
          "velocity": 0.8503937007874016
        },
        {
          "duration": 0.15384600000000148,
          "durationTicks": 64,
          "midi": 74,
          "name": "D5",
          "ticks": 28736,
          "time": 66.65466599999999,
          "velocity": 0.8503937007874016
        },
        {
          "duration": 0.15384600000000148,
          "durationTicks": 64,
          "midi": 77,
          "name": "F5",
          "ticks": 28736,
          "time": 66.65466599999999,
          "velocity": 0.8503937007874016
        },
        {
          "duration": 0.30769200000000296,
          "durationTicks": 128,
          "midi": 67,
          "name": "G4",
          "ticks": 28800,
          "time": 66.808512,
          "velocity": 0.8503937007874016
        },
        {
          "duration": 0.30769200000000296,
          "durationTicks": 128,
          "midi": 71,
          "name": "B4",
          "ticks": 28800,
          "time": 66.808512,
          "velocity": 0.8503937007874016
        },
        {
          "duration": 0.30769200000000296,
          "durationTicks": 128,
          "midi": 77,
          "name": "F5",
          "ticks": 28800,
          "time": 66.808512,
          "velocity": 0.8503937007874016
        },
        {
          "duration": 0.15384600000000148,
          "durationTicks": 64,
          "midi": 65,
          "name": "F4",
          "ticks": 28928,
          "time": 67.116204,
          "velocity": 0.8503937007874016
        },
        {
          "duration": 0.15384600000000148,
          "durationTicks": 64,
          "midi": 77,
          "name": "F5",
          "ticks": 28928,
          "time": 67.116204,
          "velocity": 0.8503937007874016
        },
        {
          "duration": 0.30769200000000296,
          "durationTicks": 128,
          "midi": 77,
          "name": "F5",
          "ticks": 28992,
          "time": 67.27005,
          "velocity": 0.8503937007874016
        },
        {
          "duration": 0.15384600000000148,
          "durationTicks": 64,
          "midi": 65,
          "name": "F4",
          "ticks": 29120,
          "time": 67.577742,
          "velocity": 0.8503937007874016
        },
        {
          "duration": 0.15384600000000148,
          "durationTicks": 64,
          "midi": 77,
          "name": "F5",
          "ticks": 29120,
          "time": 67.577742,
          "velocity": 0.8503937007874016
        },
        {
          "duration": 0.3030300000000068,
          "durationTicks": 128,
          "midi": 63,
          "name": "D#4",
          "ticks": 29184,
          "time": 67.731588,
          "velocity": 0.8503937007874016
        },
        {
          "duration": 0.15151499999998919,
          "durationTicks": 64,
          "midi": 63,
          "name": "D#4",
          "ticks": 29312,
          "time": 68.03461800000001,
          "velocity": 0.8503937007874016
        },
        {
          "duration": 0.15151499999998919,
          "durationTicks": 64,
          "midi": 72,
          "name": "C5",
          "ticks": 29312,
          "time": 68.03461800000001,
          "velocity": 0.8503937007874016
        },
        {
          "duration": 0.3787875000000014,
          "durationTicks": 160,
          "midi": 72,
          "name": "C5",
          "ticks": 29376,
          "time": 68.186133,
          "velocity": 0.8503937007874016
        },
        {
          "duration": 0.1515150000000034,
          "durationTicks": 64,
          "midi": 74,
          "name": "D5",
          "ticks": 29376,
          "time": 68.186133,
          "velocity": 0.8503937007874016
        },
        {
          "duration": 0.1515150000000034,
          "durationTicks": 64,
          "midi": 77,
          "name": "F5",
          "ticks": 29376,
          "time": 68.186133,
          "velocity": 0.8503937007874016
        },
        {
          "duration": 0.1515150000000034,
          "durationTicks": 64,
          "midi": 75,
          "name": "D#5",
          "ticks": 29440,
          "time": 68.337648,
          "velocity": 0.8503937007874016
        },
        {
          "duration": 0.1515150000000034,
          "durationTicks": 64,
          "midi": 72,
          "name": "C5",
          "ticks": 29504,
          "time": 68.489163,
          "velocity": 0.8503937007874016
        },
        {
          "duration": 0.3030299999999926,
          "durationTicks": 128,
          "midi": 75,
          "name": "D#5",
          "ticks": 29568,
          "time": 68.64067800000001,
          "velocity": 0.8503937007874016
        },
        {
          "duration": 0.3030299999999926,
          "durationTicks": 128,
          "midi": 79,
          "name": "G5",
          "ticks": 29568,
          "time": 68.64067800000001,
          "velocity": 0.8503937007874016
        },
        {
          "duration": 0.1515150000000034,
          "durationTicks": 64,
          "midi": 72,
          "name": "C5",
          "ticks": 29696,
          "time": 68.943708,
          "velocity": 0.8503937007874016
        },
        {
          "duration": 0.3030299999999926,
          "durationTicks": 128,
          "midi": 75,
          "name": "D#5",
          "ticks": 29760,
          "time": 69.095223,
          "velocity": 0.8503937007874016
        },
        {
          "duration": 0.3030299999999926,
          "durationTicks": 128,
          "midi": 79,
          "name": "G5",
          "ticks": 29760,
          "time": 69.095223,
          "velocity": 0.8503937007874016
        },
        {
          "duration": 0.1515150000000034,
          "durationTicks": 64,
          "midi": 72,
          "name": "C5",
          "ticks": 29888,
          "time": 69.398253,
          "velocity": 0.8503937007874016
        },
        {
          "duration": 0.1515150000000034,
          "durationTicks": 64,
          "midi": 74,
          "name": "D5",
          "ticks": 29888,
          "time": 69.398253,
          "velocity": 0.8503937007874016
        },
        {
          "duration": 0.2962959999999981,
          "durationTicks": 128,
          "midi": 68,
          "name": "G#4",
          "ticks": 29952,
          "time": 69.549768,
          "velocity": 0.8503937007874016
        },
        {
          "duration": 0.2962959999999981,
          "durationTicks": 128,
          "midi": 72,
          "name": "C5",
          "ticks": 29952,
          "time": 69.549768,
          "velocity": 0.8503937007874016
        },
        {
          "duration": 0.2962959999999981,
          "durationTicks": 128,
          "midi": 75,
          "name": "D#5",
          "ticks": 29952,
          "time": 69.549768,
          "velocity": 0.8503937007874016
        },
        {
          "duration": 0.14814800000000616,
          "durationTicks": 64,
          "midi": 68,
          "name": "G#4",
          "ticks": 30080,
          "time": 69.846064,
          "velocity": 0.8503937007874016
        },
        {
          "duration": 0.14814800000000616,
          "durationTicks": 64,
          "midi": 72,
          "name": "C5",
          "ticks": 30080,
          "time": 69.846064,
          "velocity": 0.8503937007874016
        },
        {
          "duration": 0.14814800000000616,
          "durationTicks": 64,
          "midi": 74,
          "name": "D5",
          "ticks": 30080,
          "time": 69.846064,
          "velocity": 0.8503937007874016
        },
        {
          "duration": 0.14814800000000616,
          "durationTicks": 64,
          "midi": 75,
          "name": "D#5",
          "ticks": 30080,
          "time": 69.846064,
          "velocity": 0.8503937007874016
        },
        {
          "duration": 0.2962959999999981,
          "durationTicks": 128,
          "midi": 68,
          "name": "G#4",
          "ticks": 30144,
          "time": 69.994212,
          "velocity": 0.8503937007874016
        },
        {
          "duration": 0.2962959999999981,
          "durationTicks": 128,
          "midi": 72,
          "name": "C5",
          "ticks": 30144,
          "time": 69.994212,
          "velocity": 0.8503937007874016
        },
        {
          "duration": 0.2962959999999981,
          "durationTicks": 128,
          "midi": 75,
          "name": "D#5",
          "ticks": 30144,
          "time": 69.994212,
          "velocity": 0.8503937007874016
        },
        {
          "duration": 0.14814799999999195,
          "durationTicks": 64,
          "midi": 68,
          "name": "G#4",
          "ticks": 30272,
          "time": 70.290508,
          "velocity": 0.8503937007874016
        },
        {
          "duration": 0.14814799999999195,
          "durationTicks": 64,
          "midi": 72,
          "name": "C5",
          "ticks": 30272,
          "time": 70.290508,
          "velocity": 0.8503937007874016
        },
        {
          "duration": 0.14814799999999195,
          "durationTicks": 64,
          "midi": 75,
          "name": "D#5",
          "ticks": 30272,
          "time": 70.290508,
          "velocity": 0.8503937007874016
        },
        {
          "duration": 0.2962959999999981,
          "durationTicks": 128,
          "midi": 68,
          "name": "G#4",
          "ticks": 30528,
          "time": 70.8831,
          "velocity": 0.8503937007874016
        },
        {
          "duration": 0.2962959999999981,
          "durationTicks": 128,
          "midi": 72,
          "name": "C5",
          "ticks": 30528,
          "time": 70.8831,
          "velocity": 0.8503937007874016
        },
        {
          "duration": 0.2962959999999981,
          "durationTicks": 128,
          "midi": 75,
          "name": "D#5",
          "ticks": 30528,
          "time": 70.8831,
          "velocity": 0.8503937007874016
        },
        {
          "duration": 0.14814800000000616,
          "durationTicks": 64,
          "midi": 68,
          "name": "G#4",
          "ticks": 30656,
          "time": 71.179396,
          "velocity": 0.8503937007874016
        },
        {
          "duration": 0.14814800000000616,
          "durationTicks": 64,
          "midi": 72,
          "name": "C5",
          "ticks": 30656,
          "time": 71.179396,
          "velocity": 0.8503937007874016
        },
        {
          "duration": 0.14814800000000616,
          "durationTicks": 64,
          "midi": 77,
          "name": "F5",
          "ticks": 30656,
          "time": 71.179396,
          "velocity": 0.8503937007874016
        },
        {
          "duration": 0.29197066666667126,
          "durationTicks": 128,
          "midi": 72,
          "name": "C5",
          "ticks": 30720,
          "time": 71.327544,
          "velocity": 0.8503937007874016
        },
        {
          "duration": 0.29197066666667126,
          "durationTicks": 128,
          "midi": 75,
          "name": "D#5",
          "ticks": 30720,
          "time": 71.327544,
          "velocity": 0.8503937007874016
        },
        {
          "duration": 0.29197066666667126,
          "durationTicks": 128,
          "midi": 79,
          "name": "G5",
          "ticks": 30720,
          "time": 71.327544,
          "velocity": 0.8503937007874016
        },
        {
          "duration": 0.14598533333332853,
          "durationTicks": 64,
          "midi": 72,
          "name": "C5",
          "ticks": 30848,
          "time": 71.61951466666667,
          "velocity": 0.8503937007874016
        },
        {
          "duration": 0.14598533333332853,
          "durationTicks": 64,
          "midi": 75,
          "name": "D#5",
          "ticks": 30848,
          "time": 71.61951466666667,
          "velocity": 0.8503937007874016
        },
        {
          "duration": 0.14598533333332853,
          "durationTicks": 64,
          "midi": 77,
          "name": "F5",
          "ticks": 30848,
          "time": 71.61951466666667,
          "velocity": 0.8503937007874016
        },
        {
          "duration": 0.29197066666667126,
          "durationTicks": 128,
          "midi": 72,
          "name": "C5",
          "ticks": 30912,
          "time": 71.7655,
          "velocity": 0.8503937007874016
        },
        {
          "duration": 0.29197066666667126,
          "durationTicks": 128,
          "midi": 75,
          "name": "D#5",
          "ticks": 30912,
          "time": 71.7655,
          "velocity": 0.8503937007874016
        },
        {
          "duration": 0.29197066666667126,
          "durationTicks": 128,
          "midi": 79,
          "name": "G5",
          "ticks": 30912,
          "time": 71.7655,
          "velocity": 0.8503937007874016
        },
        {
          "duration": 0.14598533333332853,
          "durationTicks": 64,
          "midi": 72,
          "name": "C5",
          "ticks": 31040,
          "time": 72.05747066666667,
          "velocity": 0.8503937007874016
        },
        {
          "duration": 0.14598533333332853,
          "durationTicks": 64,
          "midi": 75,
          "name": "D#5",
          "ticks": 31040,
          "time": 72.05747066666667,
          "velocity": 0.8503937007874016
        },
        {
          "duration": 0.3649633333333355,
          "durationTicks": 160,
          "midi": 79,
          "name": "G5",
          "ticks": 31040,
          "time": 72.05747066666667,
          "velocity": 0.8503937007874016
        },
        {
          "duration": 0.29197066666667126,
          "durationTicks": 128,
          "midi": 72,
          "name": "C5",
          "ticks": 31296,
          "time": 72.641412,
          "velocity": 0.8503937007874016
        },
        {
          "duration": 0.29197066666667126,
          "durationTicks": 128,
          "midi": 75,
          "name": "D#5",
          "ticks": 31296,
          "time": 72.641412,
          "velocity": 0.8503937007874016
        },
        {
          "duration": 0.29197066666667126,
          "durationTicks": 128,
          "midi": 77,
          "name": "F5",
          "ticks": 31296,
          "time": 72.641412,
          "velocity": 0.8503937007874016
        },
        {
          "duration": 0.29197066666667126,
          "durationTicks": 128,
          "midi": 79,
          "name": "G5",
          "ticks": 31296,
          "time": 72.641412,
          "velocity": 0.8503937007874016
        },
        {
          "duration": 0.14598533333332853,
          "durationTicks": 64,
          "midi": 72,
          "name": "C5",
          "ticks": 31424,
          "time": 72.93338266666667,
          "velocity": 0.8503937007874016
        },
        {
          "duration": 0.14598533333332853,
          "durationTicks": 64,
          "midi": 75,
          "name": "D#5",
          "ticks": 31424,
          "time": 72.93338266666667,
          "velocity": 0.8503937007874016
        },
        {
          "duration": 0.14598533333332853,
          "durationTicks": 64,
          "midi": 79,
          "name": "G5",
          "ticks": 31424,
          "time": 72.93338266666667,
          "velocity": 0.8503937007874016
        },
        {
          "duration": 0.29197066666667126,
          "durationTicks": 128,
          "midi": 68,
          "name": "G#4",
          "ticks": 31488,
          "time": 73.079368,
          "velocity": 0.8503937007874016
        },
        {
          "duration": 0.29197066666667126,
          "durationTicks": 128,
          "midi": 72,
          "name": "C5",
          "ticks": 31488,
          "time": 73.079368,
          "velocity": 0.8503937007874016
        },
        {
          "duration": 0.29197066666667126,
          "durationTicks": 128,
          "midi": 77,
          "name": "F5",
          "ticks": 31488,
          "time": 73.079368,
          "velocity": 0.8503937007874016
        },
        {
          "duration": 0.29197066666667126,
          "durationTicks": 128,
          "midi": 80,
          "name": "G#5",
          "ticks": 31488,
          "time": 73.079368,
          "velocity": 0.8503937007874016
        },
        {
          "duration": 0.14598533333332853,
          "durationTicks": 64,
          "midi": 68,
          "name": "G#4",
          "ticks": 31616,
          "time": 73.37133866666667,
          "velocity": 0.8503937007874016
        },
        {
          "duration": 0.14598533333332853,
          "durationTicks": 64,
          "midi": 72,
          "name": "C5",
          "ticks": 31616,
          "time": 73.37133866666667,
          "velocity": 0.8503937007874016
        },
        {
          "duration": 0.14598533333332853,
          "durationTicks": 64,
          "midi": 77,
          "name": "F5",
          "ticks": 31616,
          "time": 73.37133866666667,
          "velocity": 0.8503937007874016
        },
        {
          "duration": 0.14598533333332853,
          "durationTicks": 64,
          "midi": 79,
          "name": "G5",
          "ticks": 31616,
          "time": 73.37133866666667,
          "velocity": 0.8503937007874016
        },
        {
          "duration": 0.29197066666667126,
          "durationTicks": 128,
          "midi": 68,
          "name": "G#4",
          "ticks": 31680,
          "time": 73.517324,
          "velocity": 0.8503937007874016
        },
        {
          "duration": 0.29197066666667126,
          "durationTicks": 128,
          "midi": 72,
          "name": "C5",
          "ticks": 31680,
          "time": 73.517324,
          "velocity": 0.8503937007874016
        },
        {
          "duration": 0.29197066666667126,
          "durationTicks": 128,
          "midi": 77,
          "name": "F5",
          "ticks": 31680,
          "time": 73.517324,
          "velocity": 0.8503937007874016
        },
        {
          "duration": 0.29197066666667126,
          "durationTicks": 128,
          "midi": 80,
          "name": "G#5",
          "ticks": 31680,
          "time": 73.517324,
          "velocity": 0.8503937007874016
        },
        {
          "duration": 0.4379559999999998,
          "durationTicks": 192,
          "midi": 71,
          "name": "B4",
          "ticks": 31808,
          "time": 73.80929466666667,
          "velocity": 0.8503937007874016
        },
        {
          "duration": 0.4379559999999998,
          "durationTicks": 192,
          "midi": 74,
          "name": "D5",
          "ticks": 31808,
          "time": 73.80929466666667,
          "velocity": 0.8503937007874016
        },
        {
          "duration": 0.4379559999999998,
          "durationTicks": 192,
          "midi": 79,
          "name": "G5",
          "ticks": 31808,
          "time": 73.80929466666667,
          "velocity": 0.8503937007874016
        },
        {
          "duration": 0.14598533333332853,
          "durationTicks": 64,
          "midi": 71,
          "name": "B4",
          "ticks": 32000,
          "time": 74.24725066666667,
          "velocity": 0.8503937007874016
        },
        {
          "duration": 0.14598533333332853,
          "durationTicks": 64,
          "midi": 74,
          "name": "D5",
          "ticks": 32000,
          "time": 74.24725066666667,
          "velocity": 0.8503937007874016
        },
        {
          "duration": 0.14598533333332853,
          "durationTicks": 64,
          "midi": 77,
          "name": "F5",
          "ticks": 32000,
          "time": 74.24725066666667,
          "velocity": 0.8503937007874016
        },
        {
          "duration": 0.14598533333332853,
          "durationTicks": 64,
          "midi": 80,
          "name": "G#5",
          "ticks": 32000,
          "time": 74.24725066666667,
          "velocity": 0.8503937007874016
        },
        {
          "duration": 0.14598533333332853,
          "durationTicks": 64,
          "midi": 71,
          "name": "B4",
          "ticks": 32064,
          "time": 74.393236,
          "velocity": 0.8503937007874016
        },
        {
          "duration": 0.14598533333332853,
          "durationTicks": 64,
          "midi": 74,
          "name": "D5",
          "ticks": 32064,
          "time": 74.393236,
          "velocity": 0.8503937007874016
        },
        {
          "duration": 0.14598533333332853,
          "durationTicks": 64,
          "midi": 77,
          "name": "F5",
          "ticks": 32064,
          "time": 74.393236,
          "velocity": 0.8503937007874016
        },
        {
          "duration": 0.14598533333332853,
          "durationTicks": 64,
          "midi": 79,
          "name": "G5",
          "ticks": 32064,
          "time": 74.393236,
          "velocity": 0.8503937007874016
        },
        {
          "duration": 0.8108100000000036,
          "durationTicks": 384,
          "midi": 72,
          "name": "C5",
          "ticks": 32256,
          "time": 74.831192,
          "velocity": 0.8503937007874016
        },
        {
          "duration": 0.8108100000000036,
          "durationTicks": 384,
          "midi": 75,
          "name": "D#5",
          "ticks": 32256,
          "time": 74.831192,
          "velocity": 0.8503937007874016
        },
        {
          "duration": 0.8108100000000036,
          "durationTicks": 384,
          "midi": 79,
          "name": "G5",
          "ticks": 32256,
          "time": 74.831192,
          "velocity": 0.8503937007874016
        },
        {
          "duration": 0.8108100000000036,
          "durationTicks": 384,
          "midi": 84,
          "name": "C6",
          "ticks": 32256,
          "time": 74.831192,
          "velocity": 0.8503937007874016
        },
        {
          "duration": 0.05067562499999667,
          "durationTicks": 24,
          "midi": 84,
          "name": "C6",
          "ticks": 32640,
          "time": 75.642002,
          "velocity": 0.8503937007874016
        },
        {
          "duration": 0.05067562499999667,
          "durationTicks": 24,
          "midi": 82,
          "name": "A#5",
          "ticks": 32664,
          "time": 75.692677625,
          "velocity": 0.8503937007874016
        },
        {
          "duration": 0.05067562499999667,
          "durationTicks": 24,
          "midi": 80,
          "name": "G#5",
          "ticks": 32688,
          "time": 75.74335325,
          "velocity": 0.8503937007874016
        },
        {
          "duration": 0.6587831249999994,
          "durationTicks": 312,
          "midi": 79,
          "name": "G5",
          "ticks": 32712,
          "time": 75.794028875,
          "velocity": 0.8503937007874016
        },
        {
          "duration": 0.053571375000004195,
          "durationTicks": 24,
          "midi": 79,
          "name": "G5",
          "ticks": 33024,
          "time": 76.452812,
          "velocity": 0.8503937007874016
        },
        {
          "duration": 0.053571374999989985,
          "durationTicks": 24,
          "midi": 77,
          "name": "F5",
          "ticks": 33048,
          "time": 76.506383375,
          "velocity": 0.8503937007874016
        },
        {
          "duration": 0.053571375000004195,
          "durationTicks": 24,
          "midi": 75,
          "name": "D#5",
          "ticks": 33072,
          "time": 76.55995474999999,
          "velocity": 0.8503937007874016
        },
        {
          "duration": 0.053571375000004195,
          "durationTicks": 24,
          "midi": 74,
          "name": "D5",
          "ticks": 33096,
          "time": 76.61352612499999,
          "velocity": 0.8503937007874016
        },
        {
          "duration": 0.6428564999999935,
          "durationTicks": 288,
          "midi": 72,
          "name": "C5",
          "ticks": 33120,
          "time": 76.6670975,
          "velocity": 0.8503937007874016
        },
        {
          "duration": 0.05597012500000176,
          "durationTicks": 24,
          "midi": 72,
          "name": "C5",
          "ticks": 33432,
          "time": 77.36592412499999,
          "velocity": 0.8503937007874016
        },
        {
          "duration": 0.05597012500000176,
          "durationTicks": 24,
          "midi": 70,
          "name": "A#4",
          "ticks": 33456,
          "time": 77.42189425,
          "velocity": 0.8503937007874016
        },
        {
          "duration": 0.05597012500000176,
          "durationTicks": 24,
          "midi": 68,
          "name": "G#4",
          "ticks": 33480,
          "time": 77.477864375,
          "velocity": 0.8503937007874016
        },
        {
          "duration": 0.6716414999999927,
          "durationTicks": 288,
          "midi": 67,
          "name": "G4",
          "ticks": 33504,
          "time": 77.5338345,
          "velocity": 0.8503937007874016
        },
        {
          "duration": 0.05597012500000176,
          "durationTicks": 24,
          "midi": 67,
          "name": "G4",
          "ticks": 33792,
          "time": 78.20547599999999,
          "velocity": 0.8503937007874016
        },
        {
          "duration": 0.05597012500000176,
          "durationTicks": 24,
          "midi": 65,
          "name": "F4",
          "ticks": 33816,
          "time": 78.26144612499999,
          "velocity": 0.8503937007874016
        },
        {
          "duration": 0.05597012500000176,
          "durationTicks": 24,
          "midi": 63,
          "name": "D#4",
          "ticks": 33840,
          "time": 78.31741625,
          "velocity": 0.8503937007874016
        },
        {
          "duration": 0.05597012500000176,
          "durationTicks": 24,
          "midi": 62,
          "name": "D4",
          "ticks": 33864,
          "time": 78.373386375,
          "velocity": 0.8503937007874016
        },
        {
          "duration": 0.6716414999999927,
          "durationTicks": 288,
          "midi": 60,
          "name": "C4",
          "ticks": 33888,
          "time": 78.4293565,
          "velocity": 0.8503937007874016
        },
        {
          "duration": 0.03409087500000396,
          "durationTicks": 12,
          "midi": 67,
          "name": "G4",
          "ticks": 34176,
          "time": 79.10099799999999,
          "velocity": 0.8503937007874016
        },
        {
          "duration": 0.03409087499998975,
          "durationTicks": 12,
          "midi": 68,
          "name": "G#4",
          "ticks": 34188,
          "time": 79.135088875,
          "velocity": 0.8503937007874016
        },
        {
          "duration": 0.03409087500000396,
          "durationTicks": 12,
          "midi": 70,
          "name": "A#4",
          "ticks": 34200,
          "time": 79.16917974999998,
          "velocity": 0.8503937007874016
        },
        {
          "duration": 0.03409087500000396,
          "durationTicks": 12,
          "midi": 72,
          "name": "C5",
          "ticks": 34212,
          "time": 79.20327062499999,
          "velocity": 0.8503937007874016
        },
        {
          "duration": 0.03409087500000396,
          "durationTicks": 12,
          "midi": 74,
          "name": "D5",
          "ticks": 34224,
          "time": 79.23736149999999,
          "velocity": 0.8503937007874016
        },
        {
          "duration": 0.03409087499998975,
          "durationTicks": 12,
          "midi": 75,
          "name": "D#5",
          "ticks": 34236,
          "time": 79.271452375,
          "velocity": 0.8503937007874016
        },
        {
          "duration": 0.03409087500000396,
          "durationTicks": 12,
          "midi": 77,
          "name": "F5",
          "ticks": 34248,
          "time": 79.30554324999999,
          "velocity": 0.8503937007874016
        },
        {
          "duration": 0.3011360625000066,
          "durationTicks": 106,
          "midi": 79,
          "name": "G5",
          "ticks": 34260,
          "time": 79.33963412499999,
          "velocity": 0.8503937007874016
        },
        {
          "duration": 0.03409087500000396,
          "durationTicks": 12,
          "midi": 79,
          "name": "G5",
          "ticks": 34560,
          "time": 80.19190599999999,
          "velocity": 0.8503937007874016
        },
        {
          "duration": 0.03409087500000396,
          "durationTicks": 12,
          "midi": 80,
          "name": "G#5",
          "ticks": 34572,
          "time": 80.22599687499999,
          "velocity": 0.8503937007874016
        },
        {
          "duration": 0.03409087499998975,
          "durationTicks": 12,
          "midi": 82,
          "name": "A#5",
          "ticks": 34584,
          "time": 80.26008775,
          "velocity": 0.8503937007874016
        },
        {
          "duration": 0.48863587499999994,
          "durationTicks": 172,
          "midi": 84,
          "name": "C6",
          "ticks": 34596,
          "time": 80.29417862499999,
          "velocity": 0.8503937007874016
        }
      ]
    },
    {
      "channel": 0,
      "controlChanges": {
        "7": [
          {
            "number": 7,
            "ticks": 0,
            "time": 0,
            "value": 1
          }
        ],
        "10": [
          {
            "number": 10,
            "ticks": 0,
            "time": 0,
            "value": 0.5039370078740157
          }
        ]
      },
      "pitchBends": [],
      "instrument": {
        "family": "piano",
        "name": "acoustic grand piano",
        "number": 0
      },
      "name": "Staff-5",
      "notes": []
    },
    {
      "channel": 4,
      "controlChanges": {
        "64": [
          {
            "number": 64,
            "ticks": 5376,
            "time": 11.35134,
            "value": 1
          },
          {
            "number": 64,
            "ticks": 6144,
            "time": 12.97296,
            "value": 0
          },
          {
            "number": 64,
            "ticks": 16896,
            "time": 38.052076,
            "value": 1
          },
          {
            "number": 64,
            "ticks": 17664,
            "time": 40.019288,
            "value": 0
          }
        ]
      },
      "pitchBends": [],
      "instrument": {
        "family": "piano",
        "name": "bright acoustic piano",
        "number": 1
      },
      "name": "",
      "notes": [
        {
          "duration": 0.27027,
          "durationTicks": 128,
          "midi": 55,
          "name": "G3",
          "ticks": 192,
          "time": 0.405405,
          "velocity": 0.5905511811023622
        },
        {
          "duration": 0.27027,
          "durationTicks": 128,
          "midi": 60,
          "name": "C4",
          "ticks": 192,
          "time": 0.405405,
          "velocity": 0.5905511811023622
        },
        {
          "duration": 0.27027,
          "durationTicks": 128,
          "midi": 63,
          "name": "D#4",
          "ticks": 192,
          "time": 0.405405,
          "velocity": 0.5905511811023622
        },
        {
          "duration": 0.27027,
          "durationTicks": 128,
          "midi": 67,
          "name": "G4",
          "ticks": 192,
          "time": 0.405405,
          "velocity": 0.5905511811023622
        },
        {
          "duration": 0.135135,
          "durationTicks": 64,
          "midi": 55,
          "name": "G3",
          "ticks": 320,
          "time": 0.675675,
          "velocity": 0.5905511811023622
        },
        {
          "duration": 0.135135,
          "durationTicks": 64,
          "midi": 60,
          "name": "C4",
          "ticks": 320,
          "time": 0.675675,
          "velocity": 0.5905511811023622
        },
        {
          "duration": 0.135135,
          "durationTicks": 64,
          "midi": 63,
          "name": "D#4",
          "ticks": 320,
          "time": 0.675675,
          "velocity": 0.5905511811023622
        },
        {
          "duration": 0.135135,
          "durationTicks": 64,
          "midi": 67,
          "name": "G4",
          "ticks": 320,
          "time": 0.675675,
          "velocity": 0.5905511811023622
        },
        {
          "duration": 0.27027,
          "durationTicks": 128,
          "midi": 55,
          "name": "G3",
          "ticks": 576,
          "time": 1.216215,
          "velocity": 0.5905511811023622
        },
        {
          "duration": 0.27027,
          "durationTicks": 128,
          "midi": 60,
          "name": "C4",
          "ticks": 576,
          "time": 1.216215,
          "velocity": 0.5905511811023622
        },
        {
          "duration": 0.27027,
          "durationTicks": 128,
          "midi": 63,
          "name": "D#4",
          "ticks": 576,
          "time": 1.216215,
          "velocity": 0.5905511811023622
        },
        {
          "duration": 0.135135,
          "durationTicks": 64,
          "midi": 55,
          "name": "G3",
          "ticks": 704,
          "time": 1.486485,
          "velocity": 0.5905511811023622
        },
        {
          "duration": 0.135135,
          "durationTicks": 64,
          "midi": 60,
          "name": "C4",
          "ticks": 704,
          "time": 1.486485,
          "velocity": 0.5905511811023622
        },
        {
          "duration": 0.135135,
          "durationTicks": 64,
          "midi": 63,
          "name": "D#4",
          "ticks": 704,
          "time": 1.486485,
          "velocity": 0.5905511811023622
        },
        {
          "duration": 0.27027,
          "durationTicks": 128,
          "midi": 54,
          "name": "F#3",
          "ticks": 960,
          "time": 2.027025,
          "velocity": 0.5905511811023622
        },
        {
          "duration": 0.27027,
          "durationTicks": 128,
          "midi": 57,
          "name": "A3",
          "ticks": 960,
          "time": 2.027025,
          "velocity": 0.5905511811023622
        },
        {
          "duration": 0.27027,
          "durationTicks": 128,
          "midi": 60,
          "name": "C4",
          "ticks": 960,
          "time": 2.027025,
          "velocity": 0.5905511811023622
        },
        {
          "duration": 0.27027,
          "durationTicks": 128,
          "midi": 62,
          "name": "D4",
          "ticks": 960,
          "time": 2.027025,
          "velocity": 0.5905511811023622
        },
        {
          "duration": 0.135135,
          "durationTicks": 64,
          "midi": 54,
          "name": "F#3",
          "ticks": 1088,
          "time": 2.297295,
          "velocity": 0.5905511811023622
        },
        {
          "duration": 0.135135,
          "durationTicks": 64,
          "midi": 57,
          "name": "A3",
          "ticks": 1088,
          "time": 2.297295,
          "velocity": 0.5905511811023622
        },
        {
          "duration": 0.135135,
          "durationTicks": 64,
          "midi": 60,
          "name": "C4",
          "ticks": 1088,
          "time": 2.297295,
          "velocity": 0.5905511811023622
        },
        {
          "duration": 0.135135,
          "durationTicks": 64,
          "midi": 62,
          "name": "D4",
          "ticks": 1088,
          "time": 2.297295,
          "velocity": 0.5905511811023622
        },
        {
          "duration": 0.27027,
          "durationTicks": 128,
          "midi": 54,
          "name": "F#3",
          "ticks": 1344,
          "time": 2.837835,
          "velocity": 0.5905511811023622
        },
        {
          "duration": 0.27027,
          "durationTicks": 128,
          "midi": 57,
          "name": "A3",
          "ticks": 1344,
          "time": 2.837835,
          "velocity": 0.5905511811023622
        },
        {
          "duration": 0.27027,
          "durationTicks": 128,
          "midi": 60,
          "name": "C4",
          "ticks": 1344,
          "time": 2.837835,
          "velocity": 0.5905511811023622
        },
        {
          "duration": 0.27027,
          "durationTicks": 128,
          "midi": 62,
          "name": "D4",
          "ticks": 1344,
          "time": 2.837835,
          "velocity": 0.5905511811023622
        },
        {
          "duration": 0.135135,
          "durationTicks": 64,
          "midi": 54,
          "name": "F#3",
          "ticks": 1472,
          "time": 3.108105,
          "velocity": 0.5905511811023622
        },
        {
          "duration": 0.135135,
          "durationTicks": 64,
          "midi": 57,
          "name": "A3",
          "ticks": 1472,
          "time": 3.108105,
          "velocity": 0.5905511811023622
        },
        {
          "duration": 0.135135,
          "durationTicks": 64,
          "midi": 60,
          "name": "C4",
          "ticks": 1472,
          "time": 3.108105,
          "velocity": 0.5905511811023622
        },
        {
          "duration": 0.135135,
          "durationTicks": 64,
          "midi": 62,
          "name": "D4",
          "ticks": 1472,
          "time": 3.108105,
          "velocity": 0.5905511811023622
        },
        {
          "duration": 0.27026999999999957,
          "durationTicks": 128,
          "midi": 55,
          "name": "G3",
          "ticks": 1728,
          "time": 3.648645,
          "velocity": 0.5905511811023622
        },
        {
          "duration": 0.27026999999999957,
          "durationTicks": 128,
          "midi": 59,
          "name": "B3",
          "ticks": 1728,
          "time": 3.648645,
          "velocity": 0.5905511811023622
        },
        {
          "duration": 0.27026999999999957,
          "durationTicks": 128,
          "midi": 62,
          "name": "D4",
          "ticks": 1728,
          "time": 3.648645,
          "velocity": 0.5905511811023622
        },
        {
          "duration": 0.27026999999999957,
          "durationTicks": 128,
          "midi": 65,
          "name": "F4",
          "ticks": 1728,
          "time": 3.648645,
          "velocity": 0.5905511811023622
        },
        {
          "duration": 0.13513500000000045,
          "durationTicks": 64,
          "midi": 55,
          "name": "G3",
          "ticks": 1856,
          "time": 3.9189149999999997,
          "velocity": 0.5905511811023622
        },
        {
          "duration": 0.13513500000000045,
          "durationTicks": 64,
          "midi": 59,
          "name": "B3",
          "ticks": 1856,
          "time": 3.9189149999999997,
          "velocity": 0.5905511811023622
        },
        {
          "duration": 0.13513500000000045,
          "durationTicks": 64,
          "midi": 62,
          "name": "D4",
          "ticks": 1856,
          "time": 3.9189149999999997,
          "velocity": 0.5905511811023622
        },
        {
          "duration": 0.13513500000000045,
          "durationTicks": 64,
          "midi": 65,
          "name": "F4",
          "ticks": 1856,
          "time": 3.9189149999999997,
          "velocity": 0.5905511811023622
        },
        {
          "duration": 0.27027,
          "durationTicks": 128,
          "midi": 53,
          "name": "F3",
          "ticks": 2112,
          "time": 4.459455,
          "velocity": 0.5905511811023622
        },
        {
          "duration": 0.27027,
          "durationTicks": 128,
          "midi": 55,
          "name": "G3",
          "ticks": 2112,
          "time": 4.459455,
          "velocity": 0.5905511811023622
        },
        {
          "duration": 0.27027,
          "durationTicks": 128,
          "midi": 59,
          "name": "B3",
          "ticks": 2112,
          "time": 4.459455,
          "velocity": 0.5905511811023622
        },
        {
          "duration": 0.27027,
          "durationTicks": 128,
          "midi": 62,
          "name": "D4",
          "ticks": 2112,
          "time": 4.459455,
          "velocity": 0.5905511811023622
        },
        {
          "duration": 0.135135,
          "durationTicks": 64,
          "midi": 53,
          "name": "F3",
          "ticks": 2240,
          "time": 4.729725,
          "velocity": 0.5905511811023622
        },
        {
          "duration": 0.135135,
          "durationTicks": 64,
          "midi": 55,
          "name": "G3",
          "ticks": 2240,
          "time": 4.729725,
          "velocity": 0.5905511811023622
        },
        {
          "duration": 0.135135,
          "durationTicks": 64,
          "midi": 59,
          "name": "B3",
          "ticks": 2240,
          "time": 4.729725,
          "velocity": 0.5905511811023622
        },
        {
          "duration": 0.135135,
          "durationTicks": 64,
          "midi": 62,
          "name": "D4",
          "ticks": 2240,
          "time": 4.729725,
          "velocity": 0.5905511811023622
        },
        {
          "duration": 0.27027,
          "durationTicks": 128,
          "midi": 51,
          "name": "D#3",
          "ticks": 2496,
          "time": 5.270265,
          "velocity": 0.5905511811023622
        },
        {
          "duration": 0.27027,
          "durationTicks": 128,
          "midi": 55,
          "name": "G3",
          "ticks": 2496,
          "time": 5.270265,
          "velocity": 0.5905511811023622
        },
        {
          "duration": 0.27027,
          "durationTicks": 128,
          "midi": 60,
          "name": "C4",
          "ticks": 2496,
          "time": 5.270265,
          "velocity": 0.5905511811023622
        },
        {
          "duration": 0.135135,
          "durationTicks": 64,
          "midi": 51,
          "name": "D#3",
          "ticks": 2624,
          "time": 5.540535,
          "velocity": 0.5905511811023622
        },
        {
          "duration": 0.135135,
          "durationTicks": 64,
          "midi": 55,
          "name": "G3",
          "ticks": 2624,
          "time": 5.540535,
          "velocity": 0.5905511811023622
        },
        {
          "duration": 0.135135,
          "durationTicks": 64,
          "midi": 60,
          "name": "C4",
          "ticks": 2624,
          "time": 5.540535,
          "velocity": 0.5905511811023622
        },
        {
          "duration": 0.27027,
          "durationTicks": 128,
          "midi": 51,
          "name": "D#3",
          "ticks": 2880,
          "time": 6.081075,
          "velocity": 0.5905511811023622
        },
        {
          "duration": 0.27027,
          "durationTicks": 128,
          "midi": 55,
          "name": "G3",
          "ticks": 2880,
          "time": 6.081075,
          "velocity": 0.5905511811023622
        },
        {
          "duration": 0.27027,
          "durationTicks": 128,
          "midi": 60,
          "name": "C4",
          "ticks": 2880,
          "time": 6.081075,
          "velocity": 0.5905511811023622
        },
        {
          "duration": 0.135135,
          "durationTicks": 64,
          "midi": 51,
          "name": "D#3",
          "ticks": 3008,
          "time": 6.351345,
          "velocity": 0.5905511811023622
        },
        {
          "duration": 0.135135,
          "durationTicks": 64,
          "midi": 55,
          "name": "G3",
          "ticks": 3008,
          "time": 6.351345,
          "velocity": 0.5905511811023622
        },
        {
          "duration": 0.135135,
          "durationTicks": 64,
          "midi": 60,
          "name": "C4",
          "ticks": 3008,
          "time": 6.351345,
          "velocity": 0.5905511811023622
        },
        {
          "duration": 0.2702700000000009,
          "durationTicks": 128,
          "midi": 53,
          "name": "F3",
          "ticks": 3264,
          "time": 6.891885,
          "velocity": 0.5905511811023622
        },
        {
          "duration": 0.2702700000000009,
          "durationTicks": 128,
          "midi": 56,
          "name": "G#3",
          "ticks": 3264,
          "time": 6.891885,
          "velocity": 0.5905511811023622
        },
        {
          "duration": 0.2702700000000009,
          "durationTicks": 128,
          "midi": 60,
          "name": "C4",
          "ticks": 3264,
          "time": 6.891885,
          "velocity": 0.5905511811023622
        },
        {
          "duration": 0.13513499999999912,
          "durationTicks": 64,
          "midi": 53,
          "name": "F3",
          "ticks": 3392,
          "time": 7.162155000000001,
          "velocity": 0.5905511811023622
        },
        {
          "duration": 0.13513499999999912,
          "durationTicks": 64,
          "midi": 56,
          "name": "G#3",
          "ticks": 3392,
          "time": 7.162155000000001,
          "velocity": 0.5905511811023622
        },
        {
          "duration": 0.13513499999999912,
          "durationTicks": 64,
          "midi": 60,
          "name": "C4",
          "ticks": 3392,
          "time": 7.162155000000001,
          "velocity": 0.5905511811023622
        },
        {
          "duration": 0.2702700000000009,
          "durationTicks": 128,
          "midi": 53,
          "name": "F3",
          "ticks": 3648,
          "time": 7.702695,
          "velocity": 0.5905511811023622
        },
        {
          "duration": 0.2702700000000009,
          "durationTicks": 128,
          "midi": 56,
          "name": "G#3",
          "ticks": 3648,
          "time": 7.702695,
          "velocity": 0.5905511811023622
        },
        {
          "duration": 0.2702700000000009,
          "durationTicks": 128,
          "midi": 60,
          "name": "C4",
          "ticks": 3648,
          "time": 7.702695,
          "velocity": 0.5905511811023622
        },
        {
          "duration": 0.13513499999999912,
          "durationTicks": 64,
          "midi": 53,
          "name": "F3",
          "ticks": 3776,
          "time": 7.972965000000001,
          "velocity": 0.5905511811023622
        },
        {
          "duration": 0.13513499999999912,
          "durationTicks": 64,
          "midi": 56,
          "name": "G#3",
          "ticks": 3776,
          "time": 7.972965000000001,
          "velocity": 0.5905511811023622
        },
        {
          "duration": 0.13513499999999912,
          "durationTicks": 64,
          "midi": 60,
          "name": "C4",
          "ticks": 3776,
          "time": 7.972965000000001,
          "velocity": 0.5905511811023622
        },
        {
          "duration": 0.27027,
          "durationTicks": 128,
          "midi": 55,
          "name": "G3",
          "ticks": 4032,
          "time": 8.513505,
          "velocity": 0.5905511811023622
        },
        {
          "duration": 0.27027,
          "durationTicks": 128,
          "midi": 60,
          "name": "C4",
          "ticks": 4032,
          "time": 8.513505,
          "velocity": 0.5905511811023622
        },
        {
          "duration": 0.27027,
          "durationTicks": 128,
          "midi": 63,
          "name": "D#4",
          "ticks": 4032,
          "time": 8.513505,
          "velocity": 0.5905511811023622
        },
        {
          "duration": 0.135135,
          "durationTicks": 64,
          "midi": 55,
          "name": "G3",
          "ticks": 4160,
          "time": 8.783775,
          "velocity": 0.5905511811023622
        },
        {
          "duration": 0.135135,
          "durationTicks": 64,
          "midi": 60,
          "name": "C4",
          "ticks": 4160,
          "time": 8.783775,
          "velocity": 0.5905511811023622
        },
        {
          "duration": 0.135135,
          "durationTicks": 64,
          "midi": 63,
          "name": "D#4",
          "ticks": 4160,
          "time": 8.783775,
          "velocity": 0.5905511811023622
        },
        {
          "duration": 0.27027,
          "durationTicks": 128,
          "midi": 55,
          "name": "G3",
          "ticks": 4416,
          "time": 9.324315,
          "velocity": 0.5905511811023622
        },
        {
          "duration": 0.27027,
          "durationTicks": 128,
          "midi": 60,
          "name": "C4",
          "ticks": 4416,
          "time": 9.324315,
          "velocity": 0.5905511811023622
        },
        {
          "duration": 0.27027,
          "durationTicks": 128,
          "midi": 63,
          "name": "D#4",
          "ticks": 4416,
          "time": 9.324315,
          "velocity": 0.5905511811023622
        },
        {
          "duration": 0.27027,
          "durationTicks": 128,
          "midi": 67,
          "name": "G4",
          "ticks": 4416,
          "time": 9.324315,
          "velocity": 0.5905511811023622
        },
        {
          "duration": 0.135135,
          "durationTicks": 64,
          "midi": 55,
          "name": "G3",
          "ticks": 4544,
          "time": 9.594585,
          "velocity": 0.5905511811023622
        },
        {
          "duration": 0.135135,
          "durationTicks": 64,
          "midi": 60,
          "name": "C4",
          "ticks": 4544,
          "time": 9.594585,
          "velocity": 0.5905511811023622
        },
        {
          "duration": 0.135135,
          "durationTicks": 64,
          "midi": 63,
          "name": "D#4",
          "ticks": 4544,
          "time": 9.594585,
          "velocity": 0.5905511811023622
        },
        {
          "duration": 0.135135,
          "durationTicks": 64,
          "midi": 67,
          "name": "G4",
          "ticks": 4544,
          "time": 9.594585,
          "velocity": 0.5905511811023622
        },
        {
          "duration": 0.27027,
          "durationTicks": 128,
          "midi": 57,
          "name": "A3",
          "ticks": 4800,
          "time": 10.135125,
          "velocity": 0.5905511811023622
        },
        {
          "duration": 0.27027,
          "durationTicks": 128,
          "midi": 60,
          "name": "C4",
          "ticks": 4800,
          "time": 10.135125,
          "velocity": 0.5905511811023622
        },
        {
          "duration": 0.27027,
          "durationTicks": 128,
          "midi": 62,
          "name": "D4",
          "ticks": 4800,
          "time": 10.135125,
          "velocity": 0.5905511811023622
        },
        {
          "duration": 0.27027,
          "durationTicks": 128,
          "midi": 66,
          "name": "F#4",
          "ticks": 4800,
          "time": 10.135125,
          "velocity": 0.5905511811023622
        },
        {
          "duration": 0.135135,
          "durationTicks": 64,
          "midi": 57,
          "name": "A3",
          "ticks": 4928,
          "time": 10.405395,
          "velocity": 0.5905511811023622
        },
        {
          "duration": 0.135135,
          "durationTicks": 64,
          "midi": 60,
          "name": "C4",
          "ticks": 4928,
          "time": 10.405395,
          "velocity": 0.5905511811023622
        },
        {
          "duration": 0.135135,
          "durationTicks": 64,
          "midi": 62,
          "name": "D4",
          "ticks": 4928,
          "time": 10.405395,
          "velocity": 0.5905511811023622
        },
        {
          "duration": 0.135135,
          "durationTicks": 64,
          "midi": 66,
          "name": "F#4",
          "ticks": 4928,
          "time": 10.405395,
          "velocity": 0.5905511811023622
        },
        {
          "duration": 0.27027,
          "durationTicks": 128,
          "midi": 57,
          "name": "A3",
          "ticks": 5184,
          "time": 10.945935,
          "velocity": 0.5905511811023622
        },
        {
          "duration": 0.27027,
          "durationTicks": 128,
          "midi": 60,
          "name": "C4",
          "ticks": 5184,
          "time": 10.945935,
          "velocity": 0.5905511811023622
        },
        {
          "duration": 0.27027,
          "durationTicks": 128,
          "midi": 62,
          "name": "D4",
          "ticks": 5184,
          "time": 10.945935,
          "velocity": 0.5905511811023622
        },
        {
          "duration": 0.27027,
          "durationTicks": 128,
          "midi": 66,
          "name": "F#4",
          "ticks": 5184,
          "time": 10.945935,
          "velocity": 0.5905511811023622
        },
        {
          "duration": 0.135135,
          "durationTicks": 64,
          "midi": 57,
          "name": "A3",
          "ticks": 5312,
          "time": 11.216205,
          "velocity": 0.5905511811023622
        },
        {
          "duration": 0.135135,
          "durationTicks": 64,
          "midi": 60,
          "name": "C4",
          "ticks": 5312,
          "time": 11.216205,
          "velocity": 0.5905511811023622
        },
        {
          "duration": 0.135135,
          "durationTicks": 64,
          "midi": 62,
          "name": "D4",
          "ticks": 5312,
          "time": 11.216205,
          "velocity": 0.5905511811023622
        },
        {
          "duration": 0.135135,
          "durationTicks": 64,
          "midi": 66,
          "name": "F#4",
          "ticks": 5312,
          "time": 11.216205,
          "velocity": 0.5905511811023622
        },
        {
          "duration": 0.81081,
          "durationTicks": 384,
          "midi": 55,
          "name": "G3",
          "ticks": 5376,
          "time": 11.35134,
          "velocity": 0.5905511811023622
        },
        {
          "duration": 0.81081,
          "durationTicks": 384,
          "midi": 59,
          "name": "B3",
          "ticks": 5376,
          "time": 11.35134,
          "velocity": 0.5905511811023622
        },
        {
          "duration": 0.81081,
          "durationTicks": 384,
          "midi": 62,
          "name": "D4",
          "ticks": 5376,
          "time": 11.35134,
          "velocity": 0.5905511811023622
        },
        {
          "duration": 0.81081,
          "durationTicks": 384,
          "midi": 65,
          "name": "F4",
          "ticks": 5376,
          "time": 11.35134,
          "velocity": 0.5905511811023622
        },
        {
          "duration": 0.46153799999999734,
          "durationTicks": 192,
          "midi": 55,
          "name": "G3",
          "ticks": 10944,
          "time": 24.097758000000002,
          "velocity": 0.5905511811023622
        },
        {
          "duration": 0.46153799999999734,
          "durationTicks": 192,
          "midi": 60,
          "name": "C4",
          "ticks": 10944,
          "time": 24.097758000000002,
          "velocity": 0.5905511811023622
        },
        {
          "duration": 0.46153799999999734,
          "durationTicks": 192,
          "midi": 63,
          "name": "D#4",
          "ticks": 10944,
          "time": 24.097758000000002,
          "velocity": 0.5905511811023622
        },
        {
          "duration": 0.4615380000000009,
          "durationTicks": 192,
          "midi": 55,
          "name": "G3",
          "ticks": 11328,
          "time": 25.020834,
          "velocity": 0.5905511811023622
        },
        {
          "duration": 0.4615380000000009,
          "durationTicks": 192,
          "midi": 60,
          "name": "C4",
          "ticks": 11328,
          "time": 25.020834,
          "velocity": 0.5905511811023622
        },
        {
          "duration": 0.4615380000000009,
          "durationTicks": 192,
          "midi": 63,
          "name": "D#4",
          "ticks": 11328,
          "time": 25.020834,
          "velocity": 0.5905511811023622
        },
        {
          "duration": 0.46875,
          "durationTicks": 192,
          "midi": 54,
          "name": "F#3",
          "ticks": 11712,
          "time": 25.951122,
          "velocity": 0.5905511811023622
        },
        {
          "duration": 0.46875,
          "durationTicks": 192,
          "midi": 57,
          "name": "A3",
          "ticks": 11712,
          "time": 25.951122,
          "velocity": 0.5905511811023622
        },
        {
          "duration": 0.46875,
          "durationTicks": 192,
          "midi": 60,
          "name": "C4",
          "ticks": 11712,
          "time": 25.951122,
          "velocity": 0.5905511811023622
        },
        {
          "duration": 0.46875,
          "durationTicks": 192,
          "midi": 62,
          "name": "D4",
          "ticks": 11712,
          "time": 25.951122,
          "velocity": 0.5905511811023622
        },
        {
          "duration": 0.46875,
          "durationTicks": 192,
          "midi": 57,
          "name": "A3",
          "ticks": 12096,
          "time": 26.888622,
          "velocity": 0.5905511811023622
        },
        {
          "duration": 0.46875,
          "durationTicks": 192,
          "midi": 60,
          "name": "C4",
          "ticks": 12096,
          "time": 26.888622,
          "velocity": 0.5905511811023622
        },
        {
          "duration": 0.46875,
          "durationTicks": 192,
          "midi": 62,
          "name": "D4",
          "ticks": 12096,
          "time": 26.888622,
          "velocity": 0.5905511811023622
        },
        {
          "duration": 0.46875,
          "durationTicks": 192,
          "midi": 66,
          "name": "F#4",
          "ticks": 12096,
          "time": 26.888622,
          "velocity": 0.5905511811023622
        },
        {
          "duration": 0.46875,
          "durationTicks": 192,
          "midi": 55,
          "name": "G3",
          "ticks": 12480,
          "time": 27.826122,
          "velocity": 0.5905511811023622
        },
        {
          "duration": 0.46875,
          "durationTicks": 192,
          "midi": 59,
          "name": "B3",
          "ticks": 12480,
          "time": 27.826122,
          "velocity": 0.5905511811023622
        },
        {
          "duration": 0.46875,
          "durationTicks": 192,
          "midi": 62,
          "name": "D4",
          "ticks": 12480,
          "time": 27.826122,
          "velocity": 0.5905511811023622
        },
        {
          "duration": 0.46875,
          "durationTicks": 192,
          "midi": 55,
          "name": "G3",
          "ticks": 12864,
          "time": 28.763622,
          "velocity": 0.5905511811023622
        },
        {
          "duration": 0.46875,
          "durationTicks": 192,
          "midi": 59,
          "name": "B3",
          "ticks": 12864,
          "time": 28.763622,
          "velocity": 0.5905511811023622
        },
        {
          "duration": 0.46875,
          "durationTicks": 192,
          "midi": 62,
          "name": "D4",
          "ticks": 12864,
          "time": 28.763622,
          "velocity": 0.5905511811023622
        },
        {
          "duration": 0.4411759999999987,
          "durationTicks": 192,
          "midi": 55,
          "name": "G3",
          "ticks": 13248,
          "time": 29.701122,
          "velocity": 0.5905511811023622
        },
        {
          "duration": 0.4411759999999987,
          "durationTicks": 192,
          "midi": 60,
          "name": "C4",
          "ticks": 13248,
          "time": 29.701122,
          "velocity": 0.5905511811023622
        },
        {
          "duration": 0.4411759999999987,
          "durationTicks": 192,
          "midi": 63,
          "name": "D#4",
          "ticks": 13248,
          "time": 29.701122,
          "velocity": 0.5905511811023622
        },
        {
          "duration": 0.43478199999999845,
          "durationTicks": 192,
          "midi": 55,
          "name": "G3",
          "ticks": 13632,
          "time": 30.583474000000002,
          "velocity": 0.5905511811023622
        },
        {
          "duration": 0.43478199999999845,
          "durationTicks": 192,
          "midi": 60,
          "name": "C4",
          "ticks": 13632,
          "time": 30.583474000000002,
          "velocity": 0.5905511811023622
        },
        {
          "duration": 0.43478199999999845,
          "durationTicks": 192,
          "midi": 63,
          "name": "D#4",
          "ticks": 13632,
          "time": 30.583474000000002,
          "velocity": 0.5905511811023622
        },
        {
          "duration": 0.43478199999999845,
          "durationTicks": 192,
          "midi": 67,
          "name": "G4",
          "ticks": 13632,
          "time": 30.583474000000002,
          "velocity": 0.5905511811023622
        },
        {
          "duration": 0.43478199999999845,
          "durationTicks": 192,
          "midi": 51,
          "name": "D#3",
          "ticks": 14016,
          "time": 31.453038000000003,
          "velocity": 0.5905511811023622
        },
        {
          "duration": 0.43478199999999845,
          "durationTicks": 192,
          "midi": 56,
          "name": "G#3",
          "ticks": 14016,
          "time": 31.453038000000003,
          "velocity": 0.5905511811023622
        },
        {
          "duration": 0.43478199999999845,
          "durationTicks": 192,
          "midi": 60,
          "name": "C4",
          "ticks": 14016,
          "time": 31.453038000000003,
          "velocity": 0.5905511811023622
        },
        {
          "duration": 0.43478199999999845,
          "durationTicks": 192,
          "midi": 63,
          "name": "D#4",
          "ticks": 14016,
          "time": 31.453038000000003,
          "velocity": 0.5905511811023622
        },
        {
          "duration": 0.43478199999999845,
          "durationTicks": 192,
          "midi": 51,
          "name": "D#3",
          "ticks": 14400,
          "time": 32.322602,
          "velocity": 0.5905511811023622
        },
        {
          "duration": 0.43478199999999845,
          "durationTicks": 192,
          "midi": 56,
          "name": "G#3",
          "ticks": 14400,
          "time": 32.322602,
          "velocity": 0.5905511811023622
        },
        {
          "duration": 0.43478199999999845,
          "durationTicks": 192,
          "midi": 60,
          "name": "C4",
          "ticks": 14400,
          "time": 32.322602,
          "velocity": 0.5905511811023622
        },
        {
          "duration": 0.43478199999999845,
          "durationTicks": 192,
          "midi": 63,
          "name": "D#4",
          "ticks": 14400,
          "time": 32.322602,
          "velocity": 0.5905511811023622
        },
        {
          "duration": 0.4379559999999998,
          "durationTicks": 192,
          "midi": 55,
          "name": "G3",
          "ticks": 14784,
          "time": 33.19534,
          "velocity": 0.5905511811023622
        },
        {
          "duration": 0.4379559999999998,
          "durationTicks": 192,
          "midi": 60,
          "name": "C4",
          "ticks": 14784,
          "time": 33.19534,
          "velocity": 0.5905511811023622
        },
        {
          "duration": 0.4379559999999998,
          "durationTicks": 192,
          "midi": 63,
          "name": "D#4",
          "ticks": 14784,
          "time": 33.19534,
          "velocity": 0.5905511811023622
        },
        {
          "duration": 0.4379559999999998,
          "durationTicks": 192,
          "midi": 55,
          "name": "G3",
          "ticks": 15168,
          "time": 34.071252,
          "velocity": 0.5905511811023622
        },
        {
          "duration": 0.4379559999999998,
          "durationTicks": 192,
          "midi": 60,
          "name": "C4",
          "ticks": 15168,
          "time": 34.071252,
          "velocity": 0.5905511811023622
        },
        {
          "duration": 0.4379559999999998,
          "durationTicks": 192,
          "midi": 63,
          "name": "D#4",
          "ticks": 15168,
          "time": 34.071252,
          "velocity": 0.5905511811023622
        },
        {
          "duration": 0.4379559999999998,
          "durationTicks": 192,
          "midi": 56,
          "name": "G#3",
          "ticks": 15552,
          "time": 34.947164,
          "velocity": 0.5905511811023622
        },
        {
          "duration": 0.4379559999999998,
          "durationTicks": 192,
          "midi": 60,
          "name": "C4",
          "ticks": 15552,
          "time": 34.947164,
          "velocity": 0.5905511811023622
        },
        {
          "duration": 0.4379559999999998,
          "durationTicks": 192,
          "midi": 63,
          "name": "D#4",
          "ticks": 15552,
          "time": 34.947164,
          "velocity": 0.5905511811023622
        },
        {
          "duration": 0.4379559999999998,
          "durationTicks": 192,
          "midi": 66,
          "name": "F#4",
          "ticks": 15552,
          "time": 34.947164,
          "velocity": 0.5905511811023622
        },
        {
          "duration": 0.4379559999999998,
          "durationTicks": 192,
          "midi": 57,
          "name": "A3",
          "ticks": 15936,
          "time": 35.823076,
          "velocity": 0.5905511811023622
        },
        {
          "duration": 0.4379559999999998,
          "durationTicks": 192,
          "midi": 60,
          "name": "C4",
          "ticks": 15936,
          "time": 35.823076,
          "velocity": 0.5905511811023622
        },
        {
          "duration": 0.4379559999999998,
          "durationTicks": 192,
          "midi": 62,
          "name": "D4",
          "ticks": 15936,
          "time": 35.823076,
          "velocity": 0.5905511811023622
        },
        {
          "duration": 0.4379559999999998,
          "durationTicks": 192,
          "midi": 66,
          "name": "F#4",
          "ticks": 15936,
          "time": 35.823076,
          "velocity": 0.5905511811023622
        },
        {
          "duration": 1.7910439999999994,
          "durationTicks": 768,
          "midi": 55,
          "name": "G3",
          "ticks": 16128,
          "time": 36.261032,
          "velocity": 0.5905511811023622
        },
        {
          "duration": 1.7910439999999994,
          "durationTicks": 768,
          "midi": 59,
          "name": "B3",
          "ticks": 16128,
          "time": 36.261032,
          "velocity": 0.5905511811023622
        },
        {
          "duration": 1.7910439999999994,
          "durationTicks": 768,
          "midi": 62,
          "name": "D4",
          "ticks": 16128,
          "time": 36.261032,
          "velocity": 0.5905511811023622
        },
        {
          "duration": 1.7910439999999994,
          "durationTicks": 768,
          "midi": 65,
          "name": "F4",
          "ticks": 16128,
          "time": 36.261032,
          "velocity": 0.5905511811023622
        },
        {
          "duration": 0.4918029999999973,
          "durationTicks": 192,
          "midi": 53,
          "name": "F3",
          "ticks": 16896,
          "time": 38.052076,
          "velocity": 0.5905511811023622
        },
        {
          "duration": 0.4918029999999973,
          "durationTicks": 192,
          "midi": 58,
          "name": "A#3",
          "ticks": 16896,
          "time": 38.052076,
          "velocity": 0.5905511811023622
        },
        {
          "duration": 0.4918029999999973,
          "durationTicks": 192,
          "midi": 62,
          "name": "D4",
          "ticks": 16896,
          "time": 38.052076,
          "velocity": 0.5905511811023622
        },
        {
          "duration": 0.4918029999999973,
          "durationTicks": 192,
          "midi": 65,
          "name": "F4",
          "ticks": 16896,
          "time": 38.052076,
          "velocity": 0.5905511811023622
        },
        {
          "duration": 0.47618999999999545,
          "durationTicks": 192,
          "midi": 55,
          "name": "G3",
          "ticks": 17856,
          "time": 40.495478000000006,
          "velocity": 0.5905511811023622
        },
        {
          "duration": 0.47618999999999545,
          "durationTicks": 192,
          "midi": 58,
          "name": "A#3",
          "ticks": 17856,
          "time": 40.495478000000006,
          "velocity": 0.5905511811023622
        },
        {
          "duration": 0.47618999999999545,
          "durationTicks": 192,
          "midi": 63,
          "name": "D#4",
          "ticks": 17856,
          "time": 40.495478000000006,
          "velocity": 0.5905511811023622
        },
        {
          "duration": 0.47619000000000256,
          "durationTicks": 192,
          "midi": 55,
          "name": "G3",
          "ticks": 18240,
          "time": 41.447858000000004,
          "velocity": 0.5905511811023622
        },
        {
          "duration": 0.47619000000000256,
          "durationTicks": 192,
          "midi": 58,
          "name": "A#3",
          "ticks": 18240,
          "time": 41.447858000000004,
          "velocity": 0.5905511811023622
        },
        {
          "duration": 0.47619000000000256,
          "durationTicks": 192,
          "midi": 63,
          "name": "D#4",
          "ticks": 18240,
          "time": 41.447858000000004,
          "velocity": 0.5905511811023622
        },
        {
          "duration": 0.47619000000000256,
          "durationTicks": 192,
          "midi": 67,
          "name": "G4",
          "ticks": 18240,
          "time": 41.447858000000004,
          "velocity": 0.5905511811023622
        },
        {
          "duration": 0.46875,
          "durationTicks": 192,
          "midi": 53,
          "name": "F3",
          "ticks": 18624,
          "time": 42.392798000000006,
          "velocity": 0.5905511811023622
        },
        {
          "duration": 0.46875,
          "durationTicks": 192,
          "midi": 58,
          "name": "A#3",
          "ticks": 18624,
          "time": 42.392798000000006,
          "velocity": 0.5905511811023622
        },
        {
          "duration": 0.46875,
          "durationTicks": 192,
          "midi": 62,
          "name": "D4",
          "ticks": 18624,
          "time": 42.392798000000006,
          "velocity": 0.5905511811023622
        },
        {
          "duration": 0.46875,
          "durationTicks": 192,
          "midi": 65,
          "name": "F4",
          "ticks": 18624,
          "time": 42.392798000000006,
          "velocity": 0.5905511811023622
        },
        {
          "duration": 0.46875,
          "durationTicks": 192,
          "midi": 53,
          "name": "F3",
          "ticks": 19008,
          "time": 43.330298000000006,
          "velocity": 0.5905511811023622
        },
        {
          "duration": 0.46875,
          "durationTicks": 192,
          "midi": 58,
          "name": "A#3",
          "ticks": 19008,
          "time": 43.330298000000006,
          "velocity": 0.5905511811023622
        },
        {
          "duration": 0.46875,
          "durationTicks": 192,
          "midi": 62,
          "name": "D4",
          "ticks": 19008,
          "time": 43.330298000000006,
          "velocity": 0.5905511811023622
        },
        {
          "duration": 0.46875,
          "durationTicks": 192,
          "midi": 65,
          "name": "F4",
          "ticks": 19008,
          "time": 43.330298000000006,
          "velocity": 0.5905511811023622
        },
        {
          "duration": 0.46153800000000444,
          "durationTicks": 192,
          "midi": 55,
          "name": "G3",
          "ticks": 19392,
          "time": 44.260586,
          "velocity": 0.5905511811023622
        },
        {
          "duration": 0.46153800000000444,
          "durationTicks": 192,
          "midi": 60,
          "name": "C4",
          "ticks": 19392,
          "time": 44.260586,
          "velocity": 0.5905511811023622
        },
        {
          "duration": 0.46153800000000444,
          "durationTicks": 192,
          "midi": 63,
          "name": "D#4",
          "ticks": 19392,
          "time": 44.260586,
          "velocity": 0.5905511811023622
        },
        {
          "duration": 0.46153799999999734,
          "durationTicks": 192,
          "midi": 55,
          "name": "G3",
          "ticks": 19776,
          "time": 45.183662000000005,
          "velocity": 0.5905511811023622
        },
        {
          "duration": 0.46153799999999734,
          "durationTicks": 192,
          "midi": 60,
          "name": "C4",
          "ticks": 19776,
          "time": 45.183662000000005,
          "velocity": 0.5905511811023622
        },
        {
          "duration": 0.46153799999999734,
          "durationTicks": 192,
          "midi": 63,
          "name": "D#4",
          "ticks": 19776,
          "time": 45.183662000000005,
          "velocity": 0.5905511811023622
        },
        {
          "duration": 0.46153799999999734,
          "durationTicks": 192,
          "midi": 55,
          "name": "G3",
          "ticks": 20160,
          "time": 46.10673800000001,
          "velocity": 0.5905511811023622
        },
        {
          "duration": 0.46153799999999734,
          "durationTicks": 192,
          "midi": 59,
          "name": "B3",
          "ticks": 20160,
          "time": 46.10673800000001,
          "velocity": 0.5905511811023622
        },
        {
          "duration": 0.46153799999999734,
          "durationTicks": 192,
          "midi": 62,
          "name": "D4",
          "ticks": 20160,
          "time": 46.10673800000001,
          "velocity": 0.5905511811023622
        },
        {
          "duration": 0.46153799999999734,
          "durationTicks": 192,
          "midi": 55,
          "name": "G3",
          "ticks": 20544,
          "time": 47.02981400000001,
          "velocity": 0.5905511811023622
        },
        {
          "duration": 0.46153799999999734,
          "durationTicks": 192,
          "midi": 59,
          "name": "B3",
          "ticks": 20544,
          "time": 47.02981400000001,
          "velocity": 0.5905511811023622
        },
        {
          "duration": 0.46153799999999734,
          "durationTicks": 192,
          "midi": 62,
          "name": "D4",
          "ticks": 20544,
          "time": 47.02981400000001,
          "velocity": 0.5905511811023622
        },
        {
          "duration": 0.44776099999999985,
          "durationTicks": 192,
          "midi": 51,
          "name": "D#3",
          "ticks": 20928,
          "time": 47.939113000000006,
          "velocity": 0.5905511811023622
        },
        {
          "duration": 0.44776099999999985,
          "durationTicks": 192,
          "midi": 56,
          "name": "G#3",
          "ticks": 20928,
          "time": 47.939113000000006,
          "velocity": 0.5905511811023622
        },
        {
          "duration": 0.44776099999999985,
          "durationTicks": 192,
          "midi": 60,
          "name": "C4",
          "ticks": 20928,
          "time": 47.939113000000006,
          "velocity": 0.5905511811023622
        },
        {
          "duration": 0.44776099999999985,
          "durationTicks": 192,
          "midi": 53,
          "name": "F3",
          "ticks": 21312,
          "time": 48.834635000000006,
          "velocity": 0.5905511811023622
        },
        {
          "duration": 0.44776099999999985,
          "durationTicks": 192,
          "midi": 58,
          "name": "A#3",
          "ticks": 21312,
          "time": 48.834635000000006,
          "velocity": 0.5905511811023622
        },
        {
          "duration": 0.44776099999999985,
          "durationTicks": 192,
          "midi": 62,
          "name": "D4",
          "ticks": 21312,
          "time": 48.834635000000006,
          "velocity": 0.5905511811023622
        },
        {
          "duration": 0.4511269999999996,
          "durationTicks": 192,
          "midi": 55,
          "name": "G3",
          "ticks": 21696,
          "time": 49.733523000000005,
          "velocity": 0.5905511811023622
        },
        {
          "duration": 0.4511269999999996,
          "durationTicks": 192,
          "midi": 58,
          "name": "A#3",
          "ticks": 21696,
          "time": 49.733523000000005,
          "velocity": 0.5905511811023622
        },
        {
          "duration": 0.4511269999999996,
          "durationTicks": 192,
          "midi": 63,
          "name": "D#4",
          "ticks": 21696,
          "time": 49.733523000000005,
          "velocity": 0.5905511811023622
        },
        {
          "duration": 0.4511269999999996,
          "durationTicks": 192,
          "midi": 56,
          "name": "G#3",
          "ticks": 22080,
          "time": 50.635777000000004,
          "velocity": 0.5905511811023622
        },
        {
          "duration": 0.4511269999999996,
          "durationTicks": 192,
          "midi": 58,
          "name": "A#3",
          "ticks": 22080,
          "time": 50.635777000000004,
          "velocity": 0.5905511811023622
        },
        {
          "duration": 0.4511269999999996,
          "durationTicks": 192,
          "midi": 62,
          "name": "D4",
          "ticks": 22080,
          "time": 50.635777000000004,
          "velocity": 0.5905511811023622
        },
        {
          "duration": 0.4511269999999996,
          "durationTicks": 192,
          "midi": 65,
          "name": "F4",
          "ticks": 22080,
          "time": 50.635777000000004,
          "velocity": 0.5905511811023622
        },
        {
          "duration": 0.45801499999999606,
          "durationTicks": 192,
          "midi": 55,
          "name": "G3",
          "ticks": 22464,
          "time": 51.54491900000001,
          "velocity": 0.5905511811023622
        },
        {
          "duration": 0.45801499999999606,
          "durationTicks": 192,
          "midi": 60,
          "name": "C4",
          "ticks": 22464,
          "time": 51.54491900000001,
          "velocity": 0.5905511811023622
        },
        {
          "duration": 0.45801499999999606,
          "durationTicks": 192,
          "midi": 63,
          "name": "D#4",
          "ticks": 22464,
          "time": 51.54491900000001,
          "velocity": 0.5905511811023622
        },
        {
          "duration": 0.45801499999999606,
          "durationTicks": 192,
          "midi": 55,
          "name": "G3",
          "ticks": 22848,
          "time": 52.46094900000001,
          "velocity": 0.5905511811023622
        },
        {
          "duration": 0.45801499999999606,
          "durationTicks": 192,
          "midi": 60,
          "name": "C4",
          "ticks": 22848,
          "time": 52.46094900000001,
          "velocity": 0.5905511811023622
        },
        {
          "duration": 0.45801499999999606,
          "durationTicks": 192,
          "midi": 63,
          "name": "D#4",
          "ticks": 22848,
          "time": 52.46094900000001,
          "velocity": 0.5905511811023622
        },
        {
          "duration": 0.45801499999999606,
          "durationTicks": 192,
          "midi": 55,
          "name": "G3",
          "ticks": 23232,
          "time": 53.376979000000006,
          "velocity": 0.5905511811023622
        },
        {
          "duration": 0.45801499999999606,
          "durationTicks": 192,
          "midi": 59,
          "name": "B3",
          "ticks": 23232,
          "time": 53.376979000000006,
          "velocity": 0.5905511811023622
        },
        {
          "duration": 0.45801499999999606,
          "durationTicks": 192,
          "midi": 62,
          "name": "D4",
          "ticks": 23232,
          "time": 53.376979000000006,
          "velocity": 0.5905511811023622
        },
        {
          "duration": 0.45801499999999606,
          "durationTicks": 192,
          "midi": 65,
          "name": "F4",
          "ticks": 23232,
          "time": 53.376979000000006,
          "velocity": 0.5905511811023622
        },
        {
          "duration": 0.45801499999999606,
          "durationTicks": 192,
          "midi": 53,
          "name": "F3",
          "ticks": 23616,
          "time": 54.293009000000005,
          "velocity": 0.5905511811023622
        },
        {
          "duration": 0.45801499999999606,
          "durationTicks": 192,
          "midi": 55,
          "name": "G3",
          "ticks": 23616,
          "time": 54.293009000000005,
          "velocity": 0.5905511811023622
        },
        {
          "duration": 0.45801499999999606,
          "durationTicks": 192,
          "midi": 59,
          "name": "B3",
          "ticks": 23616,
          "time": 54.293009000000005,
          "velocity": 0.5905511811023622
        },
        {
          "duration": 0.46153799999999734,
          "durationTicks": 192,
          "midi": 60,
          "name": "C4",
          "ticks": 23808,
          "time": 54.751024,
          "velocity": 0.5905511811023622
        },
        {
          "duration": 0.46153800000000444,
          "durationTicks": 192,
          "midi": 51,
          "name": "D#3",
          "ticks": 24000,
          "time": 55.212562,
          "velocity": 0.5905511811023622
        },
        {
          "duration": 0.46153800000000444,
          "durationTicks": 192,
          "midi": 55,
          "name": "G3",
          "ticks": 24000,
          "time": 55.212562,
          "velocity": 0.5905511811023622
        },
        {
          "duration": 0.46153800000000444,
          "durationTicks": 192,
          "midi": 60,
          "name": "C4",
          "ticks": 24000,
          "time": 55.212562,
          "velocity": 0.5905511811023622
        },
        {
          "duration": 0.46153799999999734,
          "durationTicks": 192,
          "midi": 63,
          "name": "D#4",
          "ticks": 24192,
          "time": 55.6741,
          "velocity": 0.5905511811023622
        },
        {
          "duration": 0.46153799999999734,
          "durationTicks": 192,
          "midi": 51,
          "name": "D#3",
          "ticks": 24384,
          "time": 56.135638,
          "velocity": 0.5905511811023622
        },
        {
          "duration": 0.46153799999999734,
          "durationTicks": 192,
          "midi": 55,
          "name": "G3",
          "ticks": 24384,
          "time": 56.135638,
          "velocity": 0.5905511811023622
        },
        {
          "duration": 0.46153799999999734,
          "durationTicks": 192,
          "midi": 60,
          "name": "C4",
          "ticks": 24384,
          "time": 56.135638,
          "velocity": 0.5905511811023622
        },
        {
          "duration": 0.46153800000000444,
          "durationTicks": 192,
          "midi": 55,
          "name": "G3",
          "ticks": 24576,
          "time": 56.597176,
          "velocity": 0.5905511811023622
        },
        {
          "duration": 0.46153799999999734,
          "durationTicks": 192,
          "midi": 51,
          "name": "D#3",
          "ticks": 24768,
          "time": 57.058714,
          "velocity": 0.5905511811023622
        },
        {
          "duration": 0.46153799999999734,
          "durationTicks": 192,
          "midi": 55,
          "name": "G3",
          "ticks": 24768,
          "time": 57.058714,
          "velocity": 0.5905511811023622
        },
        {
          "duration": 0.46153799999999734,
          "durationTicks": 192,
          "midi": 60,
          "name": "C4",
          "ticks": 24768,
          "time": 57.058714,
          "velocity": 0.5905511811023622
        },
        {
          "duration": 0.46153800000000444,
          "durationTicks": 192,
          "midi": 63,
          "name": "D#4",
          "ticks": 24960,
          "time": 57.520252,
          "velocity": 0.5905511811023622
        },
        {
          "duration": 0.46153799999999734,
          "durationTicks": 192,
          "midi": 51,
          "name": "D#3",
          "ticks": 25152,
          "time": 57.981790000000004,
          "velocity": 0.5905511811023622
        },
        {
          "duration": 0.46153799999999734,
          "durationTicks": 192,
          "midi": 55,
          "name": "G3",
          "ticks": 25152,
          "time": 57.981790000000004,
          "velocity": 0.5905511811023622
        },
        {
          "duration": 0.46153799999999734,
          "durationTicks": 192,
          "midi": 60,
          "name": "C4",
          "ticks": 25152,
          "time": 57.981790000000004,
          "velocity": 0.5905511811023622
        },
        {
          "duration": 1.730767499999999,
          "durationTicks": 720,
          "midi": 51,
          "name": "D#3",
          "ticks": 25344,
          "time": 58.443328,
          "velocity": 0.5905511811023622
        },
        {
          "duration": 1.730767499999999,
          "durationTicks": 720,
          "midi": 55,
          "name": "G3",
          "ticks": 25344,
          "time": 58.443328,
          "velocity": 0.5905511811023622
        },
        {
          "duration": 1.730767499999999,
          "durationTicks": 720,
          "midi": 60,
          "name": "C4",
          "ticks": 25344,
          "time": 58.443328,
          "velocity": 0.5905511811023622
        },
        {
          "duration": 0.4444440000000043,
          "durationTicks": 192,
          "midi": 55,
          "name": "G3",
          "ticks": 27072,
          "time": 62.733923999999995,
          "velocity": 0.5905511811023622
        },
        {
          "duration": 0.4444440000000043,
          "durationTicks": 192,
          "midi": 60,
          "name": "C4",
          "ticks": 27072,
          "time": 62.733923999999995,
          "velocity": 0.5905511811023622
        },
        {
          "duration": 0.4444440000000043,
          "durationTicks": 192,
          "midi": 63,
          "name": "D#4",
          "ticks": 27072,
          "time": 62.733923999999995,
          "velocity": 0.5905511811023622
        },
        {
          "duration": 0.4444440000000043,
          "durationTicks": 192,
          "midi": 55,
          "name": "G3",
          "ticks": 27456,
          "time": 63.622811999999996,
          "velocity": 0.5905511811023622
        },
        {
          "duration": 0.4444440000000043,
          "durationTicks": 192,
          "midi": 60,
          "name": "C4",
          "ticks": 27456,
          "time": 63.622811999999996,
          "velocity": 0.5905511811023622
        },
        {
          "duration": 0.4444440000000043,
          "durationTicks": 192,
          "midi": 63,
          "name": "D#4",
          "ticks": 27456,
          "time": 63.622811999999996,
          "velocity": 0.5905511811023622
        },
        {
          "duration": 0.4545450000000102,
          "durationTicks": 192,
          "midi": 54,
          "name": "F#3",
          "ticks": 27840,
          "time": 64.521801,
          "velocity": 0.5905511811023622
        },
        {
          "duration": 0.4545450000000102,
          "durationTicks": 192,
          "midi": 57,
          "name": "A3",
          "ticks": 27840,
          "time": 64.521801,
          "velocity": 0.5905511811023622
        },
        {
          "duration": 0.4545450000000102,
          "durationTicks": 192,
          "midi": 60,
          "name": "C4",
          "ticks": 27840,
          "time": 64.521801,
          "velocity": 0.5905511811023622
        },
        {
          "duration": 0.4545450000000102,
          "durationTicks": 192,
          "midi": 62,
          "name": "D4",
          "ticks": 27840,
          "time": 64.521801,
          "velocity": 0.5905511811023622
        },
        {
          "duration": 0.454544999999996,
          "durationTicks": 192,
          "midi": 54,
          "name": "F#3",
          "ticks": 28224,
          "time": 65.430891,
          "velocity": 0.5905511811023622
        },
        {
          "duration": 0.454544999999996,
          "durationTicks": 192,
          "midi": 57,
          "name": "A3",
          "ticks": 28224,
          "time": 65.430891,
          "velocity": 0.5905511811023622
        },
        {
          "duration": 0.454544999999996,
          "durationTicks": 192,
          "midi": 60,
          "name": "C4",
          "ticks": 28224,
          "time": 65.430891,
          "velocity": 0.5905511811023622
        },
        {
          "duration": 0.454544999999996,
          "durationTicks": 192,
          "midi": 62,
          "name": "D4",
          "ticks": 28224,
          "time": 65.430891,
          "velocity": 0.5905511811023622
        },
        {
          "duration": 0.46153799999999023,
          "durationTicks": 192,
          "midi": 55,
          "name": "G3",
          "ticks": 28608,
          "time": 66.346974,
          "velocity": 0.5905511811023622
        },
        {
          "duration": 0.46153799999999023,
          "durationTicks": 192,
          "midi": 59,
          "name": "B3",
          "ticks": 28608,
          "time": 66.346974,
          "velocity": 0.5905511811023622
        },
        {
          "duration": 0.46153799999999023,
          "durationTicks": 192,
          "midi": 62,
          "name": "D4",
          "ticks": 28608,
          "time": 66.346974,
          "velocity": 0.5905511811023622
        },
        {
          "duration": 0.46153800000000444,
          "durationTicks": 192,
          "midi": 55,
          "name": "G3",
          "ticks": 28992,
          "time": 67.27005,
          "velocity": 0.5905511811023622
        },
        {
          "duration": 0.46153800000000444,
          "durationTicks": 192,
          "midi": 59,
          "name": "B3",
          "ticks": 28992,
          "time": 67.27005,
          "velocity": 0.5905511811023622
        },
        {
          "duration": 0.46153800000000444,
          "durationTicks": 192,
          "midi": 62,
          "name": "D4",
          "ticks": 28992,
          "time": 67.27005,
          "velocity": 0.5905511811023622
        },
        {
          "duration": 0.4545450000000102,
          "durationTicks": 192,
          "midi": 55,
          "name": "G3",
          "ticks": 29376,
          "time": 68.186133,
          "velocity": 0.5905511811023622
        },
        {
          "duration": 0.4545450000000102,
          "durationTicks": 192,
          "midi": 60,
          "name": "C4",
          "ticks": 29376,
          "time": 68.186133,
          "velocity": 0.5905511811023622
        },
        {
          "duration": 0.4545450000000102,
          "durationTicks": 192,
          "midi": 63,
          "name": "D#4",
          "ticks": 29376,
          "time": 68.186133,
          "velocity": 0.5905511811023622
        },
        {
          "duration": 0.454544999999996,
          "durationTicks": 192,
          "midi": 55,
          "name": "G3",
          "ticks": 29760,
          "time": 69.095223,
          "velocity": 0.5905511811023622
        },
        {
          "duration": 0.454544999999996,
          "durationTicks": 192,
          "midi": 60,
          "name": "C4",
          "ticks": 29760,
          "time": 69.095223,
          "velocity": 0.5905511811023622
        },
        {
          "duration": 0.454544999999996,
          "durationTicks": 192,
          "midi": 63,
          "name": "D#4",
          "ticks": 29760,
          "time": 69.095223,
          "velocity": 0.5905511811023622
        },
        {
          "duration": 0.454544999999996,
          "durationTicks": 192,
          "midi": 67,
          "name": "G4",
          "ticks": 29760,
          "time": 69.095223,
          "velocity": 0.5905511811023622
        },
        {
          "duration": 0.44444399999999007,
          "durationTicks": 192,
          "midi": 51,
          "name": "D#3",
          "ticks": 30144,
          "time": 69.994212,
          "velocity": 0.5905511811023622
        },
        {
          "duration": 0.44444399999999007,
          "durationTicks": 192,
          "midi": 56,
          "name": "G#3",
          "ticks": 30144,
          "time": 69.994212,
          "velocity": 0.5905511811023622
        },
        {
          "duration": 0.44444399999999007,
          "durationTicks": 192,
          "midi": 60,
          "name": "C4",
          "ticks": 30144,
          "time": 69.994212,
          "velocity": 0.5905511811023622
        },
        {
          "duration": 0.44444399999999007,
          "durationTicks": 192,
          "midi": 63,
          "name": "D#4",
          "ticks": 30144,
          "time": 69.994212,
          "velocity": 0.5905511811023622
        },
        {
          "duration": 0.4444440000000043,
          "durationTicks": 192,
          "midi": 51,
          "name": "D#3",
          "ticks": 30528,
          "time": 70.8831,
          "velocity": 0.5905511811023622
        },
        {
          "duration": 0.4444440000000043,
          "durationTicks": 192,
          "midi": 56,
          "name": "G#3",
          "ticks": 30528,
          "time": 70.8831,
          "velocity": 0.5905511811023622
        },
        {
          "duration": 0.4444440000000043,
          "durationTicks": 192,
          "midi": 60,
          "name": "C4",
          "ticks": 30528,
          "time": 70.8831,
          "velocity": 0.5905511811023622
        },
        {
          "duration": 0.4444440000000043,
          "durationTicks": 192,
          "midi": 63,
          "name": "D#4",
          "ticks": 30528,
          "time": 70.8831,
          "velocity": 0.5905511811023622
        },
        {
          "duration": 0.4379559999999998,
          "durationTicks": 192,
          "midi": 55,
          "name": "G3",
          "ticks": 30912,
          "time": 71.7655,
          "velocity": 0.5905511811023622
        },
        {
          "duration": 0.4379559999999998,
          "durationTicks": 192,
          "midi": 60,
          "name": "C4",
          "ticks": 30912,
          "time": 71.7655,
          "velocity": 0.5905511811023622
        },
        {
          "duration": 0.4379559999999998,
          "durationTicks": 192,
          "midi": 63,
          "name": "D#4",
          "ticks": 30912,
          "time": 71.7655,
          "velocity": 0.5905511811023622
        },
        {
          "duration": 0.4379559999999998,
          "durationTicks": 192,
          "midi": 67,
          "name": "G4",
          "ticks": 30912,
          "time": 71.7655,
          "velocity": 0.5905511811023622
        },
        {
          "duration": 0.4379559999999998,
          "durationTicks": 192,
          "midi": 55,
          "name": "G3",
          "ticks": 31296,
          "time": 72.641412,
          "velocity": 0.5905511811023622
        },
        {
          "duration": 0.4379559999999998,
          "durationTicks": 192,
          "midi": 60,
          "name": "C4",
          "ticks": 31296,
          "time": 72.641412,
          "velocity": 0.5905511811023622
        },
        {
          "duration": 0.4379559999999998,
          "durationTicks": 192,
          "midi": 63,
          "name": "D#4",
          "ticks": 31296,
          "time": 72.641412,
          "velocity": 0.5905511811023622
        },
        {
          "duration": 0.4379559999999998,
          "durationTicks": 192,
          "midi": 67,
          "name": "G4",
          "ticks": 31296,
          "time": 72.641412,
          "velocity": 0.5905511811023622
        },
        {
          "duration": 0.4379559999999998,
          "durationTicks": 192,
          "midi": 53,
          "name": "F3",
          "ticks": 31680,
          "time": 73.517324,
          "velocity": 0.5905511811023622
        },
        {
          "duration": 0.4379559999999998,
          "durationTicks": 192,
          "midi": 56,
          "name": "G#3",
          "ticks": 31680,
          "time": 73.517324,
          "velocity": 0.5905511811023622
        },
        {
          "duration": 0.4379559999999998,
          "durationTicks": 192,
          "midi": 60,
          "name": "C4",
          "ticks": 31680,
          "time": 73.517324,
          "velocity": 0.5905511811023622
        },
        {
          "duration": 0.4379559999999998,
          "durationTicks": 192,
          "midi": 65,
          "name": "F4",
          "ticks": 31680,
          "time": 73.517324,
          "velocity": 0.5905511811023622
        },
        {
          "duration": 0.4379559999999998,
          "durationTicks": 192,
          "midi": 55,
          "name": "G3",
          "ticks": 32064,
          "time": 74.393236,
          "velocity": 0.5905511811023622
        },
        {
          "duration": 0.4379559999999998,
          "durationTicks": 192,
          "midi": 59,
          "name": "B3",
          "ticks": 32064,
          "time": 74.393236,
          "velocity": 0.5905511811023622
        },
        {
          "duration": 0.4379559999999998,
          "durationTicks": 192,
          "midi": 62,
          "name": "D4",
          "ticks": 32064,
          "time": 74.393236,
          "velocity": 0.5905511811023622
        },
        {
          "duration": 0.4379559999999998,
          "durationTicks": 192,
          "midi": 65,
          "name": "F4",
          "ticks": 32064,
          "time": 74.393236,
          "velocity": 0.5905511811023622
        },
        {
          "duration": 0.8108100000000036,
          "durationTicks": 384,
          "midi": 55,
          "name": "G3",
          "ticks": 32256,
          "time": 74.831192,
          "velocity": 0.5905511811023622
        },
        {
          "duration": 0.8108100000000036,
          "durationTicks": 384,
          "midi": 60,
          "name": "C4",
          "ticks": 32256,
          "time": 74.831192,
          "velocity": 0.5905511811023622
        },
        {
          "duration": 0.8108100000000036,
          "durationTicks": 384,
          "midi": 63,
          "name": "D#4",
          "ticks": 32256,
          "time": 74.831192,
          "velocity": 0.5905511811023622
        },
        {
          "duration": 0.8108100000000036,
          "durationTicks": 384,
          "midi": 67,
          "name": "G4",
          "ticks": 32256,
          "time": 74.831192,
          "velocity": 0.5905511811023622
        },
        {
          "duration": 0.05067562499999667,
          "durationTicks": 24,
          "midi": 72,
          "name": "C5",
          "ticks": 32640,
          "time": 75.642002,
          "velocity": 0.5905511811023622
        },
        {
          "duration": 0.05067562499999667,
          "durationTicks": 24,
          "midi": 70,
          "name": "A#4",
          "ticks": 32664,
          "time": 75.692677625,
          "velocity": 0.5905511811023622
        },
        {
          "duration": 0.05067562499999667,
          "durationTicks": 24,
          "midi": 68,
          "name": "G#4",
          "ticks": 32688,
          "time": 75.74335325,
          "velocity": 0.5905511811023622
        },
        {
          "duration": 0.6587831249999994,
          "durationTicks": 312,
          "midi": 67,
          "name": "G4",
          "ticks": 32712,
          "time": 75.794028875,
          "velocity": 0.5905511811023622
        },
        {
          "duration": 0.053571375000004195,
          "durationTicks": 24,
          "midi": 67,
          "name": "G4",
          "ticks": 33024,
          "time": 76.452812,
          "velocity": 0.5905511811023622
        },
        {
          "duration": 0.053571374999989985,
          "durationTicks": 24,
          "midi": 65,
          "name": "F4",
          "ticks": 33048,
          "time": 76.506383375,
          "velocity": 0.5905511811023622
        },
        {
          "duration": 0.053571375000004195,
          "durationTicks": 24,
          "midi": 63,
          "name": "D#4",
          "ticks": 33072,
          "time": 76.55995474999999,
          "velocity": 0.5905511811023622
        },
        {
          "duration": 0.053571375000004195,
          "durationTicks": 24,
          "midi": 62,
          "name": "D4",
          "ticks": 33096,
          "time": 76.61352612499999,
          "velocity": 0.5905511811023622
        },
        {
          "duration": 0.6428564999999935,
          "durationTicks": 288,
          "midi": 60,
          "name": "C4",
          "ticks": 33120,
          "time": 76.6670975,
          "velocity": 0.5905511811023622
        },
        {
          "duration": 0.05597012500000176,
          "durationTicks": 24,
          "midi": 60,
          "name": "C4",
          "ticks": 33432,
          "time": 77.36592412499999,
          "velocity": 0.5905511811023622
        },
        {
          "duration": 0.05597012500000176,
          "durationTicks": 24,
          "midi": 58,
          "name": "A#3",
          "ticks": 33456,
          "time": 77.42189425,
          "velocity": 0.5905511811023622
        },
        {
          "duration": 0.05597012500000176,
          "durationTicks": 24,
          "midi": 56,
          "name": "G#3",
          "ticks": 33480,
          "time": 77.477864375,
          "velocity": 0.5905511811023622
        },
        {
          "duration": 0.6716414999999927,
          "durationTicks": 288,
          "midi": 55,
          "name": "G3",
          "ticks": 33504,
          "time": 77.5338345,
          "velocity": 0.5905511811023622
        },
        {
          "duration": 0.05597012500000176,
          "durationTicks": 24,
          "midi": 55,
          "name": "G3",
          "ticks": 33792,
          "time": 78.20547599999999,
          "velocity": 0.5905511811023622
        },
        {
          "duration": 0.05597012500000176,
          "durationTicks": 24,
          "midi": 53,
          "name": "F3",
          "ticks": 33816,
          "time": 78.26144612499999,
          "velocity": 0.5905511811023622
        },
        {
          "duration": 0.05597012500000176,
          "durationTicks": 24,
          "midi": 51,
          "name": "D#3",
          "ticks": 33840,
          "time": 78.31741625,
          "velocity": 0.5905511811023622
        },
        {
          "duration": 0.05597012500000176,
          "durationTicks": 24,
          "midi": 50,
          "name": "D3",
          "ticks": 33864,
          "time": 78.373386375,
          "velocity": 0.5905511811023622
        },
        {
          "duration": 0.5970146666666665,
          "durationTicks": 256,
          "midi": 48,
          "name": "C3",
          "ticks": 33888,
          "time": 78.4293565,
          "velocity": 0.5905511811023622
        }
      ]
    },
    {
      "channel": 0,
      "controlChanges": {
        "7": [
          {
            "number": 7,
            "ticks": 0,
            "time": 0,
            "value": 1
          }
        ],
        "10": [
          {
            "number": 10,
            "ticks": 0,
            "time": 0,
            "value": 0.5039370078740157
          }
        ]
      },
      "pitchBends": [],
      "instrument": {
        "family": "piano",
        "name": "acoustic grand piano",
        "number": 0
      },
      "name": "Staff-4",
      "notes": []
    },
    {
      "channel": 3,
      "controlChanges": {
        "64": [
          {
            "number": 64,
            "ticks": 5376,
            "time": 11.35134,
            "value": 1
          },
          {
            "number": 64,
            "ticks": 6144,
            "time": 12.97296,
            "value": 0
          },
          {
            "number": 64,
            "ticks": 16896,
            "time": 38.052076,
            "value": 1
          },
          {
            "number": 64,
            "ticks": 17664,
            "time": 40.019288,
            "value": 0
          }
        ]
      },
      "pitchBends": [],
      "instrument": {
        "family": "piano",
        "name": "bright acoustic piano",
        "number": 1
      },
      "name": "",
      "notes": [
        {
          "duration": 0.81081,
          "durationTicks": 384,
          "midi": 36,
          "name": "C2",
          "ticks": 0,
          "time": 0,
          "velocity": 0.7244094488188977
        },
        {
          "duration": 0.81081,
          "durationTicks": 384,
          "midi": 43,
          "name": "G2",
          "ticks": 384,
          "time": 0.81081,
          "velocity": 0.7244094488188977
        },
        {
          "duration": 0.81081,
          "durationTicks": 384,
          "midi": 38,
          "name": "D2",
          "ticks": 768,
          "time": 1.62162,
          "velocity": 0.7244094488188977
        },
        {
          "duration": 0.81081,
          "durationTicks": 384,
          "midi": 33,
          "name": "A1",
          "ticks": 1152,
          "time": 2.43243,
          "velocity": 0.7244094488188977
        },
        {
          "duration": 0.81081,
          "durationTicks": 384,
          "midi": 31,
          "name": "G1",
          "ticks": 1536,
          "time": 3.24324,
          "velocity": 0.7244094488188977
        },
        {
          "duration": 0.81081,
          "durationTicks": 384,
          "midi": 38,
          "name": "D2",
          "ticks": 1920,
          "time": 4.05405,
          "velocity": 0.7244094488188977
        },
        {
          "duration": 0.81081,
          "durationTicks": 384,
          "midi": 36,
          "name": "C2",
          "ticks": 2304,
          "time": 4.86486,
          "velocity": 0.7244094488188977
        },
        {
          "duration": 0.81081,
          "durationTicks": 384,
          "midi": 43,
          "name": "G2",
          "ticks": 2688,
          "time": 5.67567,
          "velocity": 0.7244094488188977
        },
        {
          "duration": 0.81081,
          "durationTicks": 384,
          "midi": 41,
          "name": "F2",
          "ticks": 3072,
          "time": 6.48648,
          "velocity": 0.7244094488188977
        },
        {
          "duration": 0.81081,
          "durationTicks": 384,
          "midi": 36,
          "name": "C2",
          "ticks": 3456,
          "time": 7.29729,
          "velocity": 0.7244094488188977
        },
        {
          "duration": 0.81081,
          "durationTicks": 384,
          "midi": 36,
          "name": "C2",
          "ticks": 3840,
          "time": 8.1081,
          "velocity": 0.7244094488188977
        },
        {
          "duration": 0.81081,
          "durationTicks": 384,
          "midi": 43,
          "name": "G2",
          "ticks": 4224,
          "time": 8.91891,
          "velocity": 0.7244094488188977
        },
        {
          "duration": 0.81081,
          "durationTicks": 384,
          "midi": 38,
          "name": "D2",
          "ticks": 4608,
          "time": 9.72972,
          "velocity": 0.7244094488188977
        },
        {
          "duration": 0.81081,
          "durationTicks": 384,
          "midi": 33,
          "name": "A1",
          "ticks": 4992,
          "time": 10.54053,
          "velocity": 0.7244094488188977
        },
        {
          "duration": 0.81081,
          "durationTicks": 384,
          "midi": 31,
          "name": "G1",
          "ticks": 5376,
          "time": 11.35134,
          "velocity": 0.7244094488188977
        },
        {
          "duration": 0.8163260000000001,
          "durationTicks": 384,
          "midi": 48,
          "name": "C3",
          "ticks": 6144,
          "time": 12.97296,
          "velocity": 0.7244094488188977
        },
        {
          "duration": 0.05102037500000023,
          "durationTicks": 24,
          "midi": 48,
          "name": "C3",
          "ticks": 6528,
          "time": 13.789286,
          "velocity": 0.7244094488188977
        },
        {
          "duration": 0.05102037500000023,
          "durationTicks": 24,
          "midi": 46,
          "name": "A#2",
          "ticks": 6552,
          "time": 13.840306375,
          "velocity": 0.7244094488188977
        },
        {
          "duration": 0.05102037500000023,
          "durationTicks": 24,
          "midi": 44,
          "name": "G#2",
          "ticks": 6576,
          "time": 13.891326750000001,
          "velocity": 0.7244094488188977
        },
        {
          "duration": 0.6122444999999992,
          "durationTicks": 288,
          "midi": 43,
          "name": "G2",
          "ticks": 6600,
          "time": 13.942347125000001,
          "velocity": 0.7244094488188977
        },
        {
          "duration": 0.05102037500000023,
          "durationTicks": 24,
          "midi": 43,
          "name": "G2",
          "ticks": 6912,
          "time": 14.605612,
          "velocity": 0.7244094488188977
        },
        {
          "duration": 0.05102037500000023,
          "durationTicks": 24,
          "midi": 41,
          "name": "F2",
          "ticks": 6936,
          "time": 14.656632375000001,
          "velocity": 0.7244094488188977
        },
        {
          "duration": 0.05102037500000023,
          "durationTicks": 24,
          "midi": 39,
          "name": "D#2",
          "ticks": 6960,
          "time": 14.707652750000001,
          "velocity": 0.7244094488188977
        },
        {
          "duration": 0.05102037499999845,
          "durationTicks": 24,
          "midi": 38,
          "name": "D2",
          "ticks": 6984,
          "time": 14.758673125000001,
          "velocity": 0.7244094488188977
        },
        {
          "duration": 0.544217333333334,
          "durationTicks": 256,
          "midi": 36,
          "name": "C2",
          "ticks": 7008,
          "time": 14.8096935,
          "velocity": 0.7244094488188977
        },
        {
          "duration": 0.8163260000000001,
          "durationTicks": 384,
          "midi": 60,
          "name": "C4",
          "ticks": 8448,
          "time": 17.870916,
          "velocity": 0.7244094488188977
        },
        {
          "duration": 0.05102037500000023,
          "durationTicks": 24,
          "midi": 60,
          "name": "C4",
          "ticks": 8832,
          "time": 18.687242,
          "velocity": 0.7244094488188977
        },
        {
          "duration": 0.05102037500000023,
          "durationTicks": 24,
          "midi": 58,
          "name": "A#3",
          "ticks": 8856,
          "time": 18.738262375,
          "velocity": 0.7244094488188977
        },
        {
          "duration": 0.051020374999996676,
          "durationTicks": 24,
          "midi": 56,
          "name": "G#3",
          "ticks": 8880,
          "time": 18.78928275,
          "velocity": 0.7244094488188977
        },
        {
          "duration": 0.6122445000000027,
          "durationTicks": 288,
          "midi": 55,
          "name": "G3",
          "ticks": 8904,
          "time": 18.840303125,
          "velocity": 0.7244094488188977
        },
        {
          "duration": 0.05102037500000023,
          "durationTicks": 24,
          "midi": 55,
          "name": "G3",
          "ticks": 9216,
          "time": 19.503568,
          "velocity": 0.7244094488188977
        },
        {
          "duration": 0.05102037500000023,
          "durationTicks": 24,
          "midi": 53,
          "name": "F3",
          "ticks": 9240,
          "time": 19.554588375,
          "velocity": 0.7244094488188977
        },
        {
          "duration": 0.05102037500000023,
          "durationTicks": 24,
          "midi": 51,
          "name": "D#3",
          "ticks": 9264,
          "time": 19.605608750000002,
          "velocity": 0.7244094488188977
        },
        {
          "duration": 0.05102037500000023,
          "durationTicks": 24,
          "midi": 50,
          "name": "D3",
          "ticks": 9288,
          "time": 19.656629125000002,
          "velocity": 0.7244094488188977
        },
        {
          "duration": 0.5442173333333322,
          "durationTicks": 256,
          "midi": 48,
          "name": "C3",
          "ticks": 9312,
          "time": 19.707649500000002,
          "velocity": 0.7244094488188977
        },
        {
          "duration": 0.9230759999999982,
          "durationTicks": 384,
          "midi": 36,
          "name": "C2",
          "ticks": 10752,
          "time": 23.63622,
          "velocity": 0.7244094488188977
        },
        {
          "duration": 0.9230760000000018,
          "durationTicks": 384,
          "midi": 43,
          "name": "G2",
          "ticks": 11136,
          "time": 24.559296,
          "velocity": 0.7244094488188977
        },
        {
          "duration": 0.9375,
          "durationTicks": 384,
          "midi": 38,
          "name": "D2",
          "ticks": 11520,
          "time": 25.482372,
          "velocity": 0.7244094488188977
        },
        {
          "duration": 0.9375,
          "durationTicks": 384,
          "midi": 33,
          "name": "A1",
          "ticks": 11904,
          "time": 26.419872,
          "velocity": 0.7244094488188977
        },
        {
          "duration": 0.9375,
          "durationTicks": 384,
          "midi": 31,
          "name": "G1",
          "ticks": 12288,
          "time": 27.357372,
          "velocity": 0.7244094488188977
        },
        {
          "duration": 0.9375,
          "durationTicks": 384,
          "midi": 38,
          "name": "D2",
          "ticks": 12672,
          "time": 28.294872,
          "velocity": 0.7244094488188977
        },
        {
          "duration": 0.9099259999999987,
          "durationTicks": 384,
          "midi": 36,
          "name": "C2",
          "ticks": 13056,
          "time": 29.232372,
          "velocity": 0.7244094488188977
        },
        {
          "duration": 0.8759580000000007,
          "durationTicks": 384,
          "midi": 43,
          "name": "G2",
          "ticks": 13440,
          "time": 30.142298,
          "velocity": 0.7244094488188977
        },
        {
          "duration": 0.8695640000000004,
          "durationTicks": 384,
          "midi": 32,
          "name": "G#1",
          "ticks": 13824,
          "time": 31.018256,
          "velocity": 0.7244094488188977
        },
        {
          "duration": 0.8695640000000004,
          "durationTicks": 384,
          "midi": 39,
          "name": "D#2",
          "ticks": 14208,
          "time": 31.88782,
          "velocity": 0.7244094488188977
        },
        {
          "duration": 0.8759119999999996,
          "durationTicks": 384,
          "midi": 36,
          "name": "C2",
          "ticks": 14592,
          "time": 32.757384,
          "velocity": 0.7244094488188977
        },
        {
          "duration": 0.8759119999999996,
          "durationTicks": 384,
          "midi": 43,
          "name": "G2",
          "ticks": 14976,
          "time": 33.633296,
          "velocity": 0.7244094488188977
        },
        {
          "duration": 0.8759119999999996,
          "durationTicks": 384,
          "midi": 32,
          "name": "G#1",
          "ticks": 15360,
          "time": 34.509208,
          "velocity": 0.7244094488188977
        },
        {
          "duration": 0.8759119999999996,
          "durationTicks": 384,
          "midi": 38,
          "name": "D2",
          "ticks": 15744,
          "time": 35.38512,
          "velocity": 0.7244094488188977
        },
        {
          "duration": 1.7910439999999994,
          "durationTicks": 768,
          "midi": 31,
          "name": "G1",
          "ticks": 16128,
          "time": 36.261032,
          "velocity": 0.7244094488188977
        },
        {
          "duration": 0.4918029999999973,
          "durationTicks": 192,
          "midi": 34,
          "name": "A#1",
          "ticks": 16896,
          "time": 38.052076,
          "velocity": 0.7244094488188977
        },
        {
          "duration": 0.952379999999998,
          "durationTicks": 384,
          "midi": 39,
          "name": "D#2",
          "ticks": 17664,
          "time": 40.019288,
          "velocity": 0.7244094488188977
        },
        {
          "duration": 0.9523800000000051,
          "durationTicks": 384,
          "midi": 34,
          "name": "A#1",
          "ticks": 18048,
          "time": 40.971668,
          "velocity": 0.7244094488188977
        },
        {
          "duration": 0.9375,
          "durationTicks": 384,
          "midi": 34,
          "name": "A#1",
          "ticks": 18432,
          "time": 41.924048000000006,
          "velocity": 0.7244094488188977
        },
        {
          "duration": 0.9375,
          "durationTicks": 384,
          "midi": 41,
          "name": "F2",
          "ticks": 18816,
          "time": 42.861548000000006,
          "velocity": 0.7244094488188977
        },
        {
          "duration": 0.9230760000000018,
          "durationTicks": 384,
          "midi": 36,
          "name": "C2",
          "ticks": 19200,
          "time": 43.799048000000006,
          "velocity": 0.7244094488188977
        },
        {
          "duration": 0.9230759999999947,
          "durationTicks": 384,
          "midi": 31,
          "name": "G1",
          "ticks": 19584,
          "time": 44.72212400000001,
          "velocity": 0.7244094488188977
        },
        {
          "duration": 0.9230760000000018,
          "durationTicks": 384,
          "midi": 31,
          "name": "G1",
          "ticks": 19968,
          "time": 45.6452,
          "velocity": 0.7244094488188977
        },
        {
          "duration": 0.9230760000000018,
          "durationTicks": 384,
          "midi": 38,
          "name": "D2",
          "ticks": 20352,
          "time": 46.568276000000004,
          "velocity": 0.7244094488188977
        },
        {
          "duration": 0.8955219999999997,
          "durationTicks": 384,
          "midi": 32,
          "name": "G#1",
          "ticks": 20736,
          "time": 47.491352000000006,
          "velocity": 0.7244094488188977
        },
        {
          "duration": 0.8955219999999997,
          "durationTicks": 384,
          "midi": 34,
          "name": "A#1",
          "ticks": 21120,
          "time": 48.386874000000006,
          "velocity": 0.7244094488188977
        },
        {
          "duration": 0.9022539999999992,
          "durationTicks": 384,
          "midi": 39,
          "name": "D#2",
          "ticks": 21504,
          "time": 49.282396000000006,
          "velocity": 0.7244094488188977
        },
        {
          "duration": 0.9022539999999992,
          "durationTicks": 384,
          "midi": 34,
          "name": "A#1",
          "ticks": 21888,
          "time": 50.184650000000005,
          "velocity": 0.7244094488188977
        },
        {
          "duration": 0.9160299999999992,
          "durationTicks": 384,
          "midi": 36,
          "name": "C2",
          "ticks": 22272,
          "time": 51.086904000000004,
          "velocity": 0.7244094488188977
        },
        {
          "duration": 0.9160299999999992,
          "durationTicks": 384,
          "midi": 31,
          "name": "G1",
          "ticks": 22656,
          "time": 52.002934,
          "velocity": 0.7244094488188977
        },
        {
          "duration": 0.9160299999999992,
          "durationTicks": 384,
          "midi": 31,
          "name": "G1",
          "ticks": 23040,
          "time": 52.918964,
          "velocity": 0.7244094488188977
        },
        {
          "duration": 0.9160299999999992,
          "durationTicks": 384,
          "midi": 38,
          "name": "D2",
          "ticks": 23424,
          "time": 53.834994,
          "velocity": 0.7244094488188977
        },
        {
          "duration": 0.9230760000000018,
          "durationTicks": 384,
          "midi": 36,
          "name": "C2",
          "ticks": 23808,
          "time": 54.751024,
          "velocity": 0.7244094488188977
        },
        {
          "duration": 0.9230759999999947,
          "durationTicks": 384,
          "midi": 31,
          "name": "G1",
          "ticks": 24192,
          "time": 55.6741,
          "velocity": 0.7244094488188977
        },
        {
          "duration": 0.9230760000000018,
          "durationTicks": 384,
          "midi": 36,
          "name": "C2",
          "ticks": 24576,
          "time": 56.597176,
          "velocity": 0.7244094488188977
        },
        {
          "duration": 0.9230760000000018,
          "durationTicks": 384,
          "midi": 31,
          "name": "G1",
          "ticks": 24960,
          "time": 57.520252,
          "velocity": 0.7244094488188977
        },
        {
          "duration": 1.8461519999999965,
          "durationTicks": 768,
          "midi": 36,
          "name": "C2",
          "ticks": 25344,
          "time": 58.443328,
          "velocity": 0.7244094488188977
        },
        {
          "duration": 0.8888880000000015,
          "durationTicks": 384,
          "midi": 36,
          "name": "C2",
          "ticks": 26880,
          "time": 62.28948,
          "velocity": 0.7244094488188977
        },
        {
          "duration": 0.8888880000000015,
          "durationTicks": 384,
          "midi": 43,
          "name": "G2",
          "ticks": 27264,
          "time": 63.178368,
          "velocity": 0.7244094488188977
        },
        {
          "duration": 0.9090900000000062,
          "durationTicks": 384,
          "midi": 38,
          "name": "D2",
          "ticks": 27648,
          "time": 64.067256,
          "velocity": 0.7244094488188977
        },
        {
          "duration": 0.909089999999992,
          "durationTicks": 384,
          "midi": 33,
          "name": "A1",
          "ticks": 28032,
          "time": 64.976346,
          "velocity": 0.7244094488188977
        },
        {
          "duration": 0.9230759999999947,
          "durationTicks": 384,
          "midi": 31,
          "name": "G1",
          "ticks": 28416,
          "time": 65.885436,
          "velocity": 0.7244094488188977
        },
        {
          "duration": 0.9230760000000089,
          "durationTicks": 384,
          "midi": 38,
          "name": "D2",
          "ticks": 28800,
          "time": 66.808512,
          "velocity": 0.7244094488188977
        },
        {
          "duration": 0.9090900000000062,
          "durationTicks": 384,
          "midi": 36,
          "name": "C2",
          "ticks": 29184,
          "time": 67.731588,
          "velocity": 0.7244094488188977
        },
        {
          "duration": 0.909089999999992,
          "durationTicks": 384,
          "midi": 43,
          "name": "G2",
          "ticks": 29568,
          "time": 68.64067800000001,
          "velocity": 0.7244094488188977
        },
        {
          "duration": 0.8888879999999943,
          "durationTicks": 384,
          "midi": 32,
          "name": "G#1",
          "ticks": 29952,
          "time": 69.549768,
          "velocity": 0.7244094488188977
        },
        {
          "duration": 0.8888880000000086,
          "durationTicks": 384,
          "midi": 39,
          "name": "D#2",
          "ticks": 30336,
          "time": 70.438656,
          "velocity": 0.7244094488188977
        },
        {
          "duration": 0.8759119999999996,
          "durationTicks": 384,
          "midi": 36,
          "name": "C2",
          "ticks": 30720,
          "time": 71.327544,
          "velocity": 0.7244094488188977
        },
        {
          "duration": 0.8759119999999996,
          "durationTicks": 384,
          "midi": 43,
          "name": "G2",
          "ticks": 31104,
          "time": 72.203456,
          "velocity": 0.7244094488188977
        },
        {
          "duration": 0.8759119999999996,
          "durationTicks": 384,
          "midi": 41,
          "name": "F2",
          "ticks": 31488,
          "time": 73.079368,
          "velocity": 0.7244094488188977
        },
        {
          "duration": 0.8759119999999996,
          "durationTicks": 384,
          "midi": 31,
          "name": "G1",
          "ticks": 31872,
          "time": 73.95528,
          "velocity": 0.7244094488188977
        },
        {
          "duration": 0.709458749999996,
          "durationTicks": 336,
          "midi": 36,
          "name": "C2",
          "ticks": 32256,
          "time": 74.831192,
          "velocity": 0.7244094488188977
        },
        {
          "duration": 0.05597012500000176,
          "durationTicks": 24,
          "midi": 48,
          "name": "C3",
          "ticks": 33432,
          "time": 77.36592412499999,
          "velocity": 0.7244094488188977
        },
        {
          "duration": 0.05597012500000176,
          "durationTicks": 24,
          "midi": 46,
          "name": "A#2",
          "ticks": 33456,
          "time": 77.42189425,
          "velocity": 0.7244094488188977
        },
        {
          "duration": 0.05597012500000176,
          "durationTicks": 24,
          "midi": 44,
          "name": "G#2",
          "ticks": 33480,
          "time": 77.477864375,
          "velocity": 0.7244094488188977
        },
        {
          "duration": 0.6716414999999927,
          "durationTicks": 288,
          "midi": 43,
          "name": "G2",
          "ticks": 33504,
          "time": 77.5338345,
          "velocity": 0.7244094488188977
        },
        {
          "duration": 0.05597012500000176,
          "durationTicks": 24,
          "midi": 43,
          "name": "G2",
          "ticks": 33792,
          "time": 78.20547599999999,
          "velocity": 0.7244094488188977
        },
        {
          "duration": 0.05597012500000176,
          "durationTicks": 24,
          "midi": 41,
          "name": "F2",
          "ticks": 33816,
          "time": 78.26144612499999,
          "velocity": 0.7244094488188977
        },
        {
          "duration": 0.05597012500000176,
          "durationTicks": 24,
          "midi": 39,
          "name": "D#2",
          "ticks": 33840,
          "time": 78.31741625,
          "velocity": 0.7244094488188977
        },
        {
          "duration": 0.05597012500000176,
          "durationTicks": 24,
          "midi": 38,
          "name": "D2",
          "ticks": 33864,
          "time": 78.373386375,
          "velocity": 0.7244094488188977
        },
        {
          "duration": 0.5970146666666665,
          "durationTicks": 256,
          "midi": 36,
          "name": "C2",
          "ticks": 33888,
          "time": 78.4293565,
          "velocity": 0.7244094488188977
        }
      ]
    }
  ]
}