<?xml version="1.0" encoding="UTF-8" standalone="no"?>
<svg xmlns="http://www.w3.org/2000/svg" width="512" height="512" version="1.1" id="painco-logo">
<style>
#f,#g,#a,#b {fill:#f9f9f9}
#fg,#ga,#ab {fill:#1a1a1a}
</style>
<path id="f" d="M94.88 322.69c-5.5 0-10-4.5-10-10V53.33c0-5.5-4.5-10-10-10H35.3c-5.5 0-10 4.5-10 10v405.34c0 5.5 4.5 10 10 10h85.23c5.5 0 10-4.5 10-10V332.69c0-5.5-4.5-10-10-10z"/>
<path id="fg" d="M155.68 302.69c0 5.5-4.5 10-10 10h-40.8c-5.5 0-10-4.5-10-10V53.33c0-5.5 4.5-10 10-10h40.8c5.5 0 10 4.5 10 10z"/>
<path id="g" d="M225.6 322.69c-5.5 0-10-4.5-10-10V53.33c0-5.5-4.5-10-10-10h-29.92c-5.5 0-10 4.5-10 10v259.36c0 5.5-4.5 10-10 10h-1.65c-5.5 0-10 4.5-10 10v125.98c0 5.5 4.5 10 10 10h85.22c5.5 0 10-4.5 10-10V332.69c0-5.5-4.5-10-10-10z"/>
<path id="ga" d="M286.4 302.69c0 5.5-4.5 10-10 10h-40.8c-5.5 0-10-4.5-10-10V53.33c0-5.5 4.5-10 10-10h40.8c5.5 0 10 4.5 10 10z"/>
<path id="a" d="M356.32 322.69c-5.5 0-10-4.5-10-10V53.33c0-5.5-4.5-10-10-10H306.4c-5.5 0-10 4.5-10 10v259.36c0 5.5-4.5 10-10 10h-13.65c-5.5 0-10 4.5-10 10v125.98c0 5.5 4.5 10 10 10h85.22c5.5 0 10-4.5 10-10V332.69c0-5.5-4.5-10-10-10z"/>
<path id="ab" d="M417.13 302.69c0 5.5-4.5 10-10 10h-40.81c-5.5 0-10-4.5-10-10V53.33c0-5.5 4.5-10 10-10h40.81c5.5 0 10 4.5 10 10z"/>
<path id="b" d="M437.13 43.33c-5.5 0-10 4.5-10 10v259.36c0 5.5-4.5 10-10 10h-25.66c-5.5 0-10 4.5-10 10v125.98c0 5.5 4.5 10 10 10h85.23c5.5 0 10-4.5 10-10V53.33c0-5.5-4.5-10-10-10z"/>
</svg>
