<?xml version="1.0" encoding="UTF-8" standalone="no"?>
<svg
  xmlns:dc="http://purl.org/dc/elements/1.1/"
  xmlns:cc="http://creativecommons.org/ns#"
  xmlns:rdf="http://www.w3.org/1999/02/22-rdf-syntax-ns#"
  xmlns:svg="http://www.w3.org/2000/svg"
  xmlns="http://www.w3.org/2000/svg"
  viewBox="0 0 512 512" width="512" height="512" version="1.1" id="painco-logo"
>
  <style>
		.black { fill: #1a1a1a } 
		.white { fill: #f9f9f9 } 
  </style>
  <path id="f" class="white" d="m 94.88,322.69 c -5.5,0 -10,-4.5 -10,-10 V 53.33 c 0,-5.5 -4.5,-10 -10,-10 H 35.3 c -5.5,0 -10,4.5 -10,10 v 405.34 c 0,5.5 4.5,10 10,10 h 85.23 c 5.5,0 10,-4.5 10,-10 V 332.69 c 0,-5.5 -4.5,-10 -10,-10 z" />
  <path id="fg" class="black" d="m 155.68,302.69 c 0,5.5 -4.5,10 -10,10 h -40.8 c -5.5,0 -10,-4.5 -10,-10 V 53.33 c 0,-5.5 4.5,-10 10,-10 h 40.8 c 5.5,0 10,4.5 10,10 z" />
  <path id="g" class="white" d="m 225.6,322.69 c -5.5,0 -10,-4.5 -10,-10 V 53.33 c 0,-5.5 -4.5,-10 -10,-10 h -29.92 c -5.5,0 -10,4.5 -10,10 v 259.36 c 0,5.5 -4.5,10 -10,10 h -1.65 c -5.5,0 -10,4.5 -10,10 v 125.98 c 0,5.5 4.5,10 10,10 h 85.22 c 5.5,0 10,-4.5 10,-10 V 332.69 c 0,-5.5 -4.5,-10 -10,-10 z" />
  <path id="ga" class="black" d="m 286.4,302.69 c 0,5.5 -4.5,10 -10,10 h -40.8 c -5.5,0 -10,-4.5 -10,-10 V 53.33 c 0,-5.5 4.5,-10 10,-10 h 40.8 c 5.5,0 10,4.5 10,10 z"  />
  <path id="a" class="white" d="m 356.32,322.69 c -5.5,0 -10,-4.5 -10,-10 V 53.33 c 0,-5.5 -4.5,-10 -10,-10 H 306.4 c -5.5,0 -10,4.5 -10,10 v 259.36 c 0,5.5 -4.5,10 -10,10 h -13.65 c -5.5,0 -10,4.5 -10,10 v 125.98 c 0,5.5 4.5,10 10,10 h 85.22 c 5.5,0 10,-4.5 10,-10 V 332.69 c 0,-5.5 -4.5,-10 -10,-10 z" />
  <path id="ab" class="black" d="m 417.13,302.69 c 0,5.5 -4.5,10 -10,10 h -40.81 c -5.5,0 -10,-4.5 -10,-10 V 53.33 c 0,-5.5 4.5,-10 10,-10 h 40.81 c 5.5,0 10,4.5 10,10 z" />
  <path id="b" class="white" d="m 437.13,43.33 c -5.5,0 -10,4.5 -10,10 v 259.36 c 0,5.5 -4.5,10 -10,10 h -25.66 c -5.5,0 -10,4.5 -10,10 v 125.98 c 0,5.5 4.5,10 10,10 h 85.23 c 5.5,0 10,-4.5 10,-10 V 53.33 c 0,-5.5 -4.5,-10 -10,-10 z" />
</svg>
