<?xml version="1.0" encoding="UTF-8" standalone="no"?>
<svg
   xmlns:dc="http://purl.org/dc/elements/1.1/"
   xmlns:cc="http://creativecommons.org/ns#"
   xmlns:rdf="http://www.w3.org/1999/02/22-rdf-syntax-ns#"
   xmlns:svg="http://www.w3.org/2000/svg"
   xmlns="http://www.w3.org/2000/svg"
   id="svg44"
   version="1.1"
   height="512"
   width="512"
   viewBox="0 0 512 512">
  <metadata
     id="metadata50">
    <rdf:RDF>
      <cc:Work
         rdf:about="">
        <dc:format>image/svg+xml</dc:format>
        <dc:type
           rdf:resource="http://purl.org/dc/dcmitype/StillImage" />
        <dc:title></dc:title>
      </cc:Work>
    </rdf:RDF>
  </metadata>
  <defs
     id="defs48" />
  <style
     id="style10">
		tspan { white-space:pre }
		.shp0 { fill: #000000 } 
		.shp1 { fill: #ffffff } 
	</style>
  <g
     id="g39">
    <g
       id="&lt;Group&gt;">
      <text
         id=" " />
    </g>
    <g
       id="g37">
      <path
         id="&lt;Path&gt;"
         class="shp0"
         d="m 155.68,302.69 c 0,5.5 -4.5,10 -10,10 h -40.8 c -5.5,0 -10,-4.5 -10,-10 V 53.33 c 0,-5.5 4.5,-10 10,-10 h 40.8 c 5.5,0 10,4.5 10,10 z"
         style="fill:#1a1a1a" />
      <path
         id="path15"
         class="shp0"
         d="m 286.4,302.69 c 0,5.5 -4.5,10 -10,10 h -40.8 c -5.5,0 -10,-4.5 -10,-10 V 53.33 c 0,-5.5 4.5,-10 10,-10 h 40.8 c 5.5,0 10,4.5 10,10 z"
         style="fill:#1a1a1a" />
      <g
         style="fill:#f9f9f9"
         id="g19">
        <path
           style="fill:#f9f9f9"
           d="m 225.6,322.69 c -5.5,0 -10,-4.5 -10,-10 V 53.33 c 0,-5.5 -4.5,-10 -10,-10 h -29.92 c -5.5,0 -10,4.5 -10,10 v 259.36 c 0,5.5 -4.5,10 -10,10 h -1.65 c -5.5,0 -10,4.5 -10,10 v 125.98 c 0,5.5 4.5,10 10,10 h 85.22 c 5.5,0 10,-4.5 10,-10 V 332.69 c 0,-5.5 -4.5,-10 -10,-10 z"
           class="shp1"
           id="path17" />
      </g>
      <g
         style="fill:#f9f9f9"
         id="g23">
        <path
           style="fill:#f9f9f9"
           d="m 94.88,322.69 c -5.5,0 -10,-4.5 -10,-10 V 53.33 c 0,-5.5 -4.5,-10 -10,-10 H 35.3 c -5.5,0 -10,4.5 -10,10 v 405.34 c 0,5.5 4.5,10 10,10 h 85.23 c 5.5,0 10,-4.5 10,-10 V 332.69 c 0,-5.5 -4.5,-10 -10,-10 z"
           class="shp1"
           id="path21" />
      </g>
      <g
         style="fill:#f9f9f9"
         id="g27">
        <path
           style="fill:#f9f9f9"
           d="m 356.32,322.69 c -5.5,0 -10,-4.5 -10,-10 V 53.33 c 0,-5.5 -4.5,-10 -10,-10 H 306.4 c -5.5,0 -10,4.5 -10,10 v 259.36 c 0,5.5 -4.5,10 -10,10 h -13.65 c -5.5,0 -10,4.5 -10,10 v 125.98 c 0,5.5 4.5,10 10,10 h 85.22 c 5.5,0 10,-4.5 10,-10 V 332.69 c 0,-5.5 -4.5,-10 -10,-10 z"
           class="shp1"
           id="path25" />
      </g>
      <g
         style="fill:#f9f9f9"
         id="g31">
        <path
           style="fill:#f9f9f9"
           d="m 437.13,43.33 c -5.5,0 -10,4.5 -10,10 v 259.36 c 0,5.5 -4.5,10 -10,10 h -25.66 c -5.5,0 -10,4.5 -10,10 v 125.98 c 0,5.5 4.5,10 10,10 h 85.23 c 5.5,0 10,-4.5 10,-10 V 53.33 c 0,-5.5 -4.5,-10 -10,-10 z"
           class="shp1"
           id="path29" />
      </g>
      <path
         id="path35"
         class="shp0"
         d="m 417.13,302.69 c 0,5.5 -4.5,10 -10,10 h -40.81 c -5.5,0 -10,-4.5 -10,-10 V 53.33 c 0,-5.5 4.5,-10 10,-10 h 40.81 c 5.5,0 10,4.5 10,10 z"
         style="fill:#1a1a1a" />
    </g>
  </g>
  <text
     style="transform: matrix(1,0,0,1,920,234)"
     id="text42" />
</svg>
