<svg xmlns="http://www.w3.org/2000/svg" viewBox="0 0 512 512" width="512" height="512">
	<style>
		tspan { white-space:pre }
		.shp0 { fill: #000000 } 
		.shp1 { fill: #ffffff } 
	</style>
	<g id="Layer 1">
		<g id="&lt;Group&gt;">
			<g id="&lt;Group&gt;">
				<text id=" " style="transform: matrix(1,0,0,1,-142.781,-142.781)" >
				</text>
			</g>
			<g id="&lt;Group&gt;">
				<path id="&lt;Path&gt;" class="shp0" d="M165.68 302.69C165.68 308.19 161.18 312.69 155.68 312.69L118.88 312.69C113.38 312.69 108.88 308.19 108.88 302.69L108.88 53.33C108.88 47.83 113.38 43.33 118.88 43.33L155.68 43.33C161.18 43.33 165.68 47.83 165.68 53.33L165.68 302.69Z" />
				<path id="&lt;Path&gt;" class="shp0" d="M284.4 302.69C284.4 308.19 279.9 312.69 274.4 312.69L237.6 312.69C232.1 312.69 227.6 308.19 227.6 302.69L227.6 53.33C227.6 47.83 232.1 43.33 237.6 43.33L274.4 43.33C279.9 43.33 284.4 47.83 284.4 53.33L284.4 302.69Z" />
				<g id="&lt;Group&gt;">
					<g id="&lt;Group&gt;">
						<path id="&lt;Path&gt;" class="shp1" d="M227.6 322.69C222.1 322.69 217.6 318.19 217.6 312.69L217.6 53.33C217.6 47.83 213.1 43.33 207.6 43.33L185.68 43.33C180.18 43.33 175.68 47.83 175.68 53.33L175.68 312.69C175.68 318.19 171.18 322.69 165.68 322.69L154.03 322.69C148.53 322.69 144.03 327.19 144.03 332.69L144.03 458.67C144.03 464.17 148.53 468.67 154.03 468.67L239.25 468.67C244.75 468.67 249.25 464.17 249.25 458.67L249.25 332.69C249.25 327.19 244.75 322.69 239.25 322.69L227.6 322.69Z" />
					</g>
					<g id="&lt;Group&gt;">
						<path id="&lt;Path&gt;" class="shp1" d="M108.88 322.69C103.38 322.69 98.88 318.19 98.88 312.69L98.88 53.33C98.88 47.83 94.38 43.33 88.88 43.33L35.3 43.33C29.8 43.33 25.3 47.83 25.3 53.33L25.3 458.67C25.3 464.17 29.8 468.67 35.3 468.67L120.53 468.67C126.03 468.67 130.53 464.17 130.53 458.67L130.53 332.69C130.53 327.19 126.03 322.69 120.53 322.69L108.88 322.69Z" />
					</g>
					<g id="&lt;Group&gt;">
						<path id="&lt;Path&gt;" class="shp1" d="M346.32 322.69C340.82 322.69 336.32 318.19 336.32 312.69L336.32 53.33C336.32 47.83 331.82 43.33 326.32 43.33L304.4 43.33C298.9 43.33 294.4 47.83 294.4 53.33L294.4 312.69C294.4 318.19 289.9 322.69 284.4 322.69L272.75 322.69C267.25 322.69 262.75 327.19 262.75 332.69L262.75 458.67C262.75 464.17 267.25 468.67 272.75 468.67L357.97 468.67C363.47 468.67 367.97 464.17 367.97 458.67L367.97 332.69C367.97 327.19 363.47 322.69 357.97 322.69L346.32 322.69Z" />
					</g>
					<g id="&lt;Group&gt;">
						<path id="&lt;Path&gt;" class="shp1" d="M423.13 43.33C417.63 43.33 413.13 47.83 413.13 53.33L413.13 312.69C413.13 318.19 408.63 322.69 403.13 322.69L391.47 322.69C385.97 322.69 381.47 327.19 381.47 332.69L381.47 458.67C381.47 464.17 385.97 468.67 391.47 468.67L476.7 468.67C482.2 468.67 486.7 464.17 486.7 458.67L486.7 53.33C486.7 47.83 482.2 43.33 476.7 43.33L423.13 43.33Z" />
					</g>
				</g>
				<path id="&lt;Path&gt;" class="shp0" d="M403.13 302.69C403.13 308.19 398.63 312.69 393.13 312.69L356.32 312.69C350.82 312.69 346.32 308.19 346.32 302.69L346.32 53.33C346.32 47.83 350.82 43.33 356.32 43.33L393.13 43.33C398.63 43.33 403.13 47.83 403.13 53.33L403.13 302.69Z" />
			</g>
		</g>
	</g>
	<text id=" " style="transform: matrix(1,0,0,1,920,234)" >
	</text>
</svg>